<svg xmlns="http://www.w3.org/2000/svg" xmlns:xlink="http://www.w3.org/1999/xlink" xmlns:lucid="lucid" width="887" height="1244"><g transform="translate(-89 -2284)" lucid:page-tab-id="0_0"><path d="M679.17 3064.43l120.83 77.8-120.83 77.8-120.84-77.8z" stroke="#9391ff" stroke-width="3" fill="#dedeff"/><use xlink:href="#a" transform="matrix(1,0,0,1,563.3333333333333,3069.4246623293275) translate(90.6438888888889 83.43916666666667)"/><path d="M558.33 2397.53H800v91.66H558.33z" stroke="#6f7681" stroke-width="3" fill="#ced4db"/><use xlink:href="#b" transform="matrix(1,0,0,1,570.3333333333333,2409.533333333334) translate(67.61555555555555 28.37666666666667)"/><use xlink:href="#c" transform="matrix(1,0,0,1,570.3333333333333,2409.533333333334) translate(118.70444444444445 28.37666666666667)"/><use xlink:href="#d" transform="matrix(1,0,0,1,570.3333333333333,2409.533333333334) translate(35.41 57.71000000000001)"/><path d="M558.33 2551H800v115.42H558.33z" stroke="#ba23f6" stroke-width="3" fill="#f4d9ff"/><use xlink:href="#e" transform="matrix(1,0,0,1,570.3333333333333,2563.0116369263906) translate(80.22888888888889 27.00166666666667)"/><use xlink:href="#f" transform="matrix(1,0,0,1,570.3333333333333,2563.0116369263906) translate(35.41 56.33500000000001)"/><use xlink:href="#g" transform="matrix(1,0,0,1,570.3333333333333,2563.0116369263906) translate(61.63888888888889 85.66833333333334)"/><path d="M558.33 2730.98H800v88.92H558.33z" stroke="#ba23f6" stroke-width="3" fill="#f4d9ff"/><use xlink:href="#h" transform="matrix(1,0,0,1,570.3333333333334,2742.978997831331) translate(46.22666666666668 28.18916666666667)"/><use xlink:href="#i" transform="matrix(1,0,0,1,570.3333333333334,2742.978997831331) translate(57.72777777777778 57.52250000000001)"/><path d="M558.33 2884.46H800v115.4H558.33z" stroke="#ba23f6" stroke-width="3" fill="#f4d9ff"/><use xlink:href="#j" transform="matrix(1,0,0,1,570.3333333333333,2896.4573014243865) translate(67.44444444444444 27.00166666666667)"/><use xlink:href="#k" transform="matrix(1,0,0,1,570.3333333333333,2896.4573014243865) translate(35.41 56.33500000000001)"/><use xlink:href="#l" transform="matrix(1,0,0,1,570.3333333333333,2896.4573014243865) translate(61.63888888888889 85.66833333333334)"/><path d="M220 3080.52h241.67v115.4H220z" stroke="#fe7070" stroke-width="3" fill="#ffd9d9"/><use xlink:href="#m" transform="matrix(1,0,0,1,232.00000000000003,3092.5233521492096) translate(61.71222222222222 27.00166666666667)"/><use xlink:href="#n" transform="matrix(1,0,0,1,232.00000000000003,3092.5233521492096) translate(35.41 56.33500000000001)"/><use xlink:href="#o" transform="matrix(1,0,0,1,232.00000000000003,3092.5233521492096) translate(61.63888888888889 85.66833333333334)"/><path d="M554.65 3300h241.67v115.4H554.65z" stroke="#54c45e" stroke-width="3" fill="#c3f7c8"/><use xlink:href="#p" transform="matrix(1,0,0,1,566.6497755728643,3312) translate(58.32666666666667 27.00166666666667)"/><use xlink:href="#n" transform="matrix(1,0,0,1,566.6497755728643,3312) translate(35.41 56.33500000000001)"/><use xlink:href="#o" transform="matrix(1,0,0,1,566.6497755728643,3312) translate(61.63888888888889 85.66833333333334)"/><path d="M679.17 2492.2v36.7" stroke="#333" stroke-width="3" fill="none"/><path d="M680.67 2492.23h-3v-1.54h3z" stroke="#333" stroke-width=".05" fill="#333"/><path d="M679.17 2544.66l-4.64-14.27h9.27z" stroke="#333" stroke-width="3" fill="#333"/><path d="M679.17 2669.42v39.44" stroke="#333" stroke-width="3" fill="none"/><path d="M680.67 2669.46h-3v-1.54h3z" stroke="#333" stroke-width=".05" fill="#333"/><path d="M679.17 2724.63l-4.64-14.27h9.27z" stroke="#333" stroke-width="3" fill="#333"/><path d="M679.17 2822.9v39.44" stroke="#333" stroke-width="3" fill="none"/><path d="M680.67 2822.94h-3v-1.54h3z" stroke="#333" stroke-width=".05" fill="#333"/><path d="M679.17 2878.1l-4.64-14.26h9.27z" stroke="#333" stroke-width="3" fill="#333"/><path d="M679.17 3002.86v39.16" stroke="#333" stroke-width="3" fill="none"/><path d="M680.67 3002.9h-3v-1.54h3z" stroke="#333" stroke-width=".05" fill="#333"/><path d="M679.17 3057.8l-4.64-14.28h9.27z" stroke="#333" stroke-width="3" fill="#333"/><path d="M493.33 3143.7h-11.66v-2h11.66zm61.23-.47H525.4v-2h29.16z" stroke="#e81313" stroke-width=".05" fill="#e81313"/><path d="M555.56 3142.23l1.56 1h-2.58v-2h2.58z" fill="#e81313"/><path d="M555.6 3142.23l1.6 1.02h-2.7v-2.05h2.7zm-1.04-.98v1.95h2.47l-1.5-.97 1.5-.98z" stroke="#e81313" stroke-width=".05" fill="#e81313"/><path d="M480.67 3147.33l-14.27-4.64 14.27-4.64z" fill="#e81313"/><path d="M481.67 3148.7l-18.5-6 18.5-6.02zm-12.03-6l10.03 3.25v-6.52z" stroke="#e81313" stroke-width=".05" fill="#e81313"/><use xlink:href="#q" transform="matrix(1,0,0,1,493.32908340173145,3127.794121681048) translate(0.004999999999999005 24.12666666666667)"/><path d="M676.48 3280h-2v-5.18h2zm3.7-34.5h-2v-22.68h2z" stroke="#008a0e" stroke-width=".05" fill="#008a0e"/><path d="M680.17 3222.84h-2v-1.67l1 .65 1-.65z" fill="#008a0e"/><path d="M680.2 3222.87h-2.06v-1.74l1.03.66 1.02-.67zm-1.03-1.02l-.98-.63v1.6h1.94v-1.6z" stroke="#008a0e" stroke-width=".05" fill="#008a0e"/><path d="M675.48 3295.26l-4.63-14.26h9.27z" fill="#008a0e"/><path d="M675.48 3298.5l-6-18.5h12zm-3.26-16.5l3.26 10.03 3.26-10.03z" stroke="#008a0e" stroke-width=".05" fill="#008a0e"/><use xlink:href="#r" transform="matrix(1,0,0,1,658.9059988975432,3245.4916803510646) translate(0.004999999999999005 24.12666666666667)"/><path d="M556.83 2775.44c0 .83-.67 1.5-1.5 1.5s-1.5-.67-1.5-1.5.67-1.5 1.5-1.5 1.5.67 1.5 1.5zm-5.83 0c0 .83-.67 1.5-1.5 1.5s-1.5-.67-1.5-1.5.67-1.5 1.5-1.5 1.5.67 1.5 1.5zm-5.83 0c0 .83-.67 1.5-1.5 1.5s-1.5-.67-1.5-1.5.67-1.5 1.5-1.5 1.5.67 1.5 1.5zm-5.84 0c0 .83-.67 1.5-1.5 1.5s-1.5-.67-1.5-1.5.67-1.5 1.5-1.5 1.5.67 1.5 1.5zm-5.83 0c0 .83-.67 1.5-1.5 1.5s-1.5-.67-1.5-1.5.67-1.5 1.5-1.5 1.5.67 1.5 1.5zm-5.98-1.64c0 .83-.67 1.5-1.5 1.5s-1.5-.67-1.5-1.5.67-1.5 1.5-1.5 1.5.67 1.5 1.5zm-4.38-4.38c0 .83-.68 1.5-1.5 1.5-.83 0-1.5-.67-1.5-1.5s.67-1.5 1.5-1.5c.82 0 1.5.67 1.5 1.5zm-1.64-5.98c0 .83-.67 1.5-1.5 1.5s-1.5-.67-1.5-1.5.67-1.5 1.5-1.5 1.5.67 1.5 1.5zm0-5.95c0 .82-.67 1.5-1.5 1.5s-1.5-.68-1.5-1.5c0-.84.67-1.5 1.5-1.5s1.5.66 1.5 1.5zm0-5.95c0 .82-.67 1.5-1.5 1.5s-1.5-.68-1.5-1.5c0-.83.67-1.5 1.5-1.5s1.5.67 1.5 1.5zm0-5.95c0 .83-.67 1.5-1.5 1.5s-1.5-.67-1.5-1.5.67-1.5 1.5-1.5 1.5.67 1.5 1.5zm0-5.95c0 .83-.67 1.5-1.5 1.5s-1.5-.67-1.5-1.5.67-1.5 1.5-1.5 1.5.67 1.5 1.5zm0-5.95c0 .83-.67 1.5-1.5 1.5s-1.5-.67-1.5-1.5c0-.82.67-1.5 1.5-1.5s1.5.68 1.5 1.5zm0-5.94c0 .83-.67 1.5-1.5 1.5s-1.5-.67-1.5-1.5.67-1.5 1.5-1.5 1.5.67 1.5 1.5zm0-5.95c0 .84-.67 1.5-1.5 1.5s-1.5-.66-1.5-1.5c0-.82.67-1.5 1.5-1.5s1.5.68 1.5 1.5zm0-5.94c0 .83-.67 1.5-1.5 1.5s-1.5-.67-1.5-1.5c0-.82.67-1.5 1.5-1.5s1.5.68 1.5 1.5zm0-5.94c0 .83-.67 1.5-1.5 1.5s-1.5-.67-1.5-1.5.67-1.5 1.5-1.5 1.5.67 1.5 1.5zm0-5.95c0 .83-.67 1.5-1.5 1.5s-1.5-.67-1.5-1.5.67-1.5 1.5-1.5 1.5.67 1.5 1.5zm0-5.95c0 .83-.67 1.5-1.5 1.5s-1.5-.67-1.5-1.5c0-.82.67-1.5 1.5-1.5s1.5.68 1.5 1.5zm0-5.94c0 .83-.67 1.5-1.5 1.5s-1.5-.67-1.5-1.5.67-1.5 1.5-1.5 1.5.67 1.5 1.5zm0-5.95c0 .83-.67 1.5-1.5 1.5s-1.5-.67-1.5-1.5.67-1.5 1.5-1.5 1.5.67 1.5 1.5zm0-5.95c0 .83-.67 1.5-1.5 1.5s-1.5-.67-1.5-1.5c0-.82.67-1.5 1.5-1.5s1.5.68 1.5 1.5zm0-5.94c0 .83-.67 1.5-1.5 1.5s-1.5-.67-1.5-1.5.67-1.5 1.5-1.5 1.5.67 1.5 1.5zm0-5.95c0 .82-.67 1.5-1.5 1.5s-1.5-.68-1.5-1.5c0-.84.67-1.5 1.5-1.5s1.5.66 1.5 1.5zm0-5.96c0 .83-.67 1.5-1.5 1.5s-1.5-.67-1.5-1.5.67-1.5 1.5-1.5 1.5.67 1.5 1.5zm0-5.94c0 .82-.67 1.5-1.5 1.5s-1.5-.68-1.5-1.5c0-.83.67-1.5 1.5-1.5s1.5.67 1.5 1.5zm0-5.95c0 .83-.67 1.5-1.5 1.5s-1.5-.67-1.5-1.5.67-1.5 1.5-1.5 1.5.67 1.5 1.5zm0-5.95c0 .83-.67 1.5-1.5 1.5s-1.5-.67-1.5-1.5.67-1.5 1.5-1.5 1.5.67 1.5 1.5zm0-5.94c0 .82-.67 1.5-1.5 1.5s-1.5-.68-1.5-1.5c0-.83.67-1.5 1.5-1.5s1.5.67 1.5 1.5zm0-5.95c0 .84-.67 1.5-1.5 1.5s-1.5-.66-1.5-1.5c0-.82.67-1.5 1.5-1.5s1.5.68 1.5 1.5zm0-5.94c0 .83-.67 1.5-1.5 1.5s-1.5-.67-1.5-1.5.67-1.5 1.5-1.5 1.5.67 1.5 1.5zm0-5.94c0 .82-.67 1.5-1.5 1.5s-1.5-.68-1.5-1.5c0-.83.67-1.5 1.5-1.5s1.5.67 1.5 1.5zm1.64-6c0 .84-.68 1.5-1.5 1.5-.83 0-1.5-.66-1.5-1.5 0-.82.67-1.5 1.5-1.5.82 0 1.5.68 1.5 1.5zm4.38-4.37c0 .83-.67 1.5-1.5 1.5s-1.5-.67-1.5-1.5.67-1.5 1.5-1.5 1.5.67 1.5 1.5zm5.98-1.63c0 .82-.67 1.5-1.5 1.5s-1.5-.68-1.5-1.5c0-.83.67-1.5 1.5-1.5s1.5.67 1.5 1.5zm4.2 0c0 .82-.66 1.5-1.5 1.5-.82 0-1.5-.68-1.5-1.5 0-.83.68-1.5 1.5-1.5.84 0 1.5.67 1.5 1.5z" fill="#333"/><path d="M556.83 2776.94h-1.54v-3h1.53z" stroke="#333" stroke-width=".05" fill="#333"/><path d="M551.98 2608.72l-14.27 4.63v-9.27z" stroke="#333" stroke-width="3" fill="#333"/><path d="M220 2642.06h241.67v88.92H220z" stroke="#6f7681" stroke-width="3" fill="#ced4db"/><g><use xlink:href="#s" transform="matrix(1,0,0,1,232,2654.060153965199) translate(48.48777777777778 28.18916666666667)"/><use xlink:href="#t" transform="matrix(1,0,0,1,232,2654.060153965199) translate(61.63888888888889 57.52250000000001)"/></g><path d="M520 2691.58c0 .83-.67 1.5-1.5 1.5s-1.5-.67-1.5-1.5.67-1.5 1.5-1.5 1.5.67 1.5 1.5zm-5.8 0c0 .83-.66 1.5-1.5 1.5-.8 0-1.5-.67-1.5-1.5s.7-1.5 1.5-1.5c.84 0 1.5.67 1.5 1.5zm-5.77 0c0 .83-.67 1.5-1.5 1.5s-1.5-.67-1.5-1.5.67-1.5 1.5-1.5 1.5.67 1.5 1.5zm-5.8 0c0 .83-.66 1.5-1.5 1.5-.8 0-1.5-.67-1.5-1.5s.7-1.5 1.5-1.5c.84 0 1.5.67 1.5 1.5zm-5.77 0c0 .83-.67 1.5-1.5 1.5s-1.5-.67-1.5-1.5.67-1.5 1.5-1.5 1.5.67 1.5 1.5zm-5.8 0c0 .83-.66 1.5-1.5 1.5-.82 0-1.5-.67-1.5-1.5s.68-1.5 1.5-1.5c.84 0 1.5.67 1.5 1.5zm-5.77 0c0 .83-.7 1.5-1.5 1.5-.84 0-1.5-.67-1.5-1.5s.66-1.5 1.5-1.5c.8 0 1.5.67 1.5 1.5z" fill="#333"/><path d="M518.46 2691.58H520" stroke="#333" stroke-width="3" fill="none"/><path d="M468.02 2691.58l14.27-4.64v9.27z" stroke="#333" stroke-width="3" fill="#333"/><path d="M342.33 2733.98c0 .83-.67 1.5-1.5 1.5-.82 0-1.5-.67-1.5-1.5s.68-1.5 1.5-1.5c.83 0 1.5.67 1.5 1.5zm0 6.24c0 .83-.67 1.5-1.5 1.5-.82 0-1.5-.67-1.5-1.5s.68-1.5 1.5-1.5c.83 0 1.5.67 1.5 1.5zm0 6.24c0 .83-.67 1.5-1.5 1.5-.82 0-1.5-.67-1.5-1.5s.68-1.5 1.5-1.5c.83 0 1.5.67 1.5 1.5zm0 6.24c0 .83-.67 1.5-1.5 1.5-.82 0-1.5-.67-1.5-1.5s.68-1.5 1.5-1.5c.83 0 1.5.67 1.5 1.5zm0 6.24c0 .83-.67 1.5-1.5 1.5-.82 0-1.5-.67-1.5-1.5s.68-1.5 1.5-1.5c.83 0 1.5.67 1.5 1.5zm0 6.24c0 .83-.67 1.5-1.5 1.5-.82 0-1.5-.67-1.5-1.5 0-.82.68-1.5 1.5-1.5.83 0 1.5.68 1.5 1.5zm0 6.25c0 .83-.67 1.5-1.5 1.5-.82 0-1.5-.67-1.5-1.5s.68-1.5 1.5-1.5c.83 0 1.5.67 1.5 1.5zm0 6.24c0 .83-.67 1.5-1.5 1.5-.82 0-1.5-.67-1.5-1.5s.68-1.5 1.5-1.5c.83 0 1.5.67 1.5 1.5zm0 6.24c0 .84-.67 1.5-1.5 1.5-.82 0-1.5-.66-1.5-1.5 0-.82.68-1.5 1.5-1.5.83 0 1.5.68 1.5 1.5zm0 6.25c0 .83-.67 1.5-1.5 1.5-.82 0-1.5-.67-1.5-1.5s.68-1.5 1.5-1.5c.83 0 1.5.67 1.5 1.5zm0 6.24c0 .82-.67 1.5-1.5 1.5-.82 0-1.5-.68-1.5-1.5 0-.84.68-1.5 1.5-1.5.83 0 1.5.66 1.5 1.5zm0 6.23c0 .83-.67 1.5-1.5 1.5-.82 0-1.5-.67-1.5-1.5s.68-1.5 1.5-1.5c.83 0 1.5.67 1.5 1.5zm0 6.24c0 .83-.67 1.5-1.5 1.5-.82 0-1.5-.67-1.5-1.5 0-.82.68-1.5 1.5-1.5.83 0 1.5.68 1.5 1.5zm1.64 6c0 .82-.67 1.5-1.5 1.5s-1.5-.68-1.5-1.5c0-.84.67-1.5 1.5-1.5s1.5.66 1.5 1.5zm4.38 4.37c0 .83-.67 1.5-1.5 1.5s-1.5-.67-1.5-1.5.67-1.5 1.5-1.5 1.5.67 1.5 1.5zm5.98 1.63c0 .83-.67 1.5-1.5 1.5-.82 0-1.5-.67-1.5-1.5 0-.82.68-1.5 1.5-1.5.83 0 1.5.68 1.5 1.5zm5.92 0c0 .83-.67 1.5-1.5 1.5s-1.5-.67-1.5-1.5c0-.82.67-1.5 1.5-1.5s1.5.68 1.5 1.5zm5.9 0c0 .83-.66 1.5-1.5 1.5-.8 0-1.5-.67-1.5-1.5 0-.82.7-1.5 1.5-1.5.84 0 1.5.68 1.5 1.5zm5.93 0c0 .83-.67 1.5-1.5 1.5s-1.5-.67-1.5-1.5c0-.82.67-1.5 1.5-1.5s1.5.68 1.5 1.5zm5.92 0c0 .83-.68 1.5-1.5 1.5-.83 0-1.5-.67-1.5-1.5 0-.82.67-1.5 1.5-1.5.82 0 1.5.68 1.5 1.5zm5.9 0c0 .83-.66 1.5-1.5 1.5-.82 0-1.5-.67-1.5-1.5 0-.82.68-1.5 1.5-1.5.84 0 1.5.68 1.5 1.5zm5.93 0c0 .83-.68 1.5-1.5 1.5-.83 0-1.5-.67-1.5-1.5 0-.82.67-1.5 1.5-1.5.82 0 1.5.68 1.5 1.5zm5.9 0c0 .83-.66 1.5-1.5 1.5-.82 0-1.5-.67-1.5-1.5 0-.82.68-1.5 1.5-1.5.84 0 1.5.68 1.5 1.5zm5.93 0c0 .83-.67 1.5-1.5 1.5s-1.5-.67-1.5-1.5c0-.82.67-1.5 1.5-1.5s1.5.68 1.5 1.5zm5.9 0c0 .83-.66 1.5-1.5 1.5-.82 0-1.5-.67-1.5-1.5 0-.82.68-1.5 1.5-1.5.84 0 1.5.68 1.5 1.5zm5.93 0c0 .83-.68 1.5-1.5 1.5-.84 0-1.5-.67-1.5-1.5 0-.82.66-1.5 1.5-1.5.82 0 1.5.68 1.5 1.5zm5.9 0c0 .83-.67 1.5-1.5 1.5-.82 0-1.5-.67-1.5-1.5 0-.82.68-1.5 1.5-1.5.83 0 1.5.68 1.5 1.5zm5.92 0c0 .83-.67 1.5-1.5 1.5s-1.5-.67-1.5-1.5c0-.82.67-1.5 1.5-1.5s1.5.68 1.5 1.5zm5.92 0c0 .83-.68 1.5-1.5 1.5-.83 0-1.5-.67-1.5-1.5 0-.82.67-1.5 1.5-1.5.82 0 1.5.68 1.5 1.5zm5.9 0c0 .83-.66 1.5-1.5 1.5-.82 0-1.5-.67-1.5-1.5 0-.82.68-1.5 1.5-1.5.84 0 1.5.68 1.5 1.5zm5.93 0c0 .83-.68 1.5-1.5 1.5-.83 0-1.5-.67-1.5-1.5 0-.82.67-1.5 1.5-1.5.82 0 1.5.68 1.5 1.5zm5.9 0c0 .83-.66 1.5-1.5 1.5-.82 0-1.5-.67-1.5-1.5 0-.82.68-1.5 1.5-1.5.84 0 1.5.68 1.5 1.5zm5.93 0c0 .83-.67 1.5-1.5 1.5s-1.5-.67-1.5-1.5c0-.82.67-1.5 1.5-1.5s1.5.68 1.5 1.5zm5.9 0c0 .83-.66 1.5-1.5 1.5-.82 0-1.5-.67-1.5-1.5 0-.82.68-1.5 1.5-1.5.84 0 1.5.68 1.5 1.5zm5.93 0c0 .83-.67 1.5-1.5 1.5s-1.5-.67-1.5-1.5c0-.82.67-1.5 1.5-1.5s1.5.68 1.5 1.5zm5.9 0c0 .83-.66 1.5-1.5 1.5-.8 0-1.5-.67-1.5-1.5 0-.82.7-1.5 1.5-1.5.84 0 1.5.68 1.5 1.5zm5.93 0c0 .83-.67 1.5-1.5 1.5s-1.5-.67-1.5-1.5c0-.82.67-1.5 1.5-1.5s1.5.68 1.5 1.5zm5.9 0c0 .83-.66 1.5-1.5 1.5-.8 0-1.5-.67-1.5-1.5 0-.82.7-1.5 1.5-1.5.84 0 1.5.68 1.5 1.5zm5.93 0c0 .83-.68 1.5-1.5 1.5-.84 0-1.5-.67-1.5-1.5 0-.82.66-1.5 1.5-1.5.82 0 1.5.68 1.5 1.5zm5.9 0c0 .83-.67 1.5-1.5 1.5-.82 0-1.5-.67-1.5-1.5 0-.82.68-1.5 1.5-1.5.83 0 1.5.68 1.5 1.5zm5.92 0c0 .83-.67 1.5-1.5 1.5s-1.5-.67-1.5-1.5c0-.82.67-1.5 1.5-1.5s1.5.68 1.5 1.5zm5.92 0c0 .83-.68 1.5-1.5 1.5-.83 0-1.5-.67-1.5-1.5 0-.82.67-1.5 1.5-1.5.82 0 1.5.68 1.5 1.5zm5.9 0c0 .83-.66 1.5-1.5 1.5-.82 0-1.5-.67-1.5-1.5 0-.82.68-1.5 1.5-1.5.84 0 1.5.68 1.5 1.5zm5.93 0c0 .83-.68 1.5-1.5 1.5-.83 0-1.5-.67-1.5-1.5 0-.82.67-1.5 1.5-1.5.82 0 1.5.68 1.5 1.5zm5.9 0c0 .83-.66 1.5-1.5 1.5-.82 0-1.5-.67-1.5-1.5 0-.82.68-1.5 1.5-1.5.84 0 1.5.68 1.5 1.5zm5.93 0c0 .83-.67 1.5-1.5 1.5s-1.5-.67-1.5-1.5c0-.82.67-1.5 1.5-1.5s1.5.68 1.5 1.5z" fill="#333"/><path d="M342.33 2734.02h-3v-1.54h3z" stroke="#333" stroke-width=".05" fill="#333"/><path d="M551.98 2820.87l-14.27 4.64v-9.26z" stroke="#333" stroke-width="3" fill="#333"/><defs><path fill="#333" d="M8-1433h155c36 0 55 21 66 46L634-376c20 47 34 103 48 157 12-55 25-110 44-157l403-1011c9-22 33-46 66-46h156L767 0H592" id="u"/><path fill="#333" d="M1038-507c0 321-164 521-482 521S72-187 72-507c0-248 107-410 284-485 60-25 126-37 200-37 317 0 482 201 482 522zm-782 1c0 225 80 381 300 381 213 0 298-159 298-381 0-223-84-383-298-383-221 0-300 158-300 383" id="v"/><path fill="#333" d="M698-76c-54 52-145 92-245 92-162 1-249-96-249-260v-620c-58-9-160 26-160-39v-71l166-21 41-313c4-50 80-30 131-34v349h290v129H382v608c-2 78 40 125 111 126 60 2 88-33 128-48 9 0 18 6 25 17" id="w"/><path fill="#333" d="M954-142C850-8 572 61 364-22 180-96 74-268 74-527c0-234 108-389 275-463 59-26 125-39 198-39 273 0 420 174 420 453 0 48-2 70-43 70H250c8 226 98 375 322 380 114 2 191-38 258-82 70-46 94 37 124 66zM807-617c-5-171-86-278-256-281-181-3-273 116-295 281h551" id="x"/><g id="a"><use transform="matrix(0.012222222222222223,0,0,0.012222222222222223,0,0)" xlink:href="#u"/><use transform="matrix(0.012222222222222223,0,0,0.012222222222222223,15.204444444444444,0)" xlink:href="#v"/><use transform="matrix(0.012222222222222223,0,0,0.012222222222222223,28.795555555555556,0)" xlink:href="#w"/><use transform="matrix(0.012222222222222223,0,0,0.012222222222222223,37.91333333333334,0)" xlink:href="#x"/></g><path fill="#333" d="M404 0H210v-1433h194V0" id="y"/><path fill="#333" d="M510-1031c133 0 210 49 277 120v-562h178V0c-60-6-146 21-154-37l-16-123C716-67 616 14 455 14 173 14 72-209 72-503c0-237 94-406 254-487 54-27 115-41 184-41zM256-503c2 212 53 373 258 373 136 0 207-69 273-153v-490c-57-77-121-119-237-119-208 0-296 164-294 389" id="z"/><path fill="#333" d="M537-1031c235 0 353 147 353 383V0c-58-5-129 17-142-42l-20-94C637-55 545 19 375 16 200 13 92-76 92-253c0-184 160-243 332-285 79-19 176-28 291-31 12-184-31-318-200-318-113 0-181 45-243 91-36 26-82 14-99-17l-32-57c101-96 215-161 396-161zM263-261c0 103 62 152 165 152 140 0 216-64 287-136v-211c-141 4-258 19-349 60-60 27-103 62-103 135" id="A"/><g id="b"><use transform="matrix(0.012222222222222223,0,0,0.012222222222222223,0,0)" xlink:href="#y"/><use transform="matrix(0.012222222222222223,0,0,0.012222222222222223,7.504444444444445,0)" xlink:href="#z"/><use transform="matrix(0.012222222222222223,0,0,0.012222222222222223,21.16888888888889,0)" xlink:href="#x"/><use transform="matrix(0.012222222222222223,0,0,0.012222222222222223,33.97777777777778,0)" xlink:href="#A"/></g><path fill="#333" d="M594-1317c-165 0-237 72-235 231v93h293v129H365V0H186v-861c-49-9-113-4-146-29-24-17-10-67-14-103h160v-98c5-229 120-363 348-363 45 0 87 7 126 20l-4 89c-2 31-28 28-62 28" id="B"/><path fill="#333" d="M584-856c-148 6-210 94-260 211V0H146v-1013c62 7 151-25 157 49l12 158c66-138 184-259 384-216 23 5 44 16 63 27l-23 133c-5 17-15 25-31 25-36 0-71-21-124-19" id="C"/><g id="c"><use transform="matrix(0.012222222222222223,0,0,0.012222222222222223,0,0)" xlink:href="#B"/><use transform="matrix(0.012222222222222223,0,0,0.012222222222222223,8.237777777777778,0)" xlink:href="#v"/><use transform="matrix(0.012222222222222223,0,0,0.012222222222222223,21.82888888888889,0)" xlink:href="#C"/></g><path fill="#333" d="M1057-1433v158H369v476h557v152H369v489h688V0H174v-1433h883" id="D"/><path fill="#333" d="M598-887c-125 2-207 68-274 141V0H146v-1013c60 6 147-22 154 37l14 110c82-87 177-163 336-163 232 0 339 151 339 384V0H811v-645c0-149-65-244-213-242" id="E"/><path fill="#333" d="M598-887c-125 2-207 68-274 141V0H146v-1473h178v596c81-82 173-152 326-152 232 0 339 151 339 384V0H811v-645c0-149-65-244-213-242" id="F"/><path fill="#333" d="M895-142C799-8 539 62 344-21 173-94 74-262 74-507c0-317 160-522 477-522 151 0 254 54 333 132-21 26-39 58-63 81-42 20-68-19-100-34-42-20-91-42-160-40-219 6-304 160-304 383 0 220 82 376 295 383 106 4 169-38 223-84 22-19 53-21 70 1" id="G"/><path fill="#333" d="M550-887c-107 0-172 65-226 132V0H146v-1013c60 6 147-22 154 37l13 104c69-80 148-156 287-157 148-1 223 92 258 211 51-126 153-211 323-211 232 0 338 149 338 384V0h-178v-645c1-148-62-242-203-242-142 0-218 94-218 242V0H742v-645c1-149-54-242-192-242" id="H"/><g id="d"><use transform="matrix(0.012222222222222223,0,0,0.012222222222222223,0,0)" xlink:href="#D"/><use transform="matrix(0.012222222222222223,0,0,0.012222222222222223,14.202222222222224,0)" xlink:href="#E"/><use transform="matrix(0.012222222222222223,0,0,0.012222222222222223,27.793333333333337,0)" xlink:href="#F"/><use transform="matrix(0.012222222222222223,0,0,0.012222222222222223,41.38444444444445,0)" xlink:href="#A"/><use transform="matrix(0.012222222222222223,0,0,0.012222222222222223,53.77777777777778,0)" xlink:href="#E"/><use transform="matrix(0.012222222222222223,0,0,0.012222222222222223,67.3688888888889,0)" xlink:href="#G"/><use transform="matrix(0.012222222222222223,0,0,0.012222222222222223,78.78444444444446,0)" xlink:href="#x"/><use transform="matrix(0.012222222222222223,0,0,0.012222222222222223,91.59333333333335,0)" xlink:href="#H"/><use transform="matrix(0.012222222222222223,0,0,0.012222222222222223,111.66222222222225,0)" xlink:href="#x"/><use transform="matrix(0.012222222222222223,0,0,0.012222222222222223,124.47111111111111,0)" xlink:href="#E"/><use transform="matrix(0.012222222222222223,0,0,0.012222222222222223,138.06222222222223,0)" xlink:href="#w"/></g><path fill="#333" d="M1365-1009c68 170 68 416 0 586C1264-171 1053 0 710 0H174v-1433h536c343 5 555 172 655 424zM710-157c338-11 507-216 507-559s-169-560-507-560H369v1119h341" id="I"/><g id="e"><use transform="matrix(0.012222222222222223,0,0,0.012222222222222223,0,0)" xlink:href="#I"/><use transform="matrix(0.012222222222222223,0,0,0.012222222222222223,18.406666666666666,0)" xlink:href="#C"/><use transform="matrix(0.012222222222222223,0,0,0.012222222222222223,27.79333333333333,0)" xlink:href="#A"/><use transform="matrix(0.012222222222222223,0,0,0.012222222222222223,40.18666666666667,0)" xlink:href="#B"/><use transform="matrix(0.012222222222222223,0,0,0.012222222222222223,48.42444444444445,0)" xlink:href="#w"/></g><g id="f"><use transform="matrix(0.012222222222222223,0,0,0.012222222222222223,0,0)" xlink:href="#D"/><use transform="matrix(0.012222222222222223,0,0,0.012222222222222223,14.202222222222224,0)" xlink:href="#E"/><use transform="matrix(0.012222222222222223,0,0,0.012222222222222223,27.793333333333337,0)" xlink:href="#F"/><use transform="matrix(0.012222222222222223,0,0,0.012222222222222223,41.38444444444445,0)" xlink:href="#A"/><use transform="matrix(0.012222222222222223,0,0,0.012222222222222223,53.77777777777778,0)" xlink:href="#E"/><use transform="matrix(0.012222222222222223,0,0,0.012222222222222223,67.3688888888889,0)" xlink:href="#G"/><use transform="matrix(0.012222222222222223,0,0,0.012222222222222223,78.78444444444446,0)" xlink:href="#x"/><use transform="matrix(0.012222222222222223,0,0,0.012222222222222223,91.59333333333335,0)" xlink:href="#H"/><use transform="matrix(0.012222222222222223,0,0,0.012222222222222223,111.66222222222225,0)" xlink:href="#x"/><use transform="matrix(0.012222222222222223,0,0,0.012222222222222223,124.47111111111111,0)" xlink:href="#E"/><use transform="matrix(0.012222222222222223,0,0,0.012222222222222223,138.06222222222223,0)" xlink:href="#w"/></g><path fill="#333" d="M617-1433c323 3 534 130 534 444 0 310-216 446-534 453H387V0H194v-1433h423zm340 444c0-197-128-291-340-291H387v590h230c207-4 340-97 340-299" id="J"/><path fill="#333" d="M602 14c-133 0-212-47-278-119v448H146v-1356c60 6 147-22 154 37l15 120c80-93 179-175 341-175 282 0 383 224 383 518 0 237-92 406-253 487-54 27-116 40-184 40zm253-527c-3-212-53-374-258-374-136 0-207 69-273 153v490c57 77 121 120 238 120 207 0 295-164 293-389" id="K"/><path fill="#333" d="M409-112c121-3 207-52 207-167 0-134-157-142-264-181-133-48-263-98-263-275 0-197 153-290 360-294 139-3 243 49 317 118-26 35-46 114-111 76-53-31-114-63-202-61-108 3-195 44-195 147 0 129 158 136 262 175 128 48 263 93 263 264C783-89 627 12 400 16 255 19 139-39 62-107c27-41 57-128 128-81 57 38 118 78 219 76" id="L"/><path fill="#333" d="M344-1473V0H166v-1473h178" id="M"/><g id="g"><use transform="matrix(0.012222222222222223,0,0,0.012222222222222223,0,0)" xlink:href="#J"/><use transform="matrix(0.012222222222222223,0,0,0.012222222222222223,14.935555555555556,0)" xlink:href="#C"/><use transform="matrix(0.012222222222222223,0,0,0.012222222222222223,24.78666666666667,0)" xlink:href="#v"/><use transform="matrix(0.012222222222222223,0,0,0.012222222222222223,38.37777777777778,0)" xlink:href="#K"/><use transform="matrix(0.012222222222222223,0,0,0.012222222222222223,51.87111111111111,0)" xlink:href="#v"/><use transform="matrix(0.012222222222222223,0,0,0.012222222222222223,65.46222222222222,0)" xlink:href="#L"/><use transform="matrix(0.012222222222222223,0,0,0.012222222222222223,76.07111111111111,0)" xlink:href="#A"/><use transform="matrix(0.012222222222222223,0,0,0.012222222222222223,88.46444444444444,0)" xlink:href="#M"/></g><path fill="#333" d="M1289-200C1173-69 1017 19 773 16c-339-4-539-180-634-435-65-176-67-421 3-594 104-257 318-431 668-436 220-3 359 75 476 182-27 35-48 75-79 105-60 21-86-37-135-56-109-71-336-85-474-24-190 83-310 257-310 526 0 268 114 444 301 527 146 65 383 42 487-33 24-17 50-36 75-59 20-19 44-22 62-2" id="N"/><path fill="#333" d="M461 16c-231 0-339-149-339-383v-646h178v646c0 148 67 243 213 241 125-2 207-66 274-140v-747h178V0c-60-6-146 22-154-37l-14-109C716-60 619 16 461 16" id="O"/><path fill="#333" d="M344-1013V0H166v-1013h178zm-88-446c77 0 128 52 128 128 0 75-52 126-128 126-75 0-126-51-126-126 0-76 50-128 126-128" id="P"/><path fill="#333" d="M443 299c-13 26-25 44-64 44H247L432-59 14-1013h154c30-1 46 18 55 37 95 228 197 450 287 682 6 14 8 30 11 45 10-32 18-60 30-90l263-637c18-60 124-30 194-37" id="Q"/><g id="h"><use transform="matrix(0.012222222222222223,0,0,0.012222222222222223,0,0)" xlink:href="#N"/><use transform="matrix(0.012222222222222223,0,0,0.012222222222222223,16.744444444444444,0)" xlink:href="#v"/><use transform="matrix(0.012222222222222223,0,0,0.012222222222222223,30.33555555555556,0)" xlink:href="#H"/><use transform="matrix(0.012222222222222223,0,0,0.012222222222222223,50.404444444444444,0)" xlink:href="#H"/><use transform="matrix(0.012222222222222223,0,0,0.012222222222222223,70.47333333333333,0)" xlink:href="#O"/><use transform="matrix(0.012222222222222223,0,0,0.012222222222222223,84.06444444444443,0)" xlink:href="#E"/><use transform="matrix(0.012222222222222223,0,0,0.012222222222222223,97.65555555555554,0)" xlink:href="#P"/><use transform="matrix(0.012222222222222223,0,0,0.012222222222222223,103.91333333333331,0)" xlink:href="#w"/><use transform="matrix(0.012222222222222223,0,0,0.012222222222222223,113.0311111111111,0)" xlink:href="#Q"/></g><path fill="#333" d="M1057-1433v158H369v501h588v158H369V0H174v-1433h883" id="R"/><path fill="#333" d="M608 14c-142 0-221-61-286-144-9 50 6 130-55 130H152v-1473h179v606c78-87 176-162 331-162 283 0 384 222 384 516 0 237-93 406-254 487-54 27-116 40-184 40zm254-527c-2-212-53-374-258-374-136 0-207 69-273 153v490c56 77 120 120 237 120 208 0 296-164 294-389" id="S"/><path fill="#333" d="M331-1473v867c49 0 82 0 108-28l320-343c20-19 33-36 70-36h162C858-871 723-729 590-586c-9 9-19 16-30 23 25 17 41 39 60 63L1016 0c-81-8-184 18-227-35L456-450c-21-27-31-33-75-34h-50V0H152v-1473h179" id="T"/><g id="i"><use transform="matrix(0.012222222222222223,0,0,0.012222222222222223,0,0)" xlink:href="#R"/><use transform="matrix(0.012222222222222223,0,0,0.012222222222222223,12.98,0)" xlink:href="#x"/><use transform="matrix(0.012222222222222223,0,0,0.012222222222222223,25.78888888888889,0)" xlink:href="#x"/><use transform="matrix(0.012222222222222223,0,0,0.012222222222222223,38.59777777777778,0)" xlink:href="#z"/><use transform="matrix(0.012222222222222223,0,0,0.012222222222222223,52.26222222222223,0)" xlink:href="#S"/><use transform="matrix(0.012222222222222223,0,0,0.012222222222222223,65.92666666666666,0)" xlink:href="#A"/><use transform="matrix(0.012222222222222223,0,0,0.012222222222222223,78.32,0)" xlink:href="#G"/><use transform="matrix(0.012222222222222223,0,0,0.012222222222222223,89.73555555555555,0)" xlink:href="#T"/></g><path fill="#333" d="M1124-1036c0 240-152 355-353 406 24 14 45 35 64 61L1253 0c-92-9-205 21-250-41L631-553c-24-32-41-45-97-45H387V0H194v-1433h405c307 3 525 101 525 397zm-189 14c0-188-133-258-336-258H387v541h203c205-3 345-85 345-283" id="U"/><g id="j"><use transform="matrix(0.012222222222222223,0,0,0.012222222222222223,0,0)" xlink:href="#U"/><use transform="matrix(0.012222222222222223,0,0,0.012222222222222223,15.742222222222223,0)" xlink:href="#x"/><use transform="matrix(0.012222222222222223,0,0,0.012222222222222223,28.551111111111112,0)" xlink:href="#B"/><use transform="matrix(0.012222222222222223,0,0,0.012222222222222223,36.78888888888889,0)" xlink:href="#P"/><use transform="matrix(0.012222222222222223,0,0,0.012222222222222223,43.04666666666667,0)" xlink:href="#E"/><use transform="matrix(0.012222222222222223,0,0,0.012222222222222223,56.63777777777778,0)" xlink:href="#x"/><use transform="matrix(0.012222222222222223,0,0,0.012222222222222223,69.44666666666667,0)" xlink:href="#z"/></g><g id="k"><use transform="matrix(0.012222222222222223,0,0,0.012222222222222223,0,0)" xlink:href="#D"/><use transform="matrix(0.012222222222222223,0,0,0.012222222222222223,14.202222222222224,0)" xlink:href="#E"/><use transform="matrix(0.012222222222222223,0,0,0.012222222222222223,27.793333333333337,0)" xlink:href="#F"/><use transform="matrix(0.012222222222222223,0,0,0.012222222222222223,41.38444444444445,0)" xlink:href="#A"/><use transform="matrix(0.012222222222222223,0,0,0.012222222222222223,53.77777777777778,0)" xlink:href="#E"/><use transform="matrix(0.012222222222222223,0,0,0.012222222222222223,67.3688888888889,0)" xlink:href="#G"/><use transform="matrix(0.012222222222222223,0,0,0.012222222222222223,78.78444444444446,0)" xlink:href="#x"/><use transform="matrix(0.012222222222222223,0,0,0.012222222222222223,91.59333333333335,0)" xlink:href="#H"/><use transform="matrix(0.012222222222222223,0,0,0.012222222222222223,111.66222222222225,0)" xlink:href="#x"/><use transform="matrix(0.012222222222222223,0,0,0.012222222222222223,124.47111111111111,0)" xlink:href="#E"/><use transform="matrix(0.012222222222222223,0,0,0.012222222222222223,138.06222222222223,0)" xlink:href="#w"/></g><g id="l"><use transform="matrix(0.012222222222222223,0,0,0.012222222222222223,0,0)" xlink:href="#J"/><use transform="matrix(0.012222222222222223,0,0,0.012222222222222223,14.935555555555556,0)" xlink:href="#C"/><use transform="matrix(0.012222222222222223,0,0,0.012222222222222223,24.78666666666667,0)" xlink:href="#v"/><use transform="matrix(0.012222222222222223,0,0,0.012222222222222223,38.37777777777778,0)" xlink:href="#K"/><use transform="matrix(0.012222222222222223,0,0,0.012222222222222223,51.87111111111111,0)" xlink:href="#v"/><use transform="matrix(0.012222222222222223,0,0,0.012222222222222223,65.46222222222222,0)" xlink:href="#L"/><use transform="matrix(0.012222222222222223,0,0,0.012222222222222223,76.07111111111111,0)" xlink:href="#A"/><use transform="matrix(0.012222222222222223,0,0,0.012222222222222223,88.46444444444444,0)" xlink:href="#M"/></g><path fill="#333" d="M-17 228c126 0 183-30 183-153v-1088h178V75c-3 186-98 287-286 289-47 0-79-7-114-20l8-96c3-18 11-20 31-20zm273-1687c77 0 128 52 128 128 0 75-52 126-128 126-75 0-126-51-126-126 0-76 50-128 126-128" id="V"/><g id="m"><use transform="matrix(0.012222222222222223,0,0,0.012222222222222223,0,0)" xlink:href="#U"/><use transform="matrix(0.012222222222222223,0,0,0.012222222222222223,15.742222222222223,0)" xlink:href="#x"/><use transform="matrix(0.012222222222222223,0,0,0.012222222222222223,28.551111111111112,0)" xlink:href="#V"/><use transform="matrix(0.012222222222222223,0,0,0.012222222222222223,34.760000000000005,0)" xlink:href="#x"/><use transform="matrix(0.012222222222222223,0,0,0.012222222222222223,47.56888888888889,0)" xlink:href="#G"/><use transform="matrix(0.012222222222222223,0,0,0.012222222222222223,58.98444444444445,0)" xlink:href="#w"/><use transform="matrix(0.012222222222222223,0,0,0.012222222222222223,68.10222222222222,0)" xlink:href="#x"/><use transform="matrix(0.012222222222222223,0,0,0.012222222222222223,80.91111111111111,0)" xlink:href="#z"/></g><g id="n"><use transform="matrix(0.012222222222222223,0,0,0.012222222222222223,0,0)" xlink:href="#D"/><use transform="matrix(0.012222222222222223,0,0,0.012222222222222223,14.202222222222224,0)" xlink:href="#E"/><use transform="matrix(0.012222222222222223,0,0,0.012222222222222223,27.793333333333337,0)" xlink:href="#F"/><use transform="matrix(0.012222222222222223,0,0,0.012222222222222223,41.38444444444445,0)" xlink:href="#A"/><use transform="matrix(0.012222222222222223,0,0,0.012222222222222223,53.77777777777778,0)" xlink:href="#E"/><use transform="matrix(0.012222222222222223,0,0,0.012222222222222223,67.3688888888889,0)" xlink:href="#G"/><use transform="matrix(0.012222222222222223,0,0,0.012222222222222223,78.78444444444446,0)" xlink:href="#x"/><use transform="matrix(0.012222222222222223,0,0,0.012222222222222223,91.59333333333335,0)" xlink:href="#H"/><use transform="matrix(0.012222222222222223,0,0,0.012222222222222223,111.66222222222225,0)" xlink:href="#x"/><use transform="matrix(0.012222222222222223,0,0,0.012222222222222223,124.47111111111111,0)" xlink:href="#E"/><use transform="matrix(0.012222222222222223,0,0,0.012222222222222223,138.06222222222223,0)" xlink:href="#w"/></g><g id="o"><use transform="matrix(0.012222222222222223,0,0,0.012222222222222223,0,0)" xlink:href="#J"/><use transform="matrix(0.012222222222222223,0,0,0.012222222222222223,14.935555555555556,0)" xlink:href="#C"/><use transform="matrix(0.012222222222222223,0,0,0.012222222222222223,24.78666666666667,0)" xlink:href="#v"/><use transform="matrix(0.012222222222222223,0,0,0.012222222222222223,38.37777777777778,0)" xlink:href="#K"/><use transform="matrix(0.012222222222222223,0,0,0.012222222222222223,51.87111111111111,0)" xlink:href="#v"/><use transform="matrix(0.012222222222222223,0,0,0.012222222222222223,65.46222222222222,0)" xlink:href="#L"/><use transform="matrix(0.012222222222222223,0,0,0.012222222222222223,76.07111111111111,0)" xlink:href="#A"/><use transform="matrix(0.012222222222222223,0,0,0.012222222222222223,88.46444444444444,0)" xlink:href="#M"/></g><path fill="#333" d="M1353 0h-150c-36 0-55-21-66-46l-134-346H360L226-46c-9 23-33 46-66 46H10l573-1433h197zM414-532h535l-225-583c-15-36-29-81-43-135-13 48-26 95-42 136" id="W"/><g id="p"><use transform="matrix(0.012222222222222223,0,0,0.012222222222222223,0,0)" xlink:href="#W"/><use transform="matrix(0.012222222222222223,0,0,0.012222222222222223,16.622222222222224,0)" xlink:href="#G"/><use transform="matrix(0.012222222222222223,0,0,0.012222222222222223,28.03777777777778,0)" xlink:href="#G"/><use transform="matrix(0.012222222222222223,0,0,0.012222222222222223,39.45333333333333,0)" xlink:href="#x"/><use transform="matrix(0.012222222222222223,0,0,0.012222222222222223,52.26222222222223,0)" xlink:href="#K"/><use transform="matrix(0.012222222222222223,0,0,0.012222222222222223,65.75555555555556,0)" xlink:href="#w"/><use transform="matrix(0.012222222222222223,0,0,0.012222222222222223,74.87333333333333,0)" xlink:href="#x"/><use transform="matrix(0.012222222222222223,0,0,0.012222222222222223,87.68222222222222,0)" xlink:href="#z"/></g><path fill="#333" d="M340-1114c9 364 1 744 4 1114H174v-1433c45 2 105-6 138 7 9 3 18 13 29 26l830 1080c-4-32-5-64-5-98v-1015h170V0c-46-3-102 7-136-8-10-5-21-14-31-27" id="X"/><g id="q"><use transform="matrix(0.012222222222222223,0,0,0.012222222222222223,0,0)" xlink:href="#X"/><use transform="matrix(0.012222222222222223,0,0,0.012222222222222223,18.48,0)" xlink:href="#v"/></g><path fill="#333" d="M726-570V0H533v-570L8-1433h170c37 0 52 22 67 45l328 557c25 42 41 81 58 127 17-46 32-85 57-127l327-557c12-20 31-45 65-45h172" id="Y"/><g id="r"><use transform="matrix(0.012222222222222223,0,0,0.012222222222222223,0,0)" xlink:href="#Y"/><use transform="matrix(0.012222222222222223,0,0,0.012222222222222223,13.42,0)" xlink:href="#x"/><use transform="matrix(0.012222222222222223,0,0,0.012222222222222223,26.22888888888889,0)" xlink:href="#L"/></g><path fill="#333" d="M18-1013h146c28-1 47 18 55 37l257 652c18 45 27 93 37 143 12-50 22-98 40-143l260-652c17-60 123-30 192-37L592 0H431" id="Z"/><g id="s"><use transform="matrix(0.012222222222222223,0,0,0.012222222222222223,0,0)" xlink:href="#W"/><use transform="matrix(0.012222222222222223,0,0,0.012222222222222223,16.622222222222224,0)" xlink:href="#M"/><use transform="matrix(0.012222222222222223,0,0,0.012222222222222223,22.880000000000003,0)" xlink:href="#w"/><use transform="matrix(0.012222222222222223,0,0,0.012222222222222223,31.99777777777778,0)" xlink:href="#x"/><use transform="matrix(0.012222222222222223,0,0,0.012222222222222223,44.80666666666667,0)" xlink:href="#C"/><use transform="matrix(0.012222222222222223,0,0,0.012222222222222223,54.65777777777778,0)" xlink:href="#E"/><use transform="matrix(0.012222222222222223,0,0,0.012222222222222223,68.2488888888889,0)" xlink:href="#A"/><use transform="matrix(0.012222222222222223,0,0,0.012222222222222223,80.64222222222223,0)" xlink:href="#w"/><use transform="matrix(0.012222222222222223,0,0,0.012222222222222223,89.76,0)" xlink:href="#P"/><use transform="matrix(0.012222222222222223,0,0,0.012222222222222223,96.01777777777778,0)" xlink:href="#Z"/><use transform="matrix(0.012222222222222223,0,0,0.012222222222222223,108.21555555555557,0)" xlink:href="#x"/></g><g id="t"><use transform="matrix(0.012222222222222223,0,0,0.012222222222222223,0,0)" xlink:href="#J"/><use transform="matrix(0.012222222222222223,0,0,0.012222222222222223,14.935555555555556,0)" xlink:href="#C"/><use transform="matrix(0.012222222222222223,0,0,0.012222222222222223,24.78666666666667,0)" xlink:href="#v"/><use transform="matrix(0.012222222222222223,0,0,0.012222222222222223,38.37777777777778,0)" xlink:href="#K"/><use transform="matrix(0.012222222222222223,0,0,0.012222222222222223,51.87111111111111,0)" xlink:href="#v"/><use transform="matrix(0.012222222222222223,0,0,0.012222222222222223,65.46222222222222,0)" xlink:href="#L"/><use transform="matrix(0.012222222222222223,0,0,0.012222222222222223,76.07111111111111,0)" xlink:href="#A"/><use transform="matrix(0.012222222222222223,0,0,0.012222222222222223,88.46444444444444,0)" xlink:href="#M"/></g></defs></g></svg>
