<svg xmlns="http://www.w3.org/2000/svg" xmlns:xlink="http://www.w3.org/1999/xlink" xmlns:lucid="lucid" width="1961.17" height="698.51"><g transform="translate(-4984.417493494676 -1953.2433333302986)" lucid:page-tab-id="0_0"><path d="M0 0h8868.24v3528H0z" fill="#fff"/><path d="M4985.92 1962.74a8 8 0 0 1 8-8h1942.16a8 8 0 0 1 8 8v679.52a8 8 0 0 1-8 8H4993.92a8 8 0 0 1-8-8z" stroke="#979ea8" stroke-width="3" fill="#fff"/><path d="M4985.92 2000.4a8 8 0 0 1 8-8h922.16a8 8 0 0 1 8 8v90a8 8 0 0 1-8 8h-922.16a8 8 0 0 1-8-8z" stroke="#000" stroke-opacity="0" fill="#fff" fill-opacity="0"/><use xlink:href="#a" transform="matrix(1,0,0,1,4990.917493503349,1997.3935598307307) translate(77.54166666666669 59.9)"/><use xlink:href="#b" transform="matrix(1,0,0,1,4990.917493503349,1997.3935598307307) translate(204.12500000000006 59.9)"/><use xlink:href="#c" transform="matrix(1,0,0,1,4990.917493503349,1997.3935598307307) translate(320.1916666666667 59.9)"/><use xlink:href="#d" transform="matrix(1,0,0,1,4990.917493503349,1997.3935598307307) translate(385.95833333333337 59.9)"/><use xlink:href="#e" transform="matrix(1,0,0,1,4990.917493503349,1997.3935598307307) translate(496.5083333333334 59.9)"/><use xlink:href="#f" transform="matrix(1,0,0,1,4990.917493503349,1997.3935598307307) translate(558.3416666666667 59.9)"/><use xlink:href="#g" transform="matrix(1,0,0,1,4990.917493503349,1997.3935598307307) translate(760.6583333333333 59.9)"/><defs><path fill="#3a414a" d="M1187-985c0 329-222 471-561 476H424V0H155v-1446h471c337 4 561 134 561 461zm-269 0c0-176-112-253-292-253H424v519h202c184-1 292-85 292-266" id="h"/><path fill="#3a414a" d="M604-806c-122 5-180 74-225 167V0H132v-1026c83 11 206-35 218 62l15 124c63-106 147-205 295-205 51 0 93 12 126 35l-32 185c-4 23-15 33-40 33-33 0-65-16-110-14" id="i"/><path fill="#3a414a" d="M361-1005c121-49 297-49 417 0 184 74 298 236 298 490 0 330-178 530-506 530C241 15 61-185 61-515c0-254 115-416 300-490zm-45 492c0 201 65 338 254 338 188 0 251-137 251-338s-63-340-251-340c-189 0-254 139-254 340" id="j"/><path fill="#3a414a" d="M502-1045c120-1 193 43 256 101v-542h247V0c-80-9-199 29-214-45l-20-99C693-58 601 15 441 15 163 15 61-217 61-510c0-241 98-411 259-494 54-27 115-41 182-41zM316-510c0 181 36 329 209 329 118 0 173-54 233-123v-460c-48-59-104-93-198-93-188 0-244 151-244 347" id="k"/><path fill="#3a414a" d="M457 16c-234 0-346-155-346-390v-652h247v652c0 121 55 198 174 197 102-1 168-51 226-107v-742h247V0c-80-9-199 29-214-45l-17-82C697-50 608 16 457 16" id="l"/><path fill="#3a414a" d="M928-153C839-49 712 15 524 15c-227 0-358-131-424-305-47-123-49-306-4-434 67-190 213-318 465-318 165 0 270 58 357 143-29 37-52 81-86 112-71 26-104-41-170-55-24-5-52-12-86-12-192 5-260 143-260 339 0 194 67 336 254 342 98 3 148-38 200-79 26-20 67-17 87 9" id="m"/><path fill="#3a414a" d="M738-75c-64 55-158 90-269 91-176 2-277-109-277-284v-573c-65-4-153 21-153-52v-98l165-27 52-280c10-66 115-35 183-42v323h270v176H439v556c-1 59 32 101 88 102 48 1 68-25 104-34 19 1 25 9 33 22" id="n"/><g id="a"><use transform="matrix(0.016666666666666666,0,0,0.016666666666666666,0,0)" xlink:href="#h"/><use transform="matrix(0.016666666666666666,0,0,0.016666666666666666,20.833333333333332,0)" xlink:href="#i"/><use transform="matrix(0.016666666666666666,0,0,0.016666666666666666,34.45,0)" xlink:href="#j"/><use transform="matrix(0.016666666666666666,0,0,0.016666666666666666,53.400000000000006,0)" xlink:href="#k"/><use transform="matrix(0.016666666666666666,0,0,0.016666666666666666,72.4,0)" xlink:href="#l"/><use transform="matrix(0.016666666666666666,0,0,0.016666666666666666,91.35000000000001,0)" xlink:href="#m"/><use transform="matrix(0.016666666666666666,0,0,0.016666666666666666,107.25000000000001,0)" xlink:href="#n"/></g><path fill="#3a414a" d="M7-1026h196c35-1 64 19 71 46 60 241 137 465 181 722 68-246 151-481 220-724 17-60 103-44 175-46 35-1 61 20 69 46 70 242 148 477 212 725 47-256 125-482 189-723 21-78 165-35 255-46L1250 0h-199c-21 0-37-15-46-44-67-218-136-432-201-652-5-20-10-39-13-58-8 41-17 80-29 119L575-44c-9 29-27 44-54 44H332" id="o"/><path fill="#3a414a" d="M605-850c-102 1-168 52-226 108V0H132v-1026c80 9 198-29 214 45l17 81c77-76 165-142 317-142 235 0 346 154 346 389V0H779v-653c0-121-55-198-174-197" id="p"/><path fill="#3a414a" d="M991-153C899-47 760 15 568 15 237 15 63-197 63-535c0-237 116-392 287-467 61-27 129-40 206-40 287 0 444 174 444 465 0 54-3 95-57 95H309c4 226 158 349 385 292 52-13 93-39 132-62 32-19 73-16 93 9zM778-631c-4-143-73-234-217-234-154 0-226 95-247 234h464" id="q"/><path fill="#3a414a" d="M221-3C132-8 80-62 80-152c0-85 58-133 145-135 137-3 173 141 135 270-37 126-112 227-205 301-28-24-89-65-42-112 45-45 92-100 108-175" id="r"/><g id="b"><use transform="matrix(0.016666666666666666,0,0,0.016666666666666666,0,0)" xlink:href="#j"/><use transform="matrix(0.016666666666666666,0,0,0.016666666666666666,18.95,0)" xlink:href="#o"/><use transform="matrix(0.016666666666666666,0,0,0.016666666666666666,45.31666666666666,0)" xlink:href="#p"/><use transform="matrix(0.016666666666666666,0,0,0.016666666666666666,64.26666666666667,0)" xlink:href="#q"/><use transform="matrix(0.016666666666666666,0,0,0.016666666666666666,82.08333333333333,0)" xlink:href="#i"/><use transform="matrix(0.016666666666666666,0,0,0.016666666666666666,95.69999999999999,0)" xlink:href="#r"/></g><path fill="#3a414a" d="M376-1057c5 39 7 82 7 123V0H146v-1446c85 3 182-6 258 6 17 7 27 20 36 37l432 803c23 42 41 90 60 136 19-47 38-95 61-138l428-801c15-33 41-43 90-43h203V0h-237c1-330-2-664 1-991 1-21 3-42 5-63l-437 820c-22 44-63 63-132 59-48-3-77-26-95-59" id="s"/><g id="c"><use transform="matrix(0.016666666666666666,0,0,0.016666666666666666,0,0)" xlink:href="#h"/><use transform="matrix(0.016666666666666666,0,0,0.016666666666666666,20.833333333333332,0)" xlink:href="#s"/><use transform="matrix(0.016666666666666666,0,0,0.016666666666666666,51.83333333333332,0)" xlink:href="#r"/></g><path fill="#3a414a" d="M254-198c95 60 334 64 323-83-9-119-156-122-253-159C192-490 72-550 72-729c0-214 163-309 387-313 145-3 264 55 338 127-26 36-45 82-77 111-69 21-111-33-176-48-103-23-247 0-238 102 11 114 156 118 251 155 126 49 251 100 251 270C808-59 575 48 294 6 192-9 106-54 42-110c28-39 43-95 83-120 49-31 96 11 129 32" id="t"/><path fill="#3a414a" d="M395-1026V0H148v-1026h247zm-123-457c96 0 160 62 160 158 0 94-65 155-160 155-93 0-156-62-156-155 0-95 61-158 156-158" id="u"/><path fill="#3a414a" d="M247-436C153-487 80-575 80-712c0-228 174-332 407-332 92 0 169 20 230 53h295c-4 63 19 133-53 146l-92 17c30 74 25 184-9 254-72 146-265 223-484 183-51 27-68 81-20 111 145 54 395 5 528 91 60 38 108 95 104 193-8 182-136 275-286 326-172 59-444 28-556-52C83 234 32 179 32 90c0-112 77-164 166-199-49-28-87-70-84-147 4-94 65-143 133-180zm247 621c132 0 252-20 264-139-10-98-129-93-228-102-63-6-132-5-191-13-47 27-93 62-93 127 0 112 123 127 248 127zM305-706c0 111 68 168 182 168s182-56 182-168c0-107-68-165-182-165s-182 58-182 165" id="v"/><g id="d"><use transform="matrix(0.016666666666666666,0,0,0.016666666666666666,0,0)" xlink:href="#k"/><use transform="matrix(0.016666666666666666,0,0,0.016666666666666666,19,0)" xlink:href="#q"/><use transform="matrix(0.016666666666666666,0,0,0.016666666666666666,36.81666666666666,0)" xlink:href="#t"/><use transform="matrix(0.016666666666666666,0,0,0.016666666666666666,51.383333333333326,0)" xlink:href="#u"/><use transform="matrix(0.016666666666666666,0,0,0.016666666666666666,60.41666666666666,0)" xlink:href="#v"/><use transform="matrix(0.016666666666666666,0,0,0.016666666666666666,77.66666666666666,0)" xlink:href="#p"/><use transform="matrix(0.016666666666666666,0,0,0.016666666666666666,96.61666666666666,0)" xlink:href="#r"/></g><path fill="#3a414a" d="M556-1045c246 0 380 151 380 397V0c-79-6-181 23-196-53l-22-73C630-49 541 18 379 16 194 13 81-77 81-262c0-184 152-247 321-292 78-21 176-31 293-34 10-155-29-262-170-262-104 0-161 40-224 77-47 28-107 5-127-31l-45-79c118-108 260-162 427-162zM317-275c-3 86 56 121 139 121 117 0 179-51 239-111v-173c-122 6-219 17-297 53-49 22-79 51-81 110" id="w"/><g id="e"><use transform="matrix(0.016666666666666666,0,0,0.016666666666666666,0,0)" xlink:href="#w"/><use transform="matrix(0.016666666666666666,0,0,0.016666666666666666,17.45,0)" xlink:href="#p"/><use transform="matrix(0.016666666666666666,0,0,0.016666666666666666,36.4,0)" xlink:href="#k"/></g><path fill="#3a414a" d="M646 0H422L14-1026h205c36-1 62 20 71 46 75 215 159 421 226 642 9 30 15 61 21 92 13-66 27-126 50-186l203-548c9-25 34-46 68-46h195" id="x"/><path fill="#3a414a" d="M395-1486V0H148v-1486h247" id="y"/><path fill="#3a414a" d="M635 15C514 15 442-25 379-85v420H132v-1361c64 5 145-11 192 11 33 24 28 86 42 129 78-86 174-159 331-159 277 0 379 232 379 524 0 241-96 412-258 495-54 27-116 41-183 41zm186-536c0-181-37-329-209-329-117 0-175 55-233 124v460c48 60 104 93 198 93 188 0 244-152 244-348" id="z"/><path fill="#3a414a" d="M565-850c-86 0-140 48-186 99V0H132v-1026c80 9 198-29 214 45l16 76c67-72 141-136 276-137 139-1 214 86 253 192 57-117 162-192 328-192 240 0 354 147 354 389V0h-247v-653c1-123-52-197-169-197s-180 76-180 197V0H729v-653c0-127-46-197-164-197" id="A"/><g id="f"><use transform="matrix(0.016666666666666666,0,0,0.016666666666666666,0,0)" xlink:href="#k"/><use transform="matrix(0.016666666666666666,0,0,0.016666666666666666,19,0)" xlink:href="#q"/><use transform="matrix(0.016666666666666666,0,0,0.016666666666666666,36.266666666666666,0)" xlink:href="#x"/><use transform="matrix(0.016666666666666666,0,0,0.016666666666666666,53.5,0)" xlink:href="#q"/><use transform="matrix(0.016666666666666666,0,0,0.016666666666666666,71.31666666666666,0)" xlink:href="#y"/><use transform="matrix(0.016666666666666666,0,0,0.016666666666666666,80.35,0)" xlink:href="#j"/><use transform="matrix(0.016666666666666666,0,0,0.016666666666666666,99.3,0)" xlink:href="#z"/><use transform="matrix(0.016666666666666666,0,0,0.016666666666666666,118.14999999999999,0)" xlink:href="#A"/><use transform="matrix(0.016666666666666666,0,0,0.016666666666666666,146.21666666666667,0)" xlink:href="#q"/><use transform="matrix(0.016666666666666666,0,0,0.016666666666666666,164.03333333333333,0)" xlink:href="#p"/><use transform="matrix(0.016666666666666666,0,0,0.016666666666666666,182.98333333333332,0)" xlink:href="#n"/></g><g id="g"><use transform="matrix(0.016666666666666666,0,0,0.016666666666666666,0,0)" xlink:href="#n"/><use transform="matrix(0.016666666666666666,0,0,0.016666666666666666,12.9,0)" xlink:href="#q"/><use transform="matrix(0.016666666666666666,0,0,0.016666666666666666,30.71666666666667,0)" xlink:href="#w"/><use transform="matrix(0.016666666666666666,0,0,0.016666666666666666,48.16666666666667,0)" xlink:href="#A"/><use transform="matrix(0.016666666666666666,0,0,0.016666666666666666,76.23333333333333,0)" xlink:href="#t"/></g></defs></g></svg>
