<svg xmlns="http://www.w3.org/2000/svg" xmlns:xlink="http://www.w3.org/1999/xlink" xmlns:lucid="lucid" width="4041.5" height="920"><g transform="translate(-4298.499999978874 -560)" lucid:page-tab-id="0_0"><path d="M0 0h8868.24v3528H0z" fill="#fff"/><path d="M4720 748a8 8 0 0 1 8-8h3604a8 8 0 0 1 8 8v724a8 8 0 0 1-8 8H4728a8 8 0 0 1-8-8z" stroke="#000" stroke-opacity="0" fill="#dfe3e8"/><path d="M4300 579.02a8 8 0 0 1 8-8h984a8 8 0 0 1 8 8V858a8 8 0 0 1-8 8h-984a8 8 0 0 1-8-8z" stroke="#979ea8" stroke-width="3" fill="#fff"/><path d="M4800 993h400v109.33h-400z" stroke="#00c2a8" stroke-width="3" fill="#00c2a8" fill-opacity=".61"/><use xlink:href="#a" transform="matrix(1,0,0,1,4812,1005.0000000000001) translate(38.1155555555556 37.78083333333332)"/><use xlink:href="#b" transform="matrix(1,0,0,1,4812,1005.0000000000001) translate(99.66222222222225 37.78083333333332)"/><use xlink:href="#c" transform="matrix(1,0,0,1,4812,1005.0000000000001) translate(223.2533333333333 37.78083333333332)"/><use xlink:href="#d" transform="matrix(1,0,0,1,4812,1005.0000000000001) translate(81.49333333333337 80.44749999999996)"/><path d="M5316 971.67h400v152h-400z" stroke="#00c2a8" stroke-width="3" fill="#00c2a8" fill-opacity=".61"/><use xlink:href="#e" transform="matrix(1,0,0,1,5328,983.6666666666667) translate(6.826666666666739 39.09333333333332)"/><use xlink:href="#f" transform="matrix(1,0,0,1,5328,983.6666666666667) translate(219.69777777777776 39.09333333333332)"/><use xlink:href="#g" transform="matrix(1,0,0,1,5328,983.6666666666667) translate(335.0755555555555 39.09333333333332)"/><use xlink:href="#h" transform="matrix(1,0,0,1,5328,983.6666666666667) translate(64.78222222222226 81.75999999999996)"/><use xlink:href="#i" transform="matrix(1,0,0,1,5328,983.6666666666667) translate(107.8577777777778 124.42666666666662)"/><path d="M5832 987.67h400v120h-400z" stroke="#00c2a8" stroke-width="3" fill="#00c2a8" fill-opacity=".61"/><use xlink:href="#j" transform="matrix(1,0,0,1,5844,999.6666666666667) translate(63.87555555555559 41.09333333333332)"/><use xlink:href="#k" transform="matrix(1,0,0,1,5844,999.6666666666667) translate(80.4266666666667 83.75999999999996)"/><path d="M6348 987.67h400v120h-400z" stroke="#00c2a8" stroke-width="3" fill="#00c2a8" fill-opacity=".61"/><use xlink:href="#l" transform="matrix(1,0,0,1,6360,999.6666666666667) translate(130.88000000000002 62.09333333333332)"/><path d="M6100 1260h400v120h-400z" stroke="#00c2a8" stroke-width="3" fill="#00c2a8" fill-opacity=".61"/><use xlink:href="#m" transform="matrix(1,0,0,1,6112,1272) translate(95.20000000000005 62.09333333333332)"/><use xlink:href="#n" transform="matrix(1,0,0,1,6112,1272) translate(213.67111111111112 62.09333333333332)"/><use xlink:href="#o" transform="matrix(1,0,0,1,6112,1272) translate(245.52888888888887 62.09333333333332)"/><path d="M6660 1260h400v120h-400z" stroke="#00c2a8" stroke-width="3" fill="#00c2a8" fill-opacity=".61"/><use xlink:href="#p" transform="matrix(1,0,0,1,6672,1272) translate(81.15555555555561 41.09333333333332)"/><use xlink:href="#q" transform="matrix(1,0,0,1,6672,1272) translate(237.1733333333333 41.09333333333332)"/><use xlink:href="#r" transform="matrix(1,0,0,1,6672,1272) translate(29.04888888888894 83.75999999999996)"/><use xlink:href="#s" transform="matrix(1,0,0,1,6672,1272) translate(222.32888888888888 83.75999999999996)"/><path d="M6032 1110.67v192.5a12 12 0 0 0 12 12h33.88" stroke="#333" stroke-width="3" fill="none"/><path d="M6033.5 1110.7h-3v-1.53h3z" stroke="#333" stroke-width=".05" fill="#333"/><path d="M6093.65 1315.17l-14.27 4.63v-9.27z" stroke="#333" stroke-width="3" fill="#333"/><path d="M6864 987.67h400v120h-400z" stroke="#00c2a8" stroke-width="3" fill="#00c2a8" fill-opacity=".61"/><use xlink:href="#t" transform="matrix(1,0,0,1,6876,999.6666666666667) translate(22.40000000000009 62.09333333333332)"/><use xlink:href="#u" transform="matrix(1,0,0,1,6876,999.6666666666667) translate(173.58222222222224 62.09333333333332)"/><use xlink:href="#v" transform="matrix(1,0,0,1,6876,999.6666666666667) translate(242.34666666666664 62.09333333333332)"/><path d="M7380 987.67h400v120h-400z" stroke="#00c2a8" stroke-width="3" fill="#00c2a8" fill-opacity=".61"/><use xlink:href="#w" transform="matrix(1,0,0,1,7392,999.6666666666667) translate(127.32444444444447 62.09333333333332)"/><path d="M6235 1047.67h90.88" stroke="#333" stroke-width="3" fill="none"/><path d="M6235.04 1049.17h-1.54v-3h1.54z" stroke="#333" stroke-width=".05" fill="#333"/><path d="M6341.65 1047.67l-14.27 4.63v-9.27z" stroke="#333" stroke-width="3" fill="#333"/><path d="M6751 1047.67h90.88" stroke="#333" stroke-width="3" fill="none"/><path d="M6751.04 1049.17h-1.54v-3h1.54z" stroke="#333" stroke-width=".05" fill="#333"/><path d="M6857.65 1047.67l-14.27 4.63v-9.27z" stroke="#333" stroke-width="3" fill="#333"/><path d="M6522.12 1320h115.76" stroke="#333" stroke-width="3" fill="none"/><path d="M6506.35 1320l14.27-4.63v9.27zM6653.65 1320l-14.27 4.63v-9.27z" stroke="#333" stroke-width="3" fill="#333"/><path d="M6433.48 1123.8l-118.96 120.05" stroke="#333" stroke-width="3" fill="none"/><path d="M6444.58 1112.6l-6.75 13.4-6.58-6.52zM6303.42 1255.05l6.75-13.4 6.58 6.53z" stroke="#333" stroke-width="3" fill="#333"/><path d="M6634 1122.73l140 122.2" stroke="#333" stroke-width="3" fill="none"/><path d="M6622.1 1112.36l13.8 5.9-6.1 6.97zM6785.9 1255.3l-13.8-5.88 6.1-7z" stroke="#333" stroke-width="3" fill="#333"/><path d="M5222.12 1047.67h71.76" stroke="#333" stroke-width="3" fill="none"/><path d="M5206.35 1047.67l14.27-4.64v9.27zM5309.65 1047.67l-14.27 4.63v-9.27z" stroke="#333" stroke-width="3" fill="#333"/><path d="M5738.12 1047.67h71.76" stroke="#333" stroke-width="3" fill="none"/><path d="M5722.35 1047.67l14.27-4.64v9.27zM5825.65 1047.67l-14.27 4.63v-9.27z" stroke="#333" stroke-width="3" fill="#333"/><path d="M7267 1047.67h90.88" stroke="#333" stroke-width="3" fill="none"/><path d="M7267.04 1049.17h-1.54v-3h1.54z" stroke="#333" stroke-width=".05" fill="#333"/><path d="M7373.65 1047.67l-14.27 4.63v-9.27z" stroke="#333" stroke-width="3" fill="#333"/><path d="M4800 680h400v120h-400z" stroke="#00c2a8" stroke-width="3" fill="#00c2a8" fill-opacity=".61"/><use xlink:href="#x" transform="matrix(1,0,0,1,4812,692) translate(48.33777777777783 41.09333333333332)"/><use xlink:href="#y" transform="matrix(1,0,0,1,4812,692) translate(116.14222222222224 41.09333333333332)"/><use xlink:href="#q" transform="matrix(1,0,0,1,4812,692) translate(269.9911111111111 41.09333333333332)"/><use xlink:href="#z" transform="matrix(1,0,0,1,4812,692) translate(67.28888888888893 83.75999999999996)"/><use xlink:href="#A" transform="matrix(1,0,0,1,4812,692) translate(188.78222222222223 83.75999999999996)"/><path d="M5000 803v167.88" stroke="#333" stroke-width="3" fill="none"/><path d="M5001.5 803.04h-3v-1.54h3z" stroke="#333" stroke-width=".05" fill="#333"/><path d="M5000 986.65l-4.64-14.27h9.28z" stroke="#333" stroke-width="3" fill="#333"/><path d="M4400 680h300v105h-300z" stroke="#9391ff" stroke-width="3" fill="#9391ff" fill-opacity=".7"/><g><use xlink:href="#B" transform="matrix(1,0,0,1,4400,680) translate(12.863777777777841 45.15641666666665)"/><use xlink:href="#C" transform="matrix(1,0,0,1,4400,680) translate(175.18755555555555 45.15641666666665)"/><use xlink:href="#D" transform="matrix(1,0,0,1,4400,680) translate(86.40500000000003 88.08974999999997)"/></g><path d="M4550 788v247.67a12 12 0 0 0 12 12h215.88" stroke="#333" stroke-width="3" fill="none"/><path d="M4551.5 788.04h-3v-1.54h3z" stroke="#333" stroke-width=".05" fill="#333"/><path d="M4793.65 1047.67l-14.27 4.63v-9.27z" stroke="#333" stroke-width="3" fill="#333"/><path d="M4703 732.5h74.88" stroke="#333" stroke-width="3" fill="none"/><path d="M4703.04 734h-1.54v-3h1.54z" stroke="#333" stroke-width=".05" fill="#333"/><path d="M4793.65 732.5l-14.27 4.63v-9.26z" stroke="#333" stroke-width="3" fill="#333"/><path d="M7760 768a8 8 0 0 1 8-8h544a8 8 0 0 1 8 8v90a8 8 0 0 1-8 8h-544a8 8 0 0 1-8-8z" stroke="#000" stroke-opacity="0" fill="#fff" fill-opacity="0"/><g><use xlink:href="#E" transform="matrix(1,0,0,1,7765,765) translate(29.19999999999999 41.9)"/><use xlink:href="#F" transform="matrix(1,0,0,1,7765,765) translate(167.11666666666667 41.9)"/><use xlink:href="#G" transform="matrix(1,0,0,1,7765,765) translate(368.3833333333333 41.9)"/><use xlink:href="#H" transform="matrix(1,0,0,1,7765,765) translate(13.266666666666652 81.9)"/><use xlink:href="#I" transform="matrix(1,0,0,1,7765,765) translate(85.1 81.9)"/><use xlink:href="#J" transform="matrix(1,0,0,1,7765,765) translate(173.76666666666665 81.9)"/><use xlink:href="#K" transform="matrix(1,0,0,1,7765,765) translate(424.54999999999995 81.9)"/></g><path d="M4300 568a8 8 0 0 1 8-8h644a8 8 0 0 1 8 8v90a8 8 0 0 1-8 8h-644a8 8 0 0 1-8-8z" stroke="#000" stroke-opacity="0" fill="#fff" fill-opacity="0"/><g><use xlink:href="#L" transform="matrix(1,0,0,1,4305,565) translate(28.891666666666765 59.9)"/><use xlink:href="#M" transform="matrix(1,0,0,1,4305,565) translate(120.15833333333342 59.9)"/><use xlink:href="#N" transform="matrix(1,0,0,1,4305,565) translate(181.99166666666673 59.9)"/><use xlink:href="#O" transform="matrix(1,0,0,1,4305,565) translate(296.0583333333334 59.9)"/></g><path d="M7860 987.67h400v120h-400z" stroke="#00c2a8" stroke-width="3" fill="#00c2a8" fill-opacity=".61"/><g><use xlink:href="#P" transform="matrix(1,0,0,1,7872,999.6666666666667) translate(85.84888888888894 62.09333333333332)"/></g><path d="M7783 1047.67h54.88" stroke="#333" stroke-width="3" fill="none"/><path d="M7783.04 1049.17h-1.54v-3h1.54z" stroke="#333" stroke-width=".05" fill="#333"/><path d="M7853.65 1047.67l-14.27 4.63v-9.27z" stroke="#333" stroke-width="3" fill="#333"/><defs><path fill="#333" d="M1057-1433v158H369v501h588v158H369V0H174v-1433h883" id="Q"/><path fill="#333" d="M344-1013V0H166v-1013h178zm-88-446c77 0 128 52 128 128 0 75-52 126-128 126-75 0-126-51-126-126 0-76 50-128 126-128" id="R"/><path fill="#333" d="M383-519L42-1013h171c30 0 38 9 50 27l248 380c6-19 14-38 26-56l218-320c12-15 21-30 45-31h164L623-529 978 0H807c-30 1-44-19-55-37L497-434c-5 19-11 37-21 52L240-37c-13 16-24 37-53 37H28" id="S"/><path fill="#333" d="M223 0C139 2 94-45 94-123c0-70 47-112 118-113 165-3 132 231 74 332-37 65-83 128-140 175-20-19-63-49-29-84 46-47 91-108 106-187" id="T"/><g id="a"><use transform="matrix(0.01777777777777777,0,0,0.01777777777777777,0,0)" xlink:href="#Q"/><use transform="matrix(0.01777777777777777,0,0,0.01777777777777777,20.124444444444435,0)" xlink:href="#R"/><use transform="matrix(0.01777777777777777,0,0,0.01777777777777777,29.226666666666652,0)" xlink:href="#S"/><use transform="matrix(0.01777777777777777,0,0,0.01777777777777777,47.14666666666665,0)" xlink:href="#T"/></g><path fill="#333" d="M461 16c-231 0-339-149-339-383v-646h178v646c0 148 67 243 213 241 125-2 207-66 274-140v-747h178V0c-60-6-146 22-154-37l-14-109C716-60 619 16 461 16" id="U"/><path fill="#333" d="M602 14c-133 0-212-47-278-119v448H146v-1356c60 6 147-22 154 37l15 120c80-93 179-175 341-175 282 0 383 224 383 518 0 237-92 406-253 487-54 27-116 40-184 40zm253-527c-3-212-53-374-258-374-136 0-207 69-273 153v490c57 77 121 120 238 120 207 0 295-164 293-389" id="V"/><path fill="#333" d="M510-1031c133 0 210 49 277 120v-562h178V0c-60-6-146 21-154-37l-16-123C716-67 616 14 455 14 173 14 72-209 72-503c0-237 94-406 254-487 54-27 115-41 184-41zM256-503c2 212 53 373 258 373 136 0 207-69 273-153v-490c-57-77-121-119-237-119-208 0-296 164-294 389" id="W"/><path fill="#333" d="M537-1031c235 0 353 147 353 383V0c-58-5-129 17-142-42l-20-94C637-55 545 19 375 16 200 13 92-76 92-253c0-184 160-243 332-285 79-19 176-28 291-31 12-184-31-318-200-318-113 0-181 45-243 91-36 26-82 14-99-17l-32-57c101-96 215-161 396-161zM263-261c0 103 62 152 165 152 140 0 216-64 287-136v-211c-141 4-258 19-349 60-60 27-103 62-103 135" id="X"/><path fill="#333" d="M698-76c-54 52-145 92-245 92-162 1-249-96-249-260v-620c-58-9-160 26-160-39v-71l166-21 41-313c4-50 80-30 131-34v349h290v129H382v608c-2 78 40 125 111 126 60 2 88-33 128-48 9 0 18 6 25 17" id="Y"/><path fill="#333" d="M954-142C850-8 572 61 364-22 180-96 74-268 74-527c0-234 108-389 275-463 59-26 125-39 198-39 273 0 420 174 420 453 0 48-2 70-43 70H250c8 226 98 375 322 380 114 2 191-38 258-82 70-46 94 37 124 66zM807-617c-5-171-86-278-256-281-181-3-273 116-295 281h551" id="Z"/><g id="b"><use transform="matrix(0.01777777777777777,0,0,0.01777777777777777,0,0)" xlink:href="#U"/><use transform="matrix(0.01777777777777777,0,0,0.01777777777777777,19.76888888888888,0)" xlink:href="#V"/><use transform="matrix(0.01777777777777777,0,0,0.01777777777777777,39.39555555555554,0)" xlink:href="#W"/><use transform="matrix(0.01777777777777777,0,0,0.01777777777777777,59.27111111111108,0)" xlink:href="#X"/><use transform="matrix(0.01777777777777777,0,0,0.01777777777777777,77.29777777777772,0)" xlink:href="#Y"/><use transform="matrix(0.01777777777777777,0,0,0.01777777777777777,90.55999999999996,0)" xlink:href="#Z"/><use transform="matrix(0.01777777777777777,0,0,0.01777777777777777,109.19111111111107,0)" xlink:href="#T"/></g><path fill="#333" d="M594-1317c-165 0-237 72-235 231v93h293v129H365V0H186v-861c-49-9-113-4-146-29-24-17-10-67-14-103h160v-98c5-229 120-363 348-363 45 0 87 7 126 20l-4 89c-2 31-28 28-62 28" id="aa"/><path fill="#333" d="M584-856c-148 6-210 94-260 211V0H146v-1013c62 7 151-25 157 49l12 158c66-138 184-259 384-216 23 5 44 16 63 27l-23 133c-5 17-15 25-31 25-36 0-71-21-124-19" id="ab"/><g id="c"><use transform="matrix(0.01777777777777777,0,0,0.01777777777777777,0,0)" xlink:href="#aa"/><use transform="matrix(0.01777777777777777,0,0,0.01777777777777777,11.982222222222218,0)" xlink:href="#Z"/><use transform="matrix(0.01777777777777777,0,0,0.01777777777777777,30.613333333333323,0)" xlink:href="#X"/><use transform="matrix(0.01777777777777777,0,0,0.01777777777777777,48.639999999999986,0)" xlink:href="#Y"/><use transform="matrix(0.01777777777777777,0,0,0.01777777777777777,61.90222222222221,0)" xlink:href="#U"/><use transform="matrix(0.01777777777777777,0,0,0.01777777777777777,81.6711111111111,0)" xlink:href="#ab"/><use transform="matrix(0.01777777777777777,0,0,0.01777777777777777,95.99999999999997,0)" xlink:href="#Z"/></g><path fill="#333" d="M161 21C140 84 75 97-12 90l601-1497c18-62 84-72 169-66" id="ac"/><path fill="#333" d="M1038-507c0 321-164 521-482 521S72-187 72-507c0-248 107-410 284-485 60-25 126-37 200-37 317 0 482 201 482 522zm-782 1c0 225 80 381 300 381 213 0 298-159 298-381 0-223-84-383-298-383-221 0-300 158-300 383" id="ad"/><path fill="#333" d="M409-112c121-3 207-52 207-167 0-134-157-142-264-181-133-48-263-98-263-275 0-197 153-290 360-294 139-3 243 49 317 118-26 35-46 114-111 76-53-31-114-63-202-61-108 3-195 44-195 147 0 129 158 136 262 175 128 48 263 93 263 264C783-89 627 12 400 16 255 19 139-39 62-107c27-41 57-128 128-81 57 38 118 78 219 76" id="ae"/><path fill="#333" d="M344-1473V0H166v-1473h178" id="af"/><g id="d"><use transform="matrix(0.01777777777777777,0,0,0.01777777777777777,0,0)" xlink:href="#R"/><use transform="matrix(0.01777777777777777,0,0,0.01777777777777777,9.102222222222219,0)" xlink:href="#W"/><use transform="matrix(0.01777777777777777,0,0,0.01777777777777777,28.977777777777767,0)" xlink:href="#Z"/><use transform="matrix(0.01777777777777777,0,0,0.01777777777777777,47.60888888888887,0)" xlink:href="#X"/><use transform="matrix(0.01777777777777777,0,0,0.01777777777777777,65.63555555555553,0)" xlink:href="#ac"/><use transform="matrix(0.01777777777777777,0,0,0.01777777777777777,77.3333333333333,0)" xlink:href="#V"/><use transform="matrix(0.01777777777777777,0,0,0.01777777777777777,96.95999999999995,0)" xlink:href="#ab"/><use transform="matrix(0.01777777777777777,0,0,0.01777777777777777,111.28888888888883,0)" xlink:href="#ad"/><use transform="matrix(0.01777777777777777,0,0,0.01777777777777777,131.05777777777772,0)" xlink:href="#V"/><use transform="matrix(0.01777777777777777,0,0,0.01777777777777777,150.68444444444438,0)" xlink:href="#ad"/><use transform="matrix(0.01777777777777777,0,0,0.01777777777777777,170.45333333333326,0)" xlink:href="#ae"/><use transform="matrix(0.01777777777777777,0,0,0.01777777777777777,185.88444444444437,0)" xlink:href="#X"/><use transform="matrix(0.01777777777777777,0,0,0.01777777777777777,203.91111111111104,0)" xlink:href="#af"/></g><path fill="#333" d="M1353 0h-150c-36 0-55-21-66-46l-134-346H360L226-46c-9 23-33 46-66 46H10l573-1433h197zM414-532h535l-225-583c-15-36-29-81-43-135-13 48-26 95-42 136" id="ag"/><path fill="#333" d="M895-142C799-8 539 62 344-21 173-94 74-262 74-507c0-317 160-522 477-522 151 0 254 54 333 132-21 26-39 58-63 81-42 20-68-19-100-34-42-20-91-42-160-40-219 6-304 160-304 383 0 220 82 376 295 383 106 4 169-38 223-84 22-19 53-21 70 1" id="ah"/><path fill="#333" d="M598-887c-125 2-207 68-274 141V0H146v-1473h178v596c81-82 173-152 326-152 232 0 339 151 339 384V0H811v-645c0-149-65-244-213-242" id="ai"/><g id="e"><use transform="matrix(0.01777777777777777,0,0,0.01777777777777777,0,0)" xlink:href="#ag"/><use transform="matrix(0.01777777777777777,0,0,0.01777777777777777,24.17777777777777,0)" xlink:href="#ab"/><use transform="matrix(0.01777777777777777,0,0,0.01777777777777777,38.50666666666665,0)" xlink:href="#ah"/><use transform="matrix(0.01777777777777777,0,0,0.01777777777777777,55.11111111111109,0)" xlink:href="#ai"/><use transform="matrix(0.01777777777777777,0,0,0.01777777777777777,74.87999999999997,0)" xlink:href="#R"/><use transform="matrix(0.01777777777777777,0,0,0.01777777777777777,83.98222222222219,0)" xlink:href="#Y"/><use transform="matrix(0.01777777777777777,0,0,0.01777777777777777,97.24444444444441,0)" xlink:href="#Z"/><use transform="matrix(0.01777777777777777,0,0,0.01777777777777777,115.87555555555551,0)" xlink:href="#ah"/><use transform="matrix(0.01777777777777777,0,0,0.01777777777777777,132.47999999999996,0)" xlink:href="#Y"/><use transform="matrix(0.01777777777777777,0,0,0.01777777777777777,145.7422222222222,0)" xlink:href="#U"/><use transform="matrix(0.01777777777777777,0,0,0.01777777777777777,165.5111111111111,0)" xlink:href="#ab"/><use transform="matrix(0.01777777777777777,0,0,0.01777777777777777,179.83999999999997,0)" xlink:href="#Z"/><use transform="matrix(0.01777777777777777,0,0,0.01777777777777777,198.47111111111104,0)" xlink:href="#T"/></g><path fill="#333" d="M103-704c0-220 160-326 384-326 92 0 169 21 228 57h275c-2 53 13 100-42 108l-115 16c43 79 45 196 5 279-58 120-176 191-351 193-47 0-92-6-134-17-50 22-100 108-36 142 165 88 511-13 621 164 40 65 36 170-4 240-77 134-229 213-441 213-193 0-343-50-415-167-19-32-28-66-28-101 3-117 84-175 178-211-54-27-98-64-94-143 4-90 64-137 129-173-91-51-160-139-160-274zM334-85C254-53 162 38 224 138c97 157 586 133 579-83C799-63 659-58 543-68c-70-6-146-6-209-17zm-67-614c0 134 84 204 220 204 137 0 221-69 221-204 0-129-85-203-221-203-135 0-220 74-220 203" id="aj"/><path fill="#333" d="M598-887c-125 2-207 68-274 141V0H146v-1013c60 6 147-22 154 37l14 110c82-87 177-163 336-163 232 0 339 151 339 384V0H811v-645c0-149-65-244-213-242" id="ak"/><g id="f"><use transform="matrix(0.01777777777777777,0,0,0.01777777777777777,0,0)" xlink:href="#W"/><use transform="matrix(0.01777777777777777,0,0,0.01777777777777777,19.875555555555547,0)" xlink:href="#Z"/><use transform="matrix(0.01777777777777777,0,0,0.01777777777777777,38.506666666666646,0)" xlink:href="#ae"/><use transform="matrix(0.01777777777777777,0,0,0.01777777777777777,53.937777777777754,0)" xlink:href="#R"/><use transform="matrix(0.01777777777777777,0,0,0.01777777777777777,63.03999999999997,0)" xlink:href="#aj"/><use transform="matrix(0.01777777777777777,0,0,0.01777777777777777,81.20888888888885,0)" xlink:href="#ak"/><use transform="matrix(0.01777777777777777,0,0,0.01777777777777777,100.97777777777773,0)" xlink:href="#T"/></g><g id="g"><use transform="matrix(0.01777777777777777,0,0,0.01777777777777777,0,0)" xlink:href="#ad"/><use transform="matrix(0.01777777777777777,0,0,0.01777777777777777,19.76888888888888,0)" xlink:href="#ab"/></g><path fill="#333" d="M550-887c-107 0-172 65-226 132V0H146v-1013c60 6 147-22 154 37l13 104c69-80 148-156 287-157 148-1 223 92 258 211 51-126 153-211 323-211 232 0 338 149 338 384V0h-178v-645c1-148-62-242-203-242-142 0-218 94-218 242V0H742v-645c1-149-54-242-192-242" id="al"/><g id="h"><use transform="matrix(0.01777777777777777,0,0,0.01777777777777777,0,0)" xlink:href="#R"/><use transform="matrix(0.01777777777777777,0,0,0.01777777777777777,9.102222222222219,0)" xlink:href="#al"/><use transform="matrix(0.01777777777777777,0,0,0.01777777777777777,38.293333333333315,0)" xlink:href="#V"/><use transform="matrix(0.01777777777777777,0,0,0.01777777777777777,57.919999999999966,0)" xlink:href="#af"/><use transform="matrix(0.01777777777777777,0,0,0.01777777777777777,67.0222222222222,0)" xlink:href="#Z"/><use transform="matrix(0.01777777777777777,0,0,0.01777777777777777,85.6533333333333,0)" xlink:href="#al"/><use transform="matrix(0.01777777777777777,0,0,0.01777777777777777,114.8444444444444,0)" xlink:href="#Z"/><use transform="matrix(0.01777777777777777,0,0,0.01777777777777777,133.4755555555555,0)" xlink:href="#ak"/><use transform="matrix(0.01777777777777777,0,0,0.01777777777777777,153.24444444444438,0)" xlink:href="#Y"/><use transform="matrix(0.01777777777777777,0,0,0.01777777777777777,166.5066666666666,0)" xlink:href="#X"/><use transform="matrix(0.01777777777777777,0,0,0.01777777777777777,184.53333333333327,0)" xlink:href="#Y"/><use transform="matrix(0.01777777777777777,0,0,0.01777777777777777,197.79555555555552,0)" xlink:href="#R"/><use transform="matrix(0.01777777777777777,0,0,0.01777777777777777,206.89777777777772,0)" xlink:href="#ad"/><use transform="matrix(0.01777777777777777,0,0,0.01777777777777777,226.6666666666666,0)" xlink:href="#ak"/></g><g id="i"><use transform="matrix(0.01777777777777777,0,0,0.01777777777777777,0,0)" xlink:href="#W"/><use transform="matrix(0.01777777777777777,0,0,0.01777777777777777,19.875555555555547,0)" xlink:href="#R"/><use transform="matrix(0.01777777777777777,0,0,0.01777777777777777,28.977777777777767,0)" xlink:href="#ae"/><use transform="matrix(0.01777777777777777,0,0,0.01777777777777777,44.408888888888875,0)" xlink:href="#ah"/><use transform="matrix(0.01777777777777777,0,0,0.01777777777777777,61.013333333333314,0)" xlink:href="#U"/><use transform="matrix(0.01777777777777777,0,0,0.01777777777777777,80.7822222222222,0)" xlink:href="#ae"/><use transform="matrix(0.01777777777777777,0,0,0.01777777777777777,96.21333333333331,0)" xlink:href="#ae"/><use transform="matrix(0.01777777777777777,0,0,0.01777777777777777,111.64444444444442,0)" xlink:href="#R"/><use transform="matrix(0.01777777777777777,0,0,0.01777777777777777,120.74666666666664,0)" xlink:href="#ad"/><use transform="matrix(0.01777777777777777,0,0,0.01777777777777777,140.51555555555552,0)" xlink:href="#ak"/></g><path fill="#333" d="M404 0H210v-1433h194V0" id="am"/><g id="j"><use transform="matrix(0.01777777777777777,0,0,0.01777777777777777,0,0)" xlink:href="#am"/><use transform="matrix(0.01777777777777777,0,0,0.01777777777777777,10.915555555555551,0)" xlink:href="#al"/><use transform="matrix(0.01777777777777777,0,0,0.01777777777777777,40.10666666666665,0)" xlink:href="#V"/><use transform="matrix(0.01777777777777777,0,0,0.01777777777777777,59.7333333333333,0)" xlink:href="#af"/><use transform="matrix(0.01777777777777777,0,0,0.01777777777777777,68.83555555555553,0)" xlink:href="#Z"/><use transform="matrix(0.01777777777777777,0,0,0.01777777777777777,87.46666666666663,0)" xlink:href="#al"/><use transform="matrix(0.01777777777777777,0,0,0.01777777777777777,116.65777777777774,0)" xlink:href="#Z"/><use transform="matrix(0.01777777777777777,0,0,0.01777777777777777,135.28888888888883,0)" xlink:href="#ak"/><use transform="matrix(0.01777777777777777,0,0,0.01777777777777777,155.05777777777772,0)" xlink:href="#Y"/><use transform="matrix(0.01777777777777777,0,0,0.01777777777777777,168.31999999999994,0)" xlink:href="#X"/><use transform="matrix(0.01777777777777777,0,0,0.01777777777777777,186.3466666666666,0)" xlink:href="#Y"/><use transform="matrix(0.01777777777777777,0,0,0.01777777777777777,199.60888888888886,0)" xlink:href="#R"/><use transform="matrix(0.01777777777777777,0,0,0.01777777777777777,208.71111111111105,0)" xlink:href="#ad"/><use transform="matrix(0.01777777777777777,0,0,0.01777777777777777,228.47999999999993,0)" xlink:href="#ak"/></g><path fill="#333" d="M409 293C214 8 88-383 149-866c35-276 133-488 260-685 32 22 70 38 97 65 12 17 8 37-3 57-126 218-214 479-214 800s87 582 214 800c15 26 10 65-15 74" id="an"/><path fill="#333" d="M608 14c-142 0-221-61-286-144-9 50 6 130-55 130H152v-1473h179v606c78-87 176-162 331-162 283 0 384 222 384 516 0 237-93 406-254 487-54 27-116 40-184 40zm254-527c-2-212-53-374-258-374-136 0-207 69-273 153v490c56 77 120 120 237 120 208 0 296-164 294-389" id="ao"/><path fill="#333" d="M178-1551c194 286 322 675 260 1159-35 275-132 490-260 685-32-22-72-36-97-64-13-15-6-42 3-58C209-48 298-307 298-629c0-321-92-580-214-800-41-75 58-89 94-122" id="ap"/><g id="k"><use transform="matrix(0.01777777777777777,0,0,0.01777777777777777,0,0)" xlink:href="#an"/><use transform="matrix(0.01777777777777777,0,0,0.01777777777777777,10.097777777777774,0)" xlink:href="#ah"/><use transform="matrix(0.01777777777777777,0,0,0.01777777777777777,26.70222222222221,0)" xlink:href="#ad"/><use transform="matrix(0.01777777777777777,0,0,0.01777777777777777,46.47111111111109,0)" xlink:href="#ak"/><use transform="matrix(0.01777777777777777,0,0,0.01777777777777777,66.23999999999998,0)" xlink:href="#Y"/><use transform="matrix(0.01777777777777777,0,0,0.01777777777777777,79.5022222222222,0)" xlink:href="#ab"/><use transform="matrix(0.01777777777777777,0,0,0.01777777777777777,93.83111111111108,0)" xlink:href="#R"/><use transform="matrix(0.01777777777777777,0,0,0.01777777777777777,102.93333333333331,0)" xlink:href="#ao"/><use transform="matrix(0.01777777777777777,0,0,0.01777777777777777,122.80888888888886,0)" xlink:href="#U"/><use transform="matrix(0.01777777777777777,0,0,0.01777777777777777,142.57777777777773,0)" xlink:href="#Y"/><use transform="matrix(0.01777777777777777,0,0,0.01777777777777777,155.83999999999995,0)" xlink:href="#R"/><use transform="matrix(0.01777777777777777,0,0,0.01777777777777777,164.94222222222217,0)" xlink:href="#ad"/><use transform="matrix(0.01777777777777777,0,0,0.01777777777777777,184.71111111111105,0)" xlink:href="#ak"/><use transform="matrix(0.01777777777777777,0,0,0.01777777777777777,204.47999999999993,0)" xlink:href="#ap"/></g><path fill="#333" d="M1124-1036c0 240-152 355-353 406 24 14 45 35 64 61L1253 0c-92-9-205 21-250-41L631-553c-24-32-41-45-97-45H387V0H194v-1433h405c307 3 525 101 525 397zm-189 14c0-188-133-258-336-258H387v541h203c205-3 345-85 345-283" id="aq"/><path fill="#333" d="M18-1013h146c28-1 47 18 55 37l257 652c18 45 27 93 37 143 12-50 22-98 40-143l260-652c17-60 123-30 192-37L592 0H431" id="ar"/><path fill="#333" d="M14-1013c70 8 177-25 195 37l194 652c10 46 20 89 27 137 77-272 174-527 253-793 13-44 73-34 126-35 27-1 44 16 51 35 81 265 173 518 245 792 7-44 18-96 30-136l198-652c15-59 118-30 186-37L1191 0h-141c-17 0-29-11-36-34-79-245-162-486-237-734-5-15-7-31-10-46-7 32-12 65-23 94L517-34C501 26 405-10 342 0" id="as"/><g id="l"><use transform="matrix(0.01777777777777777,0,0,0.01777777777777777,0,0)" xlink:href="#aq"/><use transform="matrix(0.01777777777777777,0,0,0.01777777777777777,22.89777777777777,0)" xlink:href="#Z"/><use transform="matrix(0.01777777777777777,0,0,0.01777777777777777,41.06666666666665,0)" xlink:href="#ar"/><use transform="matrix(0.01777777777777777,0,0,0.01777777777777777,59.27111111111108,0)" xlink:href="#R"/><use transform="matrix(0.01777777777777777,0,0,0.01777777777777777,68.3733333333333,0)" xlink:href="#Z"/><use transform="matrix(0.01777777777777777,0,0,0.01777777777777777,87.00444444444442,0)" xlink:href="#as"/></g><path fill="#333" d="M1150-1433v163H687V0H493v-1270H28v-163h1122" id="at"/><g id="m"><use transform="matrix(0.01777777777777777,0,0,0.01777777777777777,0,0)" xlink:href="#at"/><use transform="matrix(0.01777777777777777,0,0,0.01777777777777777,17.24444444444444,0)" xlink:href="#Z"/><use transform="matrix(0.01777777777777777,0,0,0.01777777777777777,35.87555555555554,0)" xlink:href="#ae"/><use transform="matrix(0.01777777777777777,0,0,0.01777777777777777,51.30666666666666,0)" xlink:href="#Y"/><use transform="matrix(0.01777777777777777,0,0,0.01777777777777777,64.56888888888886,0)" xlink:href="#R"/><use transform="matrix(0.01777777777777777,0,0,0.01777777777777777,73.67111111111109,0)" xlink:href="#ak"/><use transform="matrix(0.01777777777777777,0,0,0.01777777777777777,93.43999999999997,0)" xlink:href="#aj"/></g><path fill="#333" d="M275-1098c0-226 154-351 385-351 165 0 275 80 332 191 19 37 28 75 31 115-40 7-78 23-120 23-49 0-42-53-63-86-37-56-89-104-180-104-156 0-248 117-210 278 20 87 77 144 135 204l412 419c47-81 83-179 91-288 5-63 93-34 150-41-5 175-60 320-138 434L1400 0c-93-8-205 18-259-36L997-181C863-45 607 74 354-11 202-62 82-182 82-382c0-226 150-337 312-415-68-88-119-168-119-301zm201 392c-118 64-213 154-213 310 0 169 112 262 278 267 161 5 273-67 358-150" id="au"/><use transform="matrix(0.01777777777777777,0,0,0.01777777777777777,0,0)" xlink:href="#au" id="n"/><path fill="#333" d="M1289-200C1173-69 1017 19 773 16c-339-4-539-180-634-435-65-176-67-421 3-594 104-257 318-431 668-436 220-3 359 75 476 182-27 35-48 75-79 105-60 21-86-37-135-56-109-71-336-85-474-24-190 83-310 257-310 526 0 268 114 444 301 527 146 65 383 42 487-33 24-17 50-36 75-59 20-19 44-22 62-2" id="av"/><g id="o"><use transform="matrix(0.01777777777777777,0,0,0.01777777777777777,0,0)" xlink:href="#av"/><use transform="matrix(0.01777777777777777,0,0,0.01777777777777777,24.355555555555547,0)" xlink:href="#am"/></g><path fill="#333" d="M331-1473v867c49 0 82 0 108-28l320-343c20-19 33-36 70-36h162C858-871 723-729 590-586c-9 9-19 16-30 23 25 17 41 39 60 63L1016 0c-81-8-184 18-227-35L456-450c-21-27-31-33-75-34h-50V0H152v-1473h179" id="aw"/><g id="p"><use transform="matrix(0.01777777777777777,0,0,0.01777777777777777,0,0)" xlink:href="#Q"/><use transform="matrix(0.01777777777777777,0,0,0.01777777777777777,18.879999999999992,0)" xlink:href="#Z"/><use transform="matrix(0.01777777777777777,0,0,0.01777777777777777,37.51111111111109,0)" xlink:href="#Z"/><use transform="matrix(0.01777777777777777,0,0,0.01777777777777777,56.142222222222195,0)" xlink:href="#W"/><use transform="matrix(0.01777777777777777,0,0,0.01777777777777777,76.01777777777774,0)" xlink:href="#ao"/><use transform="matrix(0.01777777777777777,0,0,0.01777777777777777,95.8933333333333,0)" xlink:href="#X"/><use transform="matrix(0.01777777777777777,0,0,0.01777777777777777,113.91999999999994,0)" xlink:href="#ah"/><use transform="matrix(0.01777777777777777,0,0,0.01777777777777777,130.52444444444438,0)" xlink:href="#aw"/></g><g id="q"><use transform="matrix(0.01777777777777777,0,0,0.01777777777777777,0,0)" xlink:href="#X"/><use transform="matrix(0.01777777777777777,0,0,0.01777777777777777,18.02666666666666,0)" xlink:href="#ak"/><use transform="matrix(0.01777777777777777,0,0,0.01777777777777777,37.79555555555554,0)" xlink:href="#W"/></g><g id="r"><use transform="matrix(0.01777777777777777,0,0,0.01777777777777777,0,0)" xlink:href="#R"/><use transform="matrix(0.01777777777777777,0,0,0.01777777777777777,9.102222222222219,0)" xlink:href="#ak"/><use transform="matrix(0.01777777777777777,0,0,0.01777777777777777,28.871111111111098,0)" xlink:href="#ah"/><use transform="matrix(0.01777777777777777,0,0,0.01777777777777777,45.47555555555554,0)" xlink:href="#ab"/><use transform="matrix(0.01777777777777777,0,0,0.01777777777777777,59.80444444444442,0)" xlink:href="#Z"/><use transform="matrix(0.01777777777777777,0,0,0.01777777777777777,78.43555555555552,0)" xlink:href="#al"/><use transform="matrix(0.01777777777777777,0,0,0.01777777777777777,107.62666666666662,0)" xlink:href="#Z"/><use transform="matrix(0.01777777777777777,0,0,0.01777777777777777,126.25777777777773,0)" xlink:href="#ak"/><use transform="matrix(0.01777777777777777,0,0,0.01777777777777777,146.0266666666666,0)" xlink:href="#Y"/><use transform="matrix(0.01777777777777777,0,0,0.01777777777777777,159.28888888888883,0)" xlink:href="#X"/><use transform="matrix(0.01777777777777777,0,0,0.01777777777777777,177.3155555555555,0)" xlink:href="#af"/></g><g id="s"><use transform="matrix(0.01777777777777777,0,0,0.01777777777777777,0,0)" xlink:href="#U"/><use transform="matrix(0.01777777777777777,0,0,0.01777777777777777,19.76888888888888,0)" xlink:href="#V"/><use transform="matrix(0.01777777777777777,0,0,0.01777777777777777,39.39555555555554,0)" xlink:href="#W"/><use transform="matrix(0.01777777777777777,0,0,0.01777777777777777,59.27111111111108,0)" xlink:href="#X"/><use transform="matrix(0.01777777777777777,0,0,0.01777777777777777,77.29777777777772,0)" xlink:href="#Y"/><use transform="matrix(0.01777777777777777,0,0,0.01777777777777777,90.55999999999996,0)" xlink:href="#Z"/><use transform="matrix(0.01777777777777777,0,0,0.01777777777777777,109.19111111111107,0)" xlink:href="#ae"/></g><g id="t"><use transform="matrix(0.01777777777777777,0,0,0.01777777777777777,0,0)" xlink:href="#am"/><use transform="matrix(0.01777777777777777,0,0,0.01777777777777777,10.915555555555551,0)" xlink:href="#ak"/><use transform="matrix(0.01777777777777777,0,0,0.01777777777777777,30.684444444444434,0)" xlink:href="#Y"/><use transform="matrix(0.01777777777777777,0,0,0.01777777777777777,43.946666666666644,0)" xlink:href="#Z"/><use transform="matrix(0.01777777777777777,0,0,0.01777777777777777,62.57777777777775,0)" xlink:href="#aj"/><use transform="matrix(0.01777777777777777,0,0,0.01777777777777777,80.74666666666664,0)" xlink:href="#ab"/><use transform="matrix(0.01777777777777777,0,0,0.01777777777777777,94.39999999999995,0)" xlink:href="#X"/><use transform="matrix(0.01777777777777777,0,0,0.01777777777777777,112.4266666666666,0)" xlink:href="#Y"/><use transform="matrix(0.01777777777777777,0,0,0.01777777777777777,125.68888888888883,0)" xlink:href="#Z"/></g><g id="u"><use transform="matrix(0.01777777777777777,0,0,0.01777777777777777,0,0)" xlink:href="#R"/><use transform="matrix(0.01777777777777777,0,0,0.01777777777777777,9.102222222222219,0)" xlink:href="#ak"/><use transform="matrix(0.01777777777777777,0,0,0.01777777777777777,28.871111111111098,0)" xlink:href="#Y"/><use transform="matrix(0.01777777777777777,0,0,0.01777777777777777,42.13333333333331,0)" xlink:href="#ad"/></g><path fill="#333" d="M-17 228c126 0 183-30 183-153v-1088h178V75c-3 186-98 287-286 289-47 0-79-7-114-20l8-96c3-18 11-20 31-20zm273-1687c77 0 128 52 128 128 0 75-52 126-128 126-75 0-126-51-126-126 0-76 50-128 126-128" id="ax"/><g id="v"><use transform="matrix(0.01777777777777777,0,0,0.01777777777777777,0,0)" xlink:href="#V"/><use transform="matrix(0.01777777777777777,0,0,0.01777777777777777,19.626666666666658,0)" xlink:href="#ab"/><use transform="matrix(0.01777777777777777,0,0,0.01777777777777777,33.95555555555554,0)" xlink:href="#ad"/><use transform="matrix(0.01777777777777777,0,0,0.01777777777777777,53.72444444444442,0)" xlink:href="#ax"/><use transform="matrix(0.01777777777777777,0,0,0.01777777777777777,62.75555555555553,0)" xlink:href="#Z"/><use transform="matrix(0.01777777777777777,0,0,0.01777777777777777,81.38666666666664,0)" xlink:href="#ah"/><use transform="matrix(0.01777777777777777,0,0,0.01777777777777777,97.99111111111107,0)" xlink:href="#Y"/></g><g id="w"><use transform="matrix(0.01777777777777777,0,0,0.01777777777777777,0,0)" xlink:href="#aq"/><use transform="matrix(0.01777777777777777,0,0,0.01777777777777777,22.89777777777777,0)" xlink:href="#Z"/><use transform="matrix(0.01777777777777777,0,0,0.01777777777777777,41.52888888888887,0)" xlink:href="#af"/><use transform="matrix(0.01777777777777777,0,0,0.01777777777777777,50.63111111111109,0)" xlink:href="#Z"/><use transform="matrix(0.01777777777777777,0,0,0.01777777777777777,69.26222222222219,0)" xlink:href="#X"/><use transform="matrix(0.01777777777777777,0,0,0.01777777777777777,87.28888888888885,0)" xlink:href="#ae"/><use transform="matrix(0.01777777777777777,0,0,0.01777777777777777,102.71999999999996,0)" xlink:href="#Z"/></g><path fill="#333" d="M867-737c186 37 317 126 317 329C1184-123 974 0 681 0H174v-1433h457c293 3 505 90 505 374 0 185-121 273-269 322zm126 324c0-168-128-240-316-240H368v499h310c190-2 315-75 315-259zm-50-623c0-184-115-243-312-244H368v489h256c186-3 319-66 319-245" id="ay"/><g id="x"><use transform="matrix(0.01777777777777777,0,0,0.01777777777777777,0,0)" xlink:href="#ay"/><use transform="matrix(0.01777777777777777,0,0,0.01777777777777777,23.004444444444434,0)" xlink:href="#U"/><use transform="matrix(0.01777777777777777,0,0,0.01777777777777777,42.773333333333305,0)" xlink:href="#aj"/></g><g id="y"><use transform="matrix(0.01777777777777777,0,0,0.01777777777777777,0,0)" xlink:href="#ab"/><use transform="matrix(0.01777777777777777,0,0,0.01777777777777777,14.328888888888883,0)" xlink:href="#Z"/><use transform="matrix(0.01777777777777777,0,0,0.01777777777777777,32.95999999999999,0)" xlink:href="#V"/><use transform="matrix(0.01777777777777777,0,0,0.01777777777777777,52.586666666666645,0)" xlink:href="#ad"/><use transform="matrix(0.01777777777777777,0,0,0.01777777777777777,72.35555555555553,0)" xlink:href="#ab"/><use transform="matrix(0.01777777777777777,0,0,0.01777777777777777,86.68444444444441,0)" xlink:href="#Y"/><use transform="matrix(0.01777777777777777,0,0,0.01777777777777777,99.94666666666663,0)" xlink:href="#R"/><use transform="matrix(0.01777777777777777,0,0,0.01777777777777777,109.04888888888884,0)" xlink:href="#ak"/><use transform="matrix(0.01777777777777777,0,0,0.01777777777777777,128.81777777777774,0)" xlink:href="#aj"/></g><g id="z"><use transform="matrix(0.01777777777777777,0,0,0.01777777777777777,0,0)" xlink:href="#aa"/><use transform="matrix(0.01777777777777777,0,0,0.01777777777777777,11.982222222222218,0)" xlink:href="#Z"/><use transform="matrix(0.01777777777777777,0,0,0.01777777777777777,30.613333333333323,0)" xlink:href="#X"/><use transform="matrix(0.01777777777777777,0,0,0.01777777777777777,48.639999999999986,0)" xlink:href="#Y"/><use transform="matrix(0.01777777777777777,0,0,0.01777777777777777,61.90222222222221,0)" xlink:href="#U"/><use transform="matrix(0.01777777777777777,0,0,0.01777777777777777,81.6711111111111,0)" xlink:href="#ab"/><use transform="matrix(0.01777777777777777,0,0,0.01777777777777777,95.99999999999997,0)" xlink:href="#Z"/></g><path fill="#333" d="M510-1031c142 0 220 55 289 134 10-46 3-116 60-116h106V343H787v-493C708-62 611 14 455 14 173 14 72-209 72-503c0-237 94-406 254-487 54-27 115-41 184-41zM256-503c2 212 53 373 258 373 136 0 207-69 273-153v-490c-56-74-122-119-237-119-208 0-296 164-294 389" id="az"/><g id="A"><use transform="matrix(0.01777777777777777,0,0,0.01777777777777777,0,0)" xlink:href="#ab"/><use transform="matrix(0.01777777777777777,0,0,0.01777777777777777,14.328888888888883,0)" xlink:href="#Z"/><use transform="matrix(0.01777777777777777,0,0,0.01777777777777777,32.95999999999999,0)" xlink:href="#az"/><use transform="matrix(0.01777777777777777,0,0,0.01777777777777777,52.83555555555553,0)" xlink:href="#U"/><use transform="matrix(0.01777777777777777,0,0,0.01777777777777777,72.60444444444441,0)" xlink:href="#Z"/><use transform="matrix(0.01777777777777777,0,0,0.01777777777777777,91.23555555555552,0)" xlink:href="#ae"/><use transform="matrix(0.01777777777777777,0,0,0.01777777777777777,106.66666666666663,0)" xlink:href="#Y"/></g><path fill="#333" d="M353-563c7 250 130 409 378 409s377-159 377-408v-871h193v871c-5 275-133 450-332 535-136 58-340 59-476 0-200-85-333-259-333-535v-871h193v870" id="aA"/><g id="B"><use transform="matrix(0.01788888888888888,0,0,0.01788888888888888,0,0)" xlink:href="#aA"/><use transform="matrix(0.01788888888888888,0,0,0.01788888888888888,26.117777777777768,0)" xlink:href="#V"/><use transform="matrix(0.01788888888888888,0,0,0.01788888888888888,45.86711111111109,0)" xlink:href="#ae"/><use transform="matrix(0.01788888888888888,0,0,0.01788888888888888,61.39466666666664,0)" xlink:href="#Y"/><use transform="matrix(0.01788888888888888,0,0,0.01788888888888888,74.73977777777775,0)" xlink:href="#ab"/><use transform="matrix(0.01788888888888888,0,0,0.01788888888888888,89.15822222222218,0)" xlink:href="#Z"/><use transform="matrix(0.01788888888888888,0,0,0.01788888888888888,107.90577777777773,0)" xlink:href="#X"/><use transform="matrix(0.01788888888888888,0,0,0.01788888888888888,126.04511111111105,0)" xlink:href="#al"/></g><g id="C"><use transform="matrix(0.01788888888888888,0,0,0.01788888888888888,0,0)" xlink:href="#V"/><use transform="matrix(0.01788888888888888,0,0,0.01788888888888888,19.749333333333325,0)" xlink:href="#ab"/><use transform="matrix(0.01788888888888888,0,0,0.01788888888888888,34.167777777777765,0)" xlink:href="#ad"/><use transform="matrix(0.01788888888888888,0,0,0.01788888888888888,54.0602222222222,0)" xlink:href="#ax"/><use transform="matrix(0.01788888888888888,0,0,0.01788888888888888,63.14777777777775,0)" xlink:href="#Z"/><use transform="matrix(0.01788888888888888,0,0,0.01788888888888888,81.8953333333333,0)" xlink:href="#ah"/><use transform="matrix(0.01788888888888888,0,0,0.01788888888888888,98.60355555555552,0)" xlink:href="#Y"/></g><g id="D"><use transform="matrix(0.01788888888888888,0,0,0.01788888888888888,0,0)" xlink:href="#ah"/><use transform="matrix(0.01788888888888888,0,0,0.01788888888888888,16.708222222222215,0)" xlink:href="#ai"/><use transform="matrix(0.01788888888888888,0,0,0.01788888888888888,36.600666666666655,0)" xlink:href="#X"/><use transform="matrix(0.01788888888888888,0,0,0.01788888888888888,54.739999999999974,0)" xlink:href="#ak"/><use transform="matrix(0.01788888888888888,0,0,0.01788888888888888,74.63244444444442,0)" xlink:href="#aj"/><use transform="matrix(0.01788888888888888,0,0,0.01788888888888888,92.91488888888885,0)" xlink:href="#Z"/><use transform="matrix(0.01788888888888888,0,0,0.01788888888888888,111.6624444444444,0)" xlink:href="#ae"/></g><path fill="#3a414a" d="M1187-985c0 329-222 471-561 476H424V0H155v-1446h471c337 4 561 134 561 461zm-269 0c0-176-112-253-292-253H424v519h202c184-1 292-85 292-266" id="aB"/><path fill="#3a414a" d="M604-806c-122 5-180 74-225 167V0H132v-1026c83 11 206-35 218 62l15 124c63-106 147-205 295-205 51 0 93 12 126 35l-32 185c-4 23-15 33-40 33-33 0-65-16-110-14" id="aC"/><path fill="#3a414a" d="M361-1005c121-49 297-49 417 0 184 74 298 236 298 490 0 330-178 530-506 530C241 15 61-185 61-515c0-254 115-416 300-490zm-45 492c0 201 65 338 254 338 188 0 251-137 251-338s-63-340-251-340c-189 0-254 139-254 340" id="aD"/><path fill="#3a414a" d="M16 177c97 0 132-44 132-142v-1061h247V35c-4 210-111 324-327 325-50 0-86-6-126-19l8-133c7-33 23-31 66-31zm256-1660c96 0 160 62 160 158 0 94-65 155-160 155-93 0-156-62-156-155 0-95 61-158 156-158" id="aE"/><path fill="#3a414a" d="M991-153C899-47 760 15 568 15 237 15 63-197 63-535c0-237 116-392 287-467 61-27 129-40 206-40 287 0 444 174 444 465 0 54-3 95-57 95H309c4 226 158 349 385 292 52-13 93-39 132-62 32-19 73-16 93 9zM778-631c-4-143-73-234-217-234-154 0-226 95-247 234h464" id="aF"/><path fill="#3a414a" d="M928-153C839-49 712 15 524 15c-227 0-358-131-424-305-47-123-49-306-4-434 67-190 213-318 465-318 165 0 270 58 357 143-29 37-52 81-86 112-71 26-104-41-170-55-24-5-52-12-86-12-192 5-260 143-260 339 0 194 67 336 254 342 98 3 148-38 200-79 26-20 67-17 87 9" id="aG"/><path fill="#3a414a" d="M738-75c-64 55-158 90-269 91-176 2-277-109-277-284v-573c-65-4-153 21-153-52v-98l165-27 52-280c10-66 115-35 183-42v323h270v176H439v556c-1 59 32 101 88 102 48 1 68-25 104-34 19 1 25 9 33 22" id="aH"/><path fill="#3a414a" d="M346-1446v288c-15 73-13 172-48 224-21 30-94 32-118 0-38-50-33-151-49-224v-288h215" id="aI"/><path fill="#3a414a" d="M254-198c95 60 334 64 323-83-9-119-156-122-253-159C192-490 72-550 72-729c0-214 163-309 387-313 145-3 264 55 338 127-26 36-45 82-77 111-69 21-111-33-176-48-103-23-247 0-238 102 11 114 156 118 251 155 126 49 251 100 251 270C808-59 575 48 294 6 192-9 106-54 42-110c28-39 43-95 83-120 49-31 96 11 129 32" id="aJ"/><g id="E"><use transform="matrix(0.016666666666666666,0,0,0.016666666666666666,0,0)" xlink:href="#aB"/><use transform="matrix(0.016666666666666666,0,0,0.016666666666666666,20.833333333333332,0)" xlink:href="#aC"/><use transform="matrix(0.016666666666666666,0,0,0.016666666666666666,34.45,0)" xlink:href="#aD"/><use transform="matrix(0.016666666666666666,0,0,0.016666666666666666,53.400000000000006,0)" xlink:href="#aE"/><use transform="matrix(0.016666666666666666,0,0,0.016666666666666666,62.366666666666674,0)" xlink:href="#aF"/><use transform="matrix(0.016666666666666666,0,0,0.016666666666666666,80.18333333333334,0)" xlink:href="#aG"/><use transform="matrix(0.016666666666666666,0,0,0.016666666666666666,96.08333333333334,0)" xlink:href="#aH"/><use transform="matrix(0.016666666666666666,0,0,0.016666666666666666,108.98333333333335,0)" xlink:href="#aI"/><use transform="matrix(0.016666666666666666,0,0,0.016666666666666666,116.91666666666669,0)" xlink:href="#aJ"/></g><path fill="#3a414a" d="M605-850c-102 1-168 52-226 108V0H132v-1026c80 9 198-29 214 45l17 81c77-76 165-142 317-142 235 0 346 154 346 389V0H779v-653c0-121-55-198-174-197" id="aK"/><path fill="#3a414a" d="M395-1026V0H148v-1026h247zm-123-457c96 0 160 62 160 158 0 94-65 155-160 155-93 0-156-62-156-155 0-95 61-158 156-158" id="aL"/><path fill="#3a414a" d="M638 15c-134 0-208-58-269-132-10 52-5 117-71 117H135v-1486h247v586c77-79 169-142 318-142 277 0 379 230 379 521 0 241-97 412-259 495-54 27-115 41-182 41zm186-536c0-181-37-329-209-329-117 0-175 55-233 124v460c48 61 104 93 199 93 187 0 243-152 243-348" id="aM"/><path fill="#3a414a" d="M457 16c-234 0-346-155-346-390v-652h247v652c0 121 55 198 174 197 102-1 168-51 226-107v-742h247V0c-80-9-199 29-214-45l-17-82C697-50 608 16 457 16" id="aN"/><path fill="#3a414a" d="M221-3C132-8 80-62 80-152c0-85 58-133 145-135 137-3 173 141 135 270-37 126-112 227-205 301-28-24-89-65-42-112 45-45 92-100 108-175" id="aO"/><g id="F"><use transform="matrix(0.016666666666666666,0,0,0.016666666666666666,0,0)" xlink:href="#aG"/><use transform="matrix(0.016666666666666666,0,0,0.016666666666666666,15.9,0)" xlink:href="#aD"/><use transform="matrix(0.016666666666666666,0,0,0.016666666666666666,34.85,0)" xlink:href="#aK"/><use transform="matrix(0.016666666666666666,0,0,0.016666666666666666,53.8,0)" xlink:href="#aH"/><use transform="matrix(0.016666666666666666,0,0,0.016666666666666666,66.7,0)" xlink:href="#aC"/><use transform="matrix(0.016666666666666666,0,0,0.016666666666666666,80.31666666666666,0)" xlink:href="#aL"/><use transform="matrix(0.016666666666666666,0,0,0.016666666666666666,89.35,0)" xlink:href="#aM"/><use transform="matrix(0.016666666666666666,0,0,0.016666666666666666,108.35,0)" xlink:href="#aN"/><use transform="matrix(0.016666666666666666,0,0,0.016666666666666666,127.3,0)" xlink:href="#aH"/><use transform="matrix(0.016666666666666666,0,0,0.016666666666666666,140.2,0)" xlink:href="#aD"/><use transform="matrix(0.016666666666666666,0,0,0.016666666666666666,159.14999999999998,0)" xlink:href="#aC"/><use transform="matrix(0.016666666666666666,0,0,0.016666666666666666,172.76666666666665,0)" xlink:href="#aJ"/><use transform="matrix(0.016666666666666666,0,0,0.016666666666666666,187.33333333333331,0)" xlink:href="#aO"/></g><path fill="#3a414a" d="M556-1045c246 0 380 151 380 397V0c-79-6-181 23-196-53l-22-73C630-49 541 18 379 16 194 13 81-77 81-262c0-184 152-247 321-292 78-21 176-31 293-34 10-155-29-262-170-262-104 0-161 40-224 77-47 28-107 5-127-31l-45-79c118-108 260-162 427-162zM317-275c-3 86 56 121 139 121 117 0 179-51 239-111v-173c-122 6-219 17-297 53-49 22-79 51-81 110" id="aP"/><g id="G"><use transform="matrix(0.016666666666666666,0,0,0.016666666666666666,0,0)" xlink:href="#aJ"/><use transform="matrix(0.016666666666666666,0,0,0.016666666666666666,14.566666666666666,0)" xlink:href="#aN"/><use transform="matrix(0.016666666666666666,0,0,0.016666666666666666,33.516666666666666,0)" xlink:href="#aJ"/><use transform="matrix(0.016666666666666666,0,0,0.016666666666666666,48.08333333333333,0)" xlink:href="#aH"/><use transform="matrix(0.016666666666666666,0,0,0.016666666666666666,60.98333333333333,0)" xlink:href="#aP"/><use transform="matrix(0.016666666666666666,0,0,0.016666666666666666,78.43333333333332,0)" xlink:href="#aL"/><use transform="matrix(0.016666666666666666,0,0,0.016666666666666666,87.46666666666665,0)" xlink:href="#aK"/><use transform="matrix(0.016666666666666666,0,0,0.016666666666666666,106.41666666666664,0)" xlink:href="#aF"/><use transform="matrix(0.016666666666666666,0,0,0.016666666666666666,124.23333333333332,0)" xlink:href="#aC"/><use transform="matrix(0.016666666666666666,0,0,0.016666666666666666,137.85,0)" xlink:href="#aJ"/></g><path fill="#3a414a" d="M381 316C185 26 60-383 122-872c35-279 131-501 259-698 44 30 96 50 134 86 16 24 12 49-3 77-164 298-252 770-142 1185 35 132 78 259 143 374 20 35 10 87-22 97" id="aQ"/><path fill="#3a414a" d="M502-1045c120-1 193 43 256 101v-542h247V0c-80-9-199 29-214-45l-20-99C693-58 601 15 441 15 163 15 61-217 61-510c0-241 98-411 259-494 54-27 115-41 182-41zM316-510c0 181 36 329 209 329 118 0 173-54 233-123v-460c-48-59-104-93-198-93-188 0-244 151-244 347" id="aR"/><g id="H"><use transform="matrix(0.016666666666666666,0,0,0.016666666666666666,0,0)" xlink:href="#aQ"/><use transform="matrix(0.016666666666666666,0,0,0.016666666666666666,10,0)" xlink:href="#aP"/><use transform="matrix(0.016666666666666666,0,0,0.016666666666666666,27.45,0)" xlink:href="#aK"/><use transform="matrix(0.016666666666666666,0,0,0.016666666666666666,46.4,0)" xlink:href="#aR"/></g><path fill="#3a414a" d="M605-850c-102 1-168 52-226 108V0H132v-1486h247v571c76-69 161-129 301-127 234 4 346 154 346 389V0H779v-653c0-121-55-198-174-197" id="aS"/><g id="I"><use transform="matrix(0.016666666666666666,0,0,0.016666666666666666,0,0)" xlink:href="#aD"/><use transform="matrix(0.016666666666666666,0,0,0.016666666666666666,18.95,0)" xlink:href="#aH"/><use transform="matrix(0.016666666666666666,0,0,0.016666666666666666,31.849999999999998,0)" xlink:href="#aS"/><use transform="matrix(0.016666666666666666,0,0,0.016666666666666666,50.8,0)" xlink:href="#aF"/><use transform="matrix(0.016666666666666666,0,0,0.016666666666666666,68.61666666666666,0)" xlink:href="#aC"/></g><path fill="#3a414a" d="M100-707h518v206H100v-206" id="aT"/><path fill="#3a414a" d="M565-850c-86 0-140 48-186 99V0H132v-1026c80 9 198-29 214 45l16 76c67-72 141-136 276-137 139-1 214 86 253 192 57-117 162-192 328-192 240 0 354 147 354 389V0h-247v-653c1-123-52-197-169-197s-180 76-180 197V0H729v-653c0-127-46-197-164-197" id="aU"/><path fill="#3a414a" d="M382-1486v851c54 1 89-1 115-33l255-315c22-25 41-43 86-43h226C946-887 832-742 710-606c-11 12-25 21-39 30 29 21 48 49 69 78L1082 0H859c-44-1-65-15-85-44L513-433c-20-29-30-36-75-37h-56V0H135v-1486h247" id="aV"/><path fill="#3a414a" d="M247-436C153-487 80-575 80-712c0-228 174-332 407-332 92 0 169 20 230 53h295c-4 63 19 133-53 146l-92 17c30 74 25 184-9 254-72 146-265 223-484 183-51 27-68 81-20 111 145 54 395 5 528 91 60 38 108 95 104 193-8 182-136 275-286 326-172 59-444 28-556-52C83 234 32 179 32 90c0-112 77-164 166-199-49-28-87-70-84-147 4-94 65-143 133-180zm247 621c132 0 252-20 264-139-10-98-129-93-228-102-63-6-132-5-191-13-47 27-93 62-93 127 0 112 123 127 248 127zM305-706c0 111 68 168 182 168s182-56 182-168c0-107-68-165-182-165s-182 58-182 165" id="aW"/><g id="J"><use transform="matrix(0.016666666666666666,0,0,0.016666666666666666,0,0)" xlink:href="#aR"/><use transform="matrix(0.016666666666666666,0,0,0.016666666666666666,19,0)" xlink:href="#aF"/><use transform="matrix(0.016666666666666666,0,0,0.016666666666666666,36.81666666666666,0)" xlink:href="#aG"/><use transform="matrix(0.016666666666666666,0,0,0.016666666666666666,52.71666666666666,0)" xlink:href="#aL"/><use transform="matrix(0.016666666666666666,0,0,0.016666666666666666,61.74999999999999,0)" xlink:href="#aJ"/><use transform="matrix(0.016666666666666666,0,0,0.016666666666666666,76.31666666666666,0)" xlink:href="#aL"/><use transform="matrix(0.016666666666666666,0,0,0.016666666666666666,85.35,0)" xlink:href="#aD"/><use transform="matrix(0.016666666666666666,0,0,0.016666666666666666,104.3,0)" xlink:href="#aK"/><use transform="matrix(0.016666666666666666,0,0,0.016666666666666666,123.25,0)" xlink:href="#aT"/><use transform="matrix(0.016666666666666666,0,0,0.016666666666666666,135.21666666666667,0)" xlink:href="#aU"/><use transform="matrix(0.016666666666666666,0,0,0.016666666666666666,163.28333333333333,0)" xlink:href="#aP"/><use transform="matrix(0.016666666666666666,0,0,0.016666666666666666,180.73333333333332,0)" xlink:href="#aV"/><use transform="matrix(0.016666666666666666,0,0,0.016666666666666666,199.11666666666665,0)" xlink:href="#aL"/><use transform="matrix(0.016666666666666666,0,0,0.016666666666666666,208.14999999999998,0)" xlink:href="#aK"/><use transform="matrix(0.016666666666666666,0,0,0.016666666666666666,227.09999999999997,0)" xlink:href="#aW"/></g><path fill="#3a414a" d="M635 15C514 15 442-25 379-85v420H132v-1361c64 5 145-11 192 11 33 24 28 86 42 129 78-86 174-159 331-159 277 0 379 232 379 524 0 241-96 412-258 495-54 27-116 41-183 41zm186-536c0-181-37-329-209-329-117 0-175 55-233 124v460c48 60 104 93 198 93 188 0 244-152 244-348" id="aX"/><path fill="#3a414a" d="M219-1570c196 289 321 700 259 1188-35 279-131 501-259 698-44-30-97-51-134-88-18-18-10-55 2-76 168-296 252-768 143-1184-35-133-78-260-142-375-22-41-9-79 21-97" id="aY"/><g id="K"><use transform="matrix(0.016666666666666666,0,0,0.016666666666666666,0,0)" xlink:href="#aW"/><use transform="matrix(0.016666666666666666,0,0,0.016666666666666666,17.25,0)" xlink:href="#aC"/><use transform="matrix(0.016666666666666666,0,0,0.016666666666666666,30.866666666666667,0)" xlink:href="#aD"/><use transform="matrix(0.016666666666666666,0,0,0.016666666666666666,49.81666666666666,0)" xlink:href="#aN"/><use transform="matrix(0.016666666666666666,0,0,0.016666666666666666,68.76666666666667,0)" xlink:href="#aX"/><use transform="matrix(0.016666666666666666,0,0,0.016666666666666666,87.61666666666667,0)" xlink:href="#aJ"/><use transform="matrix(0.016666666666666666,0,0,0.016666666666666666,102.18333333333334,0)" xlink:href="#aY"/></g><path fill="#3a414a" d="M398-581c6 222 109 364 330 364 220 0 331-140 331-363v-866h269v866c-5 286-141 466-350 552-142 59-358 59-500 0-210-86-349-266-349-552v-866h269v865" id="aZ"/><g id="L"><use transform="matrix(0.016666666666666666,0,0,0.016666666666666666,0,0)" xlink:href="#aZ"/><use transform="matrix(0.016666666666666666,0,0,0.016666666666666666,24.266666666666666,0)" xlink:href="#aJ"/><use transform="matrix(0.016666666666666666,0,0,0.016666666666666666,38.83333333333333,0)" xlink:href="#aF"/><use transform="matrix(0.016666666666666666,0,0,0.016666666666666666,56.64999999999999,0)" xlink:href="#aC"/><use transform="matrix(0.016666666666666666,0,0,0.016666666666666666,70.26666666666665,0)" xlink:href="#aJ"/></g><g id="M"><use transform="matrix(0.016666666666666666,0,0,0.016666666666666666,0,0)" xlink:href="#aP"/><use transform="matrix(0.016666666666666666,0,0,0.016666666666666666,17.45,0)" xlink:href="#aK"/><use transform="matrix(0.016666666666666666,0,0,0.016666666666666666,36.4,0)" xlink:href="#aR"/></g><path fill="#3a414a" d="M395-1486V0H148v-1486h247" id="ba"/><g id="N"><use transform="matrix(0.016666666666666666,0,0,0.016666666666666666,0,0)" xlink:href="#aC"/><use transform="matrix(0.016666666666666666,0,0,0.016666666666666666,13.616666666666667,0)" xlink:href="#aF"/><use transform="matrix(0.016666666666666666,0,0,0.016666666666666666,31.433333333333334,0)" xlink:href="#ba"/><use transform="matrix(0.016666666666666666,0,0,0.016666666666666666,40.46666666666667,0)" xlink:href="#aP"/><use transform="matrix(0.016666666666666666,0,0,0.016666666666666666,57.91666666666667,0)" xlink:href="#aH"/><use transform="matrix(0.016666666666666666,0,0,0.016666666666666666,70.81666666666668,0)" xlink:href="#aF"/><use transform="matrix(0.016666666666666666,0,0,0.016666666666666666,88.63333333333335,0)" xlink:href="#aR"/></g><path fill="#3a414a" d="M218 3c-22 53-63 92-132 92H-18l584-1494c20-51 60-86 126-87h105" id="bb"/><g id="O"><use transform="matrix(0.016666666666666666,0,0,0.016666666666666666,0,0)" xlink:href="#aG"/><use transform="matrix(0.016666666666666666,0,0,0.016666666666666666,15.9,0)" xlink:href="#aD"/><use transform="matrix(0.016666666666666666,0,0,0.016666666666666666,34.85,0)" xlink:href="#aU"/><use transform="matrix(0.016666666666666666,0,0,0.016666666666666666,62.91666666666667,0)" xlink:href="#aU"/><use transform="matrix(0.016666666666666666,0,0,0.016666666666666666,90.98333333333333,0)" xlink:href="#aN"/><use transform="matrix(0.016666666666666666,0,0,0.016666666666666666,109.93333333333334,0)" xlink:href="#aK"/><use transform="matrix(0.016666666666666666,0,0,0.016666666666666666,128.88333333333333,0)" xlink:href="#aL"/><use transform="matrix(0.016666666666666666,0,0,0.016666666666666666,137.91666666666666,0)" xlink:href="#aH"/><use transform="matrix(0.016666666666666666,0,0,0.016666666666666666,150.81666666666666,0)" xlink:href="#aL"/><use transform="matrix(0.016666666666666666,0,0,0.016666666666666666,159.85,0)" xlink:href="#aF"/><use transform="matrix(0.016666666666666666,0,0,0.016666666666666666,177.66666666666666,0)" xlink:href="#aJ"/><use transform="matrix(0.016666666666666666,0,0,0.016666666666666666,192.23333333333332,0)" xlink:href="#bb"/><use transform="matrix(0.016666666666666666,0,0,0.016666666666666666,203.48333333333332,0)" xlink:href="#aX"/><use transform="matrix(0.016666666666666666,0,0,0.016666666666666666,222.3333333333333,0)" xlink:href="#aC"/><use transform="matrix(0.016666666666666666,0,0,0.016666666666666666,235.95,0)" xlink:href="#aD"/><use transform="matrix(0.016666666666666666,0,0,0.016666666666666666,254.89999999999998,0)" xlink:href="#aE"/><use transform="matrix(0.016666666666666666,0,0,0.016666666666666666,263.8666666666666,0)" xlink:href="#aF"/><use transform="matrix(0.016666666666666666,0,0,0.016666666666666666,281.6833333333333,0)" xlink:href="#aG"/><use transform="matrix(0.016666666666666666,0,0,0.016666666666666666,297.58333333333326,0)" xlink:href="#aH"/><use transform="matrix(0.016666666666666666,0,0,0.016666666666666666,310.48333333333323,0)" xlink:href="#aJ"/></g><path fill="#333" d="M338-1150c4 31 6 65 6 97V0H174v-1433c59 2 132-6 183 5 10 2 18 13 27 28l495 882c19 31 31 68 45 104 14-38 27-71 46-105l485-881c25-58 137-23 210-33V0h-170c2-381-5-772 4-1147l-491 896c-27 62-134 61-168 0" id="bc"/><g id="P"><use transform="matrix(0.01777777777777777,0,0,0.01777777777777777,0,0)" xlink:href="#bc"/><use transform="matrix(0.01777777777777777,0,0,0.01777777777777777,32.7111111111111,0)" xlink:href="#X"/><use transform="matrix(0.01777777777777777,0,0,0.01777777777777777,50.737777777777765,0)" xlink:href="#R"/><use transform="matrix(0.01777777777777777,0,0,0.01777777777777777,59.83999999999998,0)" xlink:href="#ak"/><use transform="matrix(0.01777777777777777,0,0,0.01777777777777777,79.60888888888886,0)" xlink:href="#Y"/><use transform="matrix(0.01777777777777777,0,0,0.01777777777777777,92.87111111111108,0)" xlink:href="#Z"/><use transform="matrix(0.01777777777777777,0,0,0.01777777777777777,111.50222222222217,0)" xlink:href="#ak"/><use transform="matrix(0.01777777777777777,0,0,0.01777777777777777,131.27111111111105,0)" xlink:href="#X"/><use transform="matrix(0.01777777777777777,0,0,0.01777777777777777,149.29777777777772,0)" xlink:href="#ak"/><use transform="matrix(0.01777777777777777,0,0,0.01777777777777777,169.0666666666666,0)" xlink:href="#ah"/><use transform="matrix(0.01777777777777777,0,0,0.01777777777777777,185.67111111111103,0)" xlink:href="#Z"/></g></defs></g></svg>
