<svg xmlns="http://www.w3.org/2000/svg" xmlns:xlink="http://www.w3.org/1999/xlink" xmlns:lucid="lucid" width="1343" height="304"><g transform="translate(-147 -2143)" lucid:page-tab-id="0_0"><path d="M200 2205a5 5 0 0 1 5-5h201.83a8.65 8.65 0 0 1 7.5 4.33l54.58 94.78a8.38 8.38 0 0 1-.12 8.6l-54.33 88.05a8.96 8.96 0 0 1-7.62 4.25H205a5 5 0 0 1-5-5z" stroke="#ffe342" stroke-width="2" fill="#fff7a1"/><use xlink:href="#a" transform="matrix(1,0,0,1,200.00000000000003,2200.0000000000005) translate(70.86088888888891 111.238)"/><path d="M440.8 2204.33a2.9 2.9 0 0 1 2.5-4.33h215.07a8.65 8.65 0 0 1 7.5 4.33l54.58 94.78a8.38 8.38 0 0 1-.13 8.6L666 2395.75a8.96 8.96 0 0 1-7.63 4.25H443.3a2.8 2.8 0 0 1-2.37-4.26l54.33-88.04a8.38 8.38 0 0 0 .13-8.6z" stroke="#fc9432" stroke-width="2" fill="#ffdda6"/><use xlink:href="#b" transform="matrix(1,0,0,1,438.3061658398299,2200.0000000000327) translate(114.89 96.57133333333333)"/><use xlink:href="#c" transform="matrix(1,0,0,1,438.3061658398299,2200.0000000000327) translate(70.08333333333334 125.90466666666666)"/><path d="M695.66 2204.33a2.9 2.9 0 0 1 2.5-4.33h215.07a8.65 8.65 0 0 1 7.5 4.33l54.58 94.78a8.38 8.38 0 0 1-.12 8.6l-54.33 88.05a8.96 8.96 0 0 1-7.62 4.25H698.16a2.8 2.8 0 0 1-2.37-4.26l54.3-88.04a8.38 8.38 0 0 0 .14-8.6z" stroke="#54c45e" stroke-width="2" fill="#c3f7c8"/><use xlink:href="#d" transform="matrix(1,0,0,1,693.1613709741385,2200.000000000048) translate(79.72666666666667 96.57133333333333)"/><use xlink:href="#e" transform="matrix(1,0,0,1,693.1613709741385,2200.000000000048) translate(101.09111111111112 125.90466666666666)"/><path d="M950.5 2204.33a2.9 2.9 0 0 1 2.52-4.33h215.06a8.65 8.65 0 0 1 7.5 4.33l54.6 94.78a8.38 8.38 0 0 1-.15 8.6l-54.32 88.05a8.96 8.96 0 0 1-7.62 4.25H953.02a2.8 2.8 0 0 1-2.38-4.26l54.33-88.04a8.38 8.38 0 0 0 .13-8.6z" stroke="#6db1ff" stroke-width="2" fill="#cfe4ff"/><use xlink:href="#f" transform="matrix(1,0,0,1,948.016576108417,2200.0000000000005) translate(94.83333333333333 111.238)"/><path d="M1202.2 2204.25a2.8 2.8 0 0 1 2.36-4.25h231.57a5.04 5.04 0 0 1 5.03 5l.64 86.73a703 703 0 0 1 0 10l-.64 93.27a5.03 5.03 0 0 1-5.04 5h-231.56a2.7 2.7 0 0 1-2.24-4.17l58.42-88.2a7.8 7.8 0 0 0 .14-8.43z" stroke="#fe7070" stroke-width="2" fill="#ffd9d9"/><g><use xlink:href="#g" transform="matrix(1,0,0,1,1199.5619733837,2199.9999999999523) translate(92.2888888888889 96.57133333333333)"/><use xlink:href="#h" transform="matrix(1,0,0,1,1199.5619733837,2199.9999999999523) translate(89.34333333333335 125.90466666666666)"/></g><defs><path d="M617-1433c323 3 534 130 534 444 0 310-216 446-534 453H387V0H194v-1433h423zm340 444c0-197-128-291-340-291H387v590h230c207-4 340-97 340-299" id="i"/><path d="M584-856c-148 6-210 94-260 211V0H146v-1013c62 7 151-25 157 49l12 158c66-138 184-259 384-216 23 5 44 16 63 27l-23 133c-5 17-15 25-31 25-36 0-71-21-124-19" id="j"/><path d="M1038-507c0 321-164 521-482 521S72-187 72-507c0-248 107-410 284-485 60-25 126-37 200-37 317 0 482 201 482 522zm-782 1c0 225 80 381 300 381 213 0 298-159 298-381 0-223-84-383-298-383-221 0-300 158-300 383" id="k"/><path d="M602 14c-133 0-212-47-278-119v448H146v-1356c60 6 147-22 154 37l15 120c80-93 179-175 341-175 282 0 383 224 383 518 0 237-92 406-253 487-54 27-116 40-184 40zm253-527c-3-212-53-374-258-374-136 0-207 69-273 153v490c57 77 121 120 238 120 207 0 295-164 293-389" id="l"/><path d="M409-112c121-3 207-52 207-167 0-134-157-142-264-181-133-48-263-98-263-275 0-197 153-290 360-294 139-3 243 49 317 118-26 35-46 114-111 76-53-31-114-63-202-61-108 3-195 44-195 147 0 129 158 136 262 175 128 48 263 93 263 264C783-89 627 12 400 16 255 19 139-39 62-107c27-41 57-128 128-81 57 38 118 78 219 76" id="m"/><path d="M537-1031c235 0 353 147 353 383V0c-58-5-129 17-142-42l-20-94C637-55 545 19 375 16 200 13 92-76 92-253c0-184 160-243 332-285 79-19 176-28 291-31 12-184-31-318-200-318-113 0-181 45-243 91-36 26-82 14-99-17l-32-57c101-96 215-161 396-161zM263-261c0 103 62 152 165 152 140 0 216-64 287-136v-211c-141 4-258 19-349 60-60 27-103 62-103 135" id="n"/><path d="M344-1473V0H166v-1473h178" id="o"/><g id="a"><use transform="matrix(0.012222222222222221,0,0,0.012222222222222221,0,0)" xlink:href="#i"/><use transform="matrix(0.012222222222222221,0,0,0.012222222222222221,14.935555555555554,0)" xlink:href="#j"/><use transform="matrix(0.012222222222222221,0,0,0.012222222222222221,24.786666666666665,0)" xlink:href="#k"/><use transform="matrix(0.012222222222222221,0,0,0.012222222222222221,38.37777777777777,0)" xlink:href="#l"/><use transform="matrix(0.012222222222222221,0,0,0.012222222222222221,51.871111111111105,0)" xlink:href="#k"/><use transform="matrix(0.012222222222222221,0,0,0.012222222222222221,65.46222222222221,0)" xlink:href="#m"/><use transform="matrix(0.012222222222222221,0,0,0.012222222222222221,76.0711111111111,0)" xlink:href="#n"/><use transform="matrix(0.012222222222222221,0,0,0.012222222222222221,88.46444444444442,0)" xlink:href="#o"/></g><path d="M1057-1433v158H369v476h557v152H369v489h688V0H174v-1433h883" id="p"/><path d="M443 299c-13 26-25 44-64 44H247L432-59 14-1013h154c30-1 46 18 55 37 95 228 197 450 287 682 6 14 8 30 11 45 10-32 18-60 30-90l263-637c18-60 124-30 194-37" id="q"/><g id="b"><use transform="matrix(0.012222222222222221,0,0,0.012222222222222221,0,0)" xlink:href="#p"/><use transform="matrix(0.012222222222222221,0,0,0.012222222222222221,14.20222222222222,0)" xlink:href="#n"/><use transform="matrix(0.012222222222222221,0,0,0.012222222222222221,26.595555555555553,0)" xlink:href="#j"/><use transform="matrix(0.012222222222222221,0,0,0.012222222222222221,36.446666666666665,0)" xlink:href="#o"/><use transform="matrix(0.012222222222222221,0,0,0.012222222222222221,42.70444444444444,0)" xlink:href="#q"/></g><path d="M1365-1009c68 170 68 416 0 586C1264-171 1053 0 710 0H174v-1433h536c343 5 555 172 655 424zM710-157c338-11 507-216 507-559s-169-560-507-560H369v1119h341" id="r"/><path d="M954-142C850-8 572 61 364-22 180-96 74-268 74-527c0-234 108-389 275-463 59-26 125-39 198-39 273 0 420 174 420 453 0 48-2 70-43 70H250c8 226 98 375 322 380 114 2 191-38 258-82 70-46 94 37 124 66zM807-617c-5-171-86-278-256-281-181-3-273 116-295 281h551" id="s"/><path d="M18-1013h146c28-1 47 18 55 37l257 652c18 45 27 93 37 143 12-50 22-98 40-143l260-652c17-60 123-30 192-37L592 0H431" id="t"/><path d="M550-887c-107 0-172 65-226 132V0H146v-1013c60 6 147-22 154 37l13 104c69-80 148-156 287-157 148-1 223 92 258 211 51-126 153-211 323-211 232 0 338 149 338 384V0h-178v-645c1-148-62-242-203-242-142 0-218 94-218 242V0H742v-645c1-149-54-242-192-242" id="u"/><path d="M598-887c-125 2-207 68-274 141V0H146v-1013c60 6 147-22 154 37l14 110c82-87 177-163 336-163 232 0 339 151 339 384V0H811v-645c0-149-65-244-213-242" id="v"/><path d="M698-76c-54 52-145 92-245 92-162 1-249-96-249-260v-620c-58-9-160 26-160-39v-71l166-21 41-313c4-50 80-30 131-34v349h290v129H382v608c-2 78 40 125 111 126 60 2 88-33 128-48 9 0 18 6 25 17" id="w"/><g id="c"><use transform="matrix(0.012222222222222221,0,0,0.012222222222222221,0,0)" xlink:href="#r"/><use transform="matrix(0.012222222222222221,0,0,0.012222222222222221,18.406666666666666,0)" xlink:href="#s"/><use transform="matrix(0.012222222222222221,0,0,0.012222222222222221,30.897777777777776,0)" xlink:href="#t"/><use transform="matrix(0.012222222222222221,0,0,0.012222222222222221,43.09555555555555,0)" xlink:href="#s"/><use transform="matrix(0.012222222222222221,0,0,0.012222222222222221,55.90444444444444,0)" xlink:href="#o"/><use transform="matrix(0.012222222222222221,0,0,0.012222222222222221,62.16222222222222,0)" xlink:href="#k"/><use transform="matrix(0.012222222222222221,0,0,0.012222222222222221,75.75333333333332,0)" xlink:href="#l"/><use transform="matrix(0.012222222222222221,0,0,0.012222222222222221,89.24666666666664,0)" xlink:href="#u"/><use transform="matrix(0.012222222222222221,0,0,0.012222222222222221,109.31555555555552,0)" xlink:href="#s"/><use transform="matrix(0.012222222222222221,0,0,0.012222222222222221,122.1244444444444,0)" xlink:href="#v"/><use transform="matrix(0.012222222222222221,0,0,0.012222222222222221,135.71555555555554,0)" xlink:href="#w"/></g><path d="M1289-200C1173-69 1017 19 773 16c-339-4-539-180-634-435-65-176-67-421 3-594 104-257 318-431 668-436 220-3 359 75 476 182-27 35-48 75-79 105-60 21-86-37-135-56-109-71-336-85-474-24-190 83-310 257-310 526 0 268 114 444 301 527 146 65 383 42 487-33 24-17 50-36 75-59 20-19 44-22 62-2" id="x"/><path d="M461 16c-231 0-339-149-339-383v-646h178v646c0 148 67 243 213 241 125-2 207-66 274-140v-747h178V0c-60-6-146 22-154-37l-14-109C716-60 619 16 461 16" id="y"/><path d="M344-1013V0H166v-1013h178zm-88-446c77 0 128 52 128 128 0 75-52 126-128 126-75 0-126-51-126-126 0-76 50-128 126-128" id="z"/><g id="d"><use transform="matrix(0.012222222222222221,0,0,0.012222222222222221,0,0)" xlink:href="#x"/><use transform="matrix(0.012222222222222221,0,0,0.012222222222222221,16.744444444444444,0)" xlink:href="#k"/><use transform="matrix(0.012222222222222221,0,0,0.012222222222222221,30.33555555555555,0)" xlink:href="#u"/><use transform="matrix(0.012222222222222221,0,0,0.012222222222222221,50.40444444444444,0)" xlink:href="#u"/><use transform="matrix(0.012222222222222221,0,0,0.012222222222222221,70.47333333333333,0)" xlink:href="#y"/><use transform="matrix(0.012222222222222221,0,0,0.012222222222222221,84.06444444444443,0)" xlink:href="#v"/><use transform="matrix(0.012222222222222221,0,0,0.012222222222222221,97.65555555555554,0)" xlink:href="#z"/><use transform="matrix(0.012222222222222221,0,0,0.012222222222222221,103.9133333333333,0)" xlink:href="#w"/><use transform="matrix(0.012222222222222221,0,0,0.012222222222222221,113.03111111111107,0)" xlink:href="#q"/></g><path d="M1344-139C1208-39 1036 20 799 16c-345-5-555-181-657-435-70-174-66-421 0-596 113-299 413-484 839-421 148 22 259 85 350 168l-55 88c-38 58-99 7-135-18-118-82-379-113-543-44-193 82-310 256-310 526 0 276 118 454 313 536 175 73 436 36 567-45v-316H946c-65 1-35-91-42-148h440v550" id="A"/><path d="M14-1013c70 8 177-25 195 37l194 652c10 46 20 89 27 137 77-272 174-527 253-793 13-44 73-34 126-35 27-1 44 16 51 35 81 265 173 518 245 792 7-44 18-96 30-136l198-652c15-59 118-30 186-37L1191 0h-141c-17 0-29-11-36-34-79-245-162-486-237-734-5-15-7-31-10-46-7 32-12 65-23 94L517-34C501 26 405-10 342 0" id="B"/><path d="M598-887c-125 2-207 68-274 141V0H146v-1473h178v596c81-82 173-152 326-152 232 0 339 151 339 384V0H811v-645c0-149-65-244-213-242" id="C"/><g id="e"><use transform="matrix(0.012222222222222221,0,0,0.012222222222222221,0,0)" xlink:href="#A"/><use transform="matrix(0.012222222222222221,0,0,0.012222222222222221,17.94222222222222,0)" xlink:href="#j"/><use transform="matrix(0.012222222222222221,0,0,0.012222222222222221,27.79333333333333,0)" xlink:href="#k"/><use transform="matrix(0.012222222222222221,0,0,0.012222222222222221,41.38444444444444,0)" xlink:href="#B"/><use transform="matrix(0.012222222222222221,0,0,0.012222222222222221,60.108888888888885,0)" xlink:href="#w"/><use transform="matrix(0.012222222222222221,0,0,0.012222222222222221,69.22666666666666,0)" xlink:href="#C"/></g><path d="M338-1150c4 31 6 65 6 97V0H174v-1433c59 2 132-6 183 5 10 2 18 13 27 28l495 882c19 31 31 68 45 104 14-38 27-71 46-105l485-881c25-58 137-23 210-33V0h-170c2-381-5-772 4-1147l-491 896c-27 62-134 61-168 0" id="D"/><g id="f"><use transform="matrix(0.012222222222222221,0,0,0.012222222222222221,0,0)" xlink:href="#D"/><use transform="matrix(0.012222222222222221,0,0,0.012222222222222221,22.488888888888887,0)" xlink:href="#n"/><use transform="matrix(0.012222222222222221,0,0,0.012222222222222221,34.88222222222222,0)" xlink:href="#w"/><use transform="matrix(0.012222222222222221,0,0,0.012222222222222221,43.99999999999999,0)" xlink:href="#y"/><use transform="matrix(0.012222222222222221,0,0,0.012222222222222221,57.591111111111104,0)" xlink:href="#j"/><use transform="matrix(0.012222222222222221,0,0,0.012222222222222221,67.44222222222221,0)" xlink:href="#z"/><use transform="matrix(0.012222222222222221,0,0,0.012222222222222221,73.69999999999999,0)" xlink:href="#w"/><use transform="matrix(0.012222222222222221,0,0,0.012222222222222221,82.81777777777776,0)" xlink:href="#q"/></g><path d="M14-1433h161c34-1 58 20 66 46 103 352 213 698 311 1054 6 20 8 42 12 65 9-42 17-86 30-123l337-996c11-63 166-65 188 0l335 996c12 35 23 74 32 119 8-42 12-82 24-119l297-996c16-70 135-39 216-46L1576 0h-174l-363-1093c-7-21-14-45-20-72-6 24-12 50-19 72L635 0H461" id="E"/><path d="M510-1031c133 0 210 49 277 120v-562h178V0c-60-6-146 21-154-37l-16-123C716-67 616 14 455 14 173 14 72-209 72-503c0-237 94-406 254-487 54-27 115-41 184-41zM256-503c2 212 53 373 258 373 136 0 207-69 273-153v-490c-57-77-121-119-237-119-208 0-296 164-294 389" id="F"/><g id="g"><use transform="matrix(0.012222222222222221,0,0,0.012222222222222221,0,0)" xlink:href="#E"/><use transform="matrix(0.012222222222222221,0,0,0.012222222222222221,24.908888888888885,0)" xlink:href="#z"/><use transform="matrix(0.012222222222222221,0,0,0.012222222222222221,31.166666666666664,0)" xlink:href="#v"/><use transform="matrix(0.012222222222222221,0,0,0.012222222222222221,44.757777777777775,0)" xlink:href="#F"/></g><g id="h"><use transform="matrix(0.012222222222222221,0,0,0.012222222222222221,0,0)" xlink:href="#r"/><use transform="matrix(0.012222222222222221,0,0,0.012222222222222221,18.406666666666666,0)" xlink:href="#k"/><use transform="matrix(0.012222222222222221,0,0,0.012222222222222221,31.997777777777774,0)" xlink:href="#B"/><use transform="matrix(0.012222222222222221,0,0,0.012222222222222221,50.722222222222214,0)" xlink:href="#v"/></g></defs></g></svg>
