<svg xmlns="http://www.w3.org/2000/svg" xmlns:xlink="http://www.w3.org/1999/xlink" xmlns:lucid="lucid" width="1450" height="1222"><g transform="translate(-1375 -836)" lucid:page-tab-id="0_0"><path d="M0 0h8868.24v3528H0z" fill="#fff"/><path d="M1440 910.6a8 8 0 0 1 8-8h1284a8 8 0 0 1 8 8v1073.8a8 8 0 0 1-8 8H1448a8 8 0 0 1-8-8z" stroke="#979ea8" stroke-width="3" fill="#fff"/><path d="M1441.84 910.6a8 8 0 0 1 8-8H2372a8 8 0 0 1 8 8v90a8 8 0 0 1-8 8h-922.16a8 8 0 0 1-8-8z" stroke="#000" stroke-opacity="0" fill="#fff" fill-opacity="0"/><use xlink:href="#a" transform="matrix(1,0,0,1,1446.8349870066972,907.6064401692696) translate(77.54166666666669 59.9)"/><use xlink:href="#b" transform="matrix(1,0,0,1,1446.8349870066972,907.6064401692696) translate(204.12500000000006 59.9)"/><use xlink:href="#c" transform="matrix(1,0,0,1,1446.8349870066972,907.6064401692696) translate(320.1916666666667 59.9)"/><use xlink:href="#d" transform="matrix(1,0,0,1,1446.8349870066972,907.6064401692696) translate(385.95833333333337 59.9)"/><use xlink:href="#e" transform="matrix(1,0,0,1,1446.8349870066972,907.6064401692696) translate(496.5083333333334 59.9)"/><use xlink:href="#f" transform="matrix(1,0,0,1,1446.8349870066972,907.6064401692696) translate(558.3416666666667 59.9)"/><use xlink:href="#g" transform="matrix(1,0,0,1,1446.8349870066972,907.6064401692696) translate(760.6583333333333 59.9)"/><path d="M1700 1135h300v105h-300z" stroke="#9391ff" stroke-width="3" fill="#9391ff" fill-opacity=".7"/><use xlink:href="#h" transform="matrix(1,0,0,1,1700,1135) translate(39.55400000000006 64.84391666666664)"/><path d="M1836 1279h300v105h-300z" stroke="#ba23f6" stroke-width="3" fill="#ba23f6" fill-opacity=".42"/><use xlink:href="#i" transform="matrix(1,0,0,1,1836,1279) translate(95.72511111111113 64.84391666666664)"/><path d="M1972 1423h300v105h-300z" stroke="#00c2a8" stroke-width="3" fill="#00c2a8" fill-opacity=".61"/><use xlink:href="#j" transform="matrix(1,0,0,1,1972,1423) translate(25.099777777777845 64.84391666666664)"/><path d="M2108 1567h300v105h-300z" stroke="#ba23f6" stroke-width="3" fill="#ba23f6" fill-opacity=".42"/><use xlink:href="#k" transform="matrix(1,0,0,1,2108,1567) translate(85.24222222222225 64.84391666666664)"/><path d="M2244 1711h300v105h-300z" stroke="#9391ff" stroke-width="3" fill="#9391ff" fill-opacity=".7"/><use xlink:href="#l" transform="matrix(1,0,0,1,2244,1711) translate(53.14955555555561 64.84391666666664)"/><path d="M2380 1855h300v105h-300z" stroke="#00c2a8" stroke-width="3" fill="#00c2a8" fill-opacity=".61"/><use xlink:href="#m" transform="matrix(1,0,0,1,2380,1855) translate(47.21044444444449 64.84391666666664)"/><path d="M2003 1187.5h76.5a12 12 0 0 1 12 12v57.38" stroke="#6f7681" stroke-width="3" fill="none"/><path d="M2003.04 1189h-1.54v-3h1.54z" stroke="#6f7681" stroke-width=".05" fill="#6f7681"/><path d="M2091.5 1272.65l-4.64-14.27h9.28z" stroke="#6f7681" stroke-width="3" fill="#6f7681"/><path d="M1833 1331.5h-76.5a12 12 0 0 1-12-12v-57.38" stroke="#6f7681" stroke-width="3" fill="none"/><path d="M1834.5 1333h-1.54v-3h1.54z" stroke="#6f7681" stroke-width=".05" fill="#6f7681"/><path d="M1744.5 1246.35l4.63 14.27h-9.27z" stroke="#6f7681" stroke-width="3" fill="#6f7681"/><path d="M2139 1331.5h76.5a12 12 0 0 1 12 12v57.38" stroke="#333" stroke-width="3" fill="none"/><path d="M2139.04 1333h-1.54v-3h1.54z" stroke="#333" stroke-width=".05" fill="#333"/><path d="M2227.5 1416.65l-4.64-14.27h9.28z" stroke="#333" stroke-width="3" fill="#333"/><path d="M1969 1475.5h-76.5a12 12 0 0 1-12-12v-57.38" stroke="#6f7681" stroke-width="3" fill="none"/><path d="M1970.5 1477h-1.54v-3h1.54z" stroke="#6f7681" stroke-width=".05" fill="#6f7681"/><path d="M1880.5 1390.35l4.63 14.27h-9.27z" stroke="#6f7681" stroke-width="3" fill="#6f7681"/><path d="M2275 1475.5h51.02a12 12 0 0 1 12 12v57.38" stroke="#6f7681" stroke-width="3" fill="none"/><path d="M2275.04 1477h-1.54v-3h1.54z" stroke="#6f7681" stroke-width=".05" fill="#6f7681"/><path d="M2338.02 1560.65l-4.63-14.27h9.26z" stroke="#6f7681" stroke-width="3" fill="#6f7681"/><path d="M2105 1619.5h-76.5a12 12 0 0 1-12-12v-57.38" stroke="#6f7681" stroke-width="3" fill="none"/><path d="M2106.5 1621h-1.54v-3h1.54z" stroke="#6f7681" stroke-width=".05" fill="#6f7681"/><path d="M2016.5 1534.35l4.63 14.27h-9.27z" stroke="#6f7681" stroke-width="3" fill="#6f7681"/><path d="M2411 1619.5h40.2a12 12 0 0 1 12 12v57.38" stroke="#6f7681" stroke-width="3" fill="none"/><path d="M2411.04 1621h-1.54v-3h1.54z" stroke="#6f7681" stroke-width=".05" fill="#6f7681"/><path d="M2463.2 1704.65l-4.62-14.27h9.27z" stroke="#6f7681" stroke-width="3" fill="#6f7681"/><path d="M2241 1763.5h-76.5a12 12 0 0 1-12-12v-57.38" stroke="#6f7681" stroke-width="3" fill="none"/><path d="M2242.5 1765h-1.54v-3h1.54z" stroke="#6f7681" stroke-width=".05" fill="#6f7681"/><path d="M2152.5 1678.35l4.64 14.27h-9.28z" stroke="#6f7681" stroke-width="3" fill="#6f7681"/><path d="M2547 1763.5h76.5a12 12 0 0 1 12 12v57.38" stroke="#6f7681" stroke-width="3" fill="none"/><path d="M2547.04 1765h-1.54v-3h1.54z" stroke="#6f7681" stroke-width=".05" fill="#6f7681"/><path d="M2635.5 1848.65l-4.64-14.27h9.28z" stroke="#6f7681" stroke-width="3" fill="#6f7681"/><path d="M2377 1907.5h-76.5a12 12 0 0 1-12-12v-57.38" stroke="#6f7681" stroke-width="3" fill="none"/><path d="M2378.5 1909h-1.54v-3h1.54z" stroke="#6f7681" stroke-width=".05" fill="#6f7681"/><path d="M2288.5 1822.35l4.64 14.27h-9.28z" stroke="#6f7681" stroke-width="3" fill="#6f7681"/><defs><path fill="#3a414a" d="M1187-985c0 329-222 471-561 476H424V0H155v-1446h471c337 4 561 134 561 461zm-269 0c0-176-112-253-292-253H424v519h202c184-1 292-85 292-266" id="n"/><path fill="#3a414a" d="M604-806c-122 5-180 74-225 167V0H132v-1026c83 11 206-35 218 62l15 124c63-106 147-205 295-205 51 0 93 12 126 35l-32 185c-4 23-15 33-40 33-33 0-65-16-110-14" id="o"/><path fill="#3a414a" d="M361-1005c121-49 297-49 417 0 184 74 298 236 298 490 0 330-178 530-506 530C241 15 61-185 61-515c0-254 115-416 300-490zm-45 492c0 201 65 338 254 338 188 0 251-137 251-338s-63-340-251-340c-189 0-254 139-254 340" id="p"/><path fill="#3a414a" d="M502-1045c120-1 193 43 256 101v-542h247V0c-80-9-199 29-214-45l-20-99C693-58 601 15 441 15 163 15 61-217 61-510c0-241 98-411 259-494 54-27 115-41 182-41zM316-510c0 181 36 329 209 329 118 0 173-54 233-123v-460c-48-59-104-93-198-93-188 0-244 151-244 347" id="q"/><path fill="#3a414a" d="M457 16c-234 0-346-155-346-390v-652h247v652c0 121 55 198 174 197 102-1 168-51 226-107v-742h247V0c-80-9-199 29-214-45l-17-82C697-50 608 16 457 16" id="r"/><path fill="#3a414a" d="M928-153C839-49 712 15 524 15c-227 0-358-131-424-305-47-123-49-306-4-434 67-190 213-318 465-318 165 0 270 58 357 143-29 37-52 81-86 112-71 26-104-41-170-55-24-5-52-12-86-12-192 5-260 143-260 339 0 194 67 336 254 342 98 3 148-38 200-79 26-20 67-17 87 9" id="s"/><path fill="#3a414a" d="M738-75c-64 55-158 90-269 91-176 2-277-109-277-284v-573c-65-4-153 21-153-52v-98l165-27 52-280c10-66 115-35 183-42v323h270v176H439v556c-1 59 32 101 88 102 48 1 68-25 104-34 19 1 25 9 33 22" id="t"/><g id="a"><use transform="matrix(0.016666666666666666,0,0,0.016666666666666666,0,0)" xlink:href="#n"/><use transform="matrix(0.016666666666666666,0,0,0.016666666666666666,20.833333333333332,0)" xlink:href="#o"/><use transform="matrix(0.016666666666666666,0,0,0.016666666666666666,34.45,0)" xlink:href="#p"/><use transform="matrix(0.016666666666666666,0,0,0.016666666666666666,53.400000000000006,0)" xlink:href="#q"/><use transform="matrix(0.016666666666666666,0,0,0.016666666666666666,72.4,0)" xlink:href="#r"/><use transform="matrix(0.016666666666666666,0,0,0.016666666666666666,91.35000000000001,0)" xlink:href="#s"/><use transform="matrix(0.016666666666666666,0,0,0.016666666666666666,107.25000000000001,0)" xlink:href="#t"/></g><path fill="#3a414a" d="M7-1026h196c35-1 64 19 71 46 60 241 137 465 181 722 68-246 151-481 220-724 17-60 103-44 175-46 35-1 61 20 69 46 70 242 148 477 212 725 47-256 125-482 189-723 21-78 165-35 255-46L1250 0h-199c-21 0-37-15-46-44-67-218-136-432-201-652-5-20-10-39-13-58-8 41-17 80-29 119L575-44c-9 29-27 44-54 44H332" id="u"/><path fill="#3a414a" d="M605-850c-102 1-168 52-226 108V0H132v-1026c80 9 198-29 214 45l17 81c77-76 165-142 317-142 235 0 346 154 346 389V0H779v-653c0-121-55-198-174-197" id="v"/><path fill="#3a414a" d="M991-153C899-47 760 15 568 15 237 15 63-197 63-535c0-237 116-392 287-467 61-27 129-40 206-40 287 0 444 174 444 465 0 54-3 95-57 95H309c4 226 158 349 385 292 52-13 93-39 132-62 32-19 73-16 93 9zM778-631c-4-143-73-234-217-234-154 0-226 95-247 234h464" id="w"/><path fill="#3a414a" d="M221-3C132-8 80-62 80-152c0-85 58-133 145-135 137-3 173 141 135 270-37 126-112 227-205 301-28-24-89-65-42-112 45-45 92-100 108-175" id="x"/><g id="b"><use transform="matrix(0.016666666666666666,0,0,0.016666666666666666,0,0)" xlink:href="#p"/><use transform="matrix(0.016666666666666666,0,0,0.016666666666666666,18.95,0)" xlink:href="#u"/><use transform="matrix(0.016666666666666666,0,0,0.016666666666666666,45.31666666666666,0)" xlink:href="#v"/><use transform="matrix(0.016666666666666666,0,0,0.016666666666666666,64.26666666666667,0)" xlink:href="#w"/><use transform="matrix(0.016666666666666666,0,0,0.016666666666666666,82.08333333333333,0)" xlink:href="#o"/><use transform="matrix(0.016666666666666666,0,0,0.016666666666666666,95.69999999999999,0)" xlink:href="#x"/></g><path fill="#3a414a" d="M376-1057c5 39 7 82 7 123V0H146v-1446c85 3 182-6 258 6 17 7 27 20 36 37l432 803c23 42 41 90 60 136 19-47 38-95 61-138l428-801c15-33 41-43 90-43h203V0h-237c1-330-2-664 1-991 1-21 3-42 5-63l-437 820c-22 44-63 63-132 59-48-3-77-26-95-59" id="y"/><g id="c"><use transform="matrix(0.016666666666666666,0,0,0.016666666666666666,0,0)" xlink:href="#n"/><use transform="matrix(0.016666666666666666,0,0,0.016666666666666666,20.833333333333332,0)" xlink:href="#y"/><use transform="matrix(0.016666666666666666,0,0,0.016666666666666666,51.83333333333332,0)" xlink:href="#x"/></g><path fill="#3a414a" d="M254-198c95 60 334 64 323-83-9-119-156-122-253-159C192-490 72-550 72-729c0-214 163-309 387-313 145-3 264 55 338 127-26 36-45 82-77 111-69 21-111-33-176-48-103-23-247 0-238 102 11 114 156 118 251 155 126 49 251 100 251 270C808-59 575 48 294 6 192-9 106-54 42-110c28-39 43-95 83-120 49-31 96 11 129 32" id="z"/><path fill="#3a414a" d="M395-1026V0H148v-1026h247zm-123-457c96 0 160 62 160 158 0 94-65 155-160 155-93 0-156-62-156-155 0-95 61-158 156-158" id="A"/><path fill="#3a414a" d="M247-436C153-487 80-575 80-712c0-228 174-332 407-332 92 0 169 20 230 53h295c-4 63 19 133-53 146l-92 17c30 74 25 184-9 254-72 146-265 223-484 183-51 27-68 81-20 111 145 54 395 5 528 91 60 38 108 95 104 193-8 182-136 275-286 326-172 59-444 28-556-52C83 234 32 179 32 90c0-112 77-164 166-199-49-28-87-70-84-147 4-94 65-143 133-180zm247 621c132 0 252-20 264-139-10-98-129-93-228-102-63-6-132-5-191-13-47 27-93 62-93 127 0 112 123 127 248 127zM305-706c0 111 68 168 182 168s182-56 182-168c0-107-68-165-182-165s-182 58-182 165" id="B"/><g id="d"><use transform="matrix(0.016666666666666666,0,0,0.016666666666666666,0,0)" xlink:href="#q"/><use transform="matrix(0.016666666666666666,0,0,0.016666666666666666,19,0)" xlink:href="#w"/><use transform="matrix(0.016666666666666666,0,0,0.016666666666666666,36.81666666666666,0)" xlink:href="#z"/><use transform="matrix(0.016666666666666666,0,0,0.016666666666666666,51.383333333333326,0)" xlink:href="#A"/><use transform="matrix(0.016666666666666666,0,0,0.016666666666666666,60.41666666666666,0)" xlink:href="#B"/><use transform="matrix(0.016666666666666666,0,0,0.016666666666666666,77.66666666666666,0)" xlink:href="#v"/><use transform="matrix(0.016666666666666666,0,0,0.016666666666666666,96.61666666666666,0)" xlink:href="#x"/></g><path fill="#3a414a" d="M556-1045c246 0 380 151 380 397V0c-79-6-181 23-196-53l-22-73C630-49 541 18 379 16 194 13 81-77 81-262c0-184 152-247 321-292 78-21 176-31 293-34 10-155-29-262-170-262-104 0-161 40-224 77-47 28-107 5-127-31l-45-79c118-108 260-162 427-162zM317-275c-3 86 56 121 139 121 117 0 179-51 239-111v-173c-122 6-219 17-297 53-49 22-79 51-81 110" id="C"/><g id="e"><use transform="matrix(0.016666666666666666,0,0,0.016666666666666666,0,0)" xlink:href="#C"/><use transform="matrix(0.016666666666666666,0,0,0.016666666666666666,17.45,0)" xlink:href="#v"/><use transform="matrix(0.016666666666666666,0,0,0.016666666666666666,36.4,0)" xlink:href="#q"/></g><path fill="#3a414a" d="M646 0H422L14-1026h205c36-1 62 20 71 46 75 215 159 421 226 642 9 30 15 61 21 92 13-66 27-126 50-186l203-548c9-25 34-46 68-46h195" id="D"/><path fill="#3a414a" d="M395-1486V0H148v-1486h247" id="E"/><path fill="#3a414a" d="M635 15C514 15 442-25 379-85v420H132v-1361c64 5 145-11 192 11 33 24 28 86 42 129 78-86 174-159 331-159 277 0 379 232 379 524 0 241-96 412-258 495-54 27-116 41-183 41zm186-536c0-181-37-329-209-329-117 0-175 55-233 124v460c48 60 104 93 198 93 188 0 244-152 244-348" id="F"/><path fill="#3a414a" d="M565-850c-86 0-140 48-186 99V0H132v-1026c80 9 198-29 214 45l16 76c67-72 141-136 276-137 139-1 214 86 253 192 57-117 162-192 328-192 240 0 354 147 354 389V0h-247v-653c1-123-52-197-169-197s-180 76-180 197V0H729v-653c0-127-46-197-164-197" id="G"/><g id="f"><use transform="matrix(0.016666666666666666,0,0,0.016666666666666666,0,0)" xlink:href="#q"/><use transform="matrix(0.016666666666666666,0,0,0.016666666666666666,19,0)" xlink:href="#w"/><use transform="matrix(0.016666666666666666,0,0,0.016666666666666666,36.266666666666666,0)" xlink:href="#D"/><use transform="matrix(0.016666666666666666,0,0,0.016666666666666666,53.5,0)" xlink:href="#w"/><use transform="matrix(0.016666666666666666,0,0,0.016666666666666666,71.31666666666666,0)" xlink:href="#E"/><use transform="matrix(0.016666666666666666,0,0,0.016666666666666666,80.35,0)" xlink:href="#p"/><use transform="matrix(0.016666666666666666,0,0,0.016666666666666666,99.3,0)" xlink:href="#F"/><use transform="matrix(0.016666666666666666,0,0,0.016666666666666666,118.14999999999999,0)" xlink:href="#G"/><use transform="matrix(0.016666666666666666,0,0,0.016666666666666666,146.21666666666667,0)" xlink:href="#w"/><use transform="matrix(0.016666666666666666,0,0,0.016666666666666666,164.03333333333333,0)" xlink:href="#v"/><use transform="matrix(0.016666666666666666,0,0,0.016666666666666666,182.98333333333332,0)" xlink:href="#t"/></g><g id="g"><use transform="matrix(0.016666666666666666,0,0,0.016666666666666666,0,0)" xlink:href="#t"/><use transform="matrix(0.016666666666666666,0,0,0.016666666666666666,12.9,0)" xlink:href="#w"/><use transform="matrix(0.016666666666666666,0,0,0.016666666666666666,30.71666666666667,0)" xlink:href="#C"/><use transform="matrix(0.016666666666666666,0,0,0.016666666666666666,48.16666666666667,0)" xlink:href="#G"/><use transform="matrix(0.016666666666666666,0,0,0.016666666666666666,76.23333333333333,0)" xlink:href="#z"/></g><path fill="#333" d="M1124-1036c0 240-152 355-353 406 24 14 45 35 64 61L1253 0c-92-9-205 21-250-41L631-553c-24-32-41-45-97-45H387V0H194v-1433h405c307 3 525 101 525 397zm-189 14c0-188-133-258-336-258H387v541h203c205-3 345-85 345-283" id="H"/><path fill="#333" d="M954-142C850-8 572 61 364-22 180-96 74-268 74-527c0-234 108-389 275-463 59-26 125-39 198-39 273 0 420 174 420 453 0 48-2 70-43 70H250c8 226 98 375 322 380 114 2 191-38 258-82 70-46 94 37 124 66zM807-617c-5-171-86-278-256-281-181-3-273 116-295 281h551" id="I"/><path fill="#333" d="M510-1031c142 0 220 55 289 134 10-46 3-116 60-116h106V343H787v-493C708-62 611 14 455 14 173 14 72-209 72-503c0-237 94-406 254-487 54-27 115-41 184-41zM256-503c2 212 53 373 258 373 136 0 207-69 273-153v-490c-56-74-122-119-237-119-208 0-296 164-294 389" id="J"/><path fill="#333" d="M461 16c-231 0-339-149-339-383v-646h178v646c0 148 67 243 213 241 125-2 207-66 274-140v-747h178V0c-60-6-146 22-154-37l-14-109C716-60 619 16 461 16" id="K"/><path fill="#333" d="M344-1013V0H166v-1013h178zm-88-446c77 0 128 52 128 128 0 75-52 126-128 126-75 0-126-51-126-126 0-76 50-128 126-128" id="L"/><path fill="#333" d="M584-856c-148 6-210 94-260 211V0H146v-1013c62 7 151-25 157 49l12 158c66-138 184-259 384-216 23 5 44 16 63 27l-23 133c-5 17-15 25-31 25-36 0-71-21-124-19" id="M"/><path fill="#333" d="M550-887c-107 0-172 65-226 132V0H146v-1013c60 6 147-22 154 37l13 104c69-80 148-156 287-157 148-1 223 92 258 211 51-126 153-211 323-211 232 0 338 149 338 384V0h-178v-645c1-148-62-242-203-242-142 0-218 94-218 242V0H742v-645c1-149-54-242-192-242" id="N"/><path fill="#333" d="M598-887c-125 2-207 68-274 141V0H146v-1013c60 6 147-22 154 37l14 110c82-87 177-163 336-163 232 0 339 151 339 384V0H811v-645c0-149-65-244-213-242" id="O"/><path fill="#333" d="M698-76c-54 52-145 92-245 92-162 1-249-96-249-260v-620c-58-9-160 26-160-39v-71l166-21 41-313c4-50 80-30 131-34v349h290v129H382v608c-2 78 40 125 111 126 60 2 88-33 128-48 9 0 18 6 25 17" id="P"/><path fill="#333" d="M409-112c121-3 207-52 207-167 0-134-157-142-264-181-133-48-263-98-263-275 0-197 153-290 360-294 139-3 243 49 317 118-26 35-46 114-111 76-53-31-114-63-202-61-108 3-195 44-195 147 0 129 158 136 262 175 128 48 263 93 263 264C783-89 627 12 400 16 255 19 139-39 62-107c27-41 57-128 128-81 57 38 118 78 219 76" id="Q"/><g id="h"><use transform="matrix(0.01788888888888888,0,0,0.01788888888888888,0,0)" xlink:href="#H"/><use transform="matrix(0.01788888888888888,0,0,0.01788888888888888,23.04088888888888,0)" xlink:href="#I"/><use transform="matrix(0.01788888888888888,0,0,0.01788888888888888,41.78844444444443,0)" xlink:href="#J"/><use transform="matrix(0.01788888888888888,0,0,0.01788888888888888,61.78822222222219,0)" xlink:href="#K"/><use transform="matrix(0.01788888888888888,0,0,0.01788888888888888,81.68066666666664,0)" xlink:href="#L"/><use transform="matrix(0.01788888888888888,0,0,0.01788888888888888,90.83977777777773,0)" xlink:href="#M"/><use transform="matrix(0.01788888888888888,0,0,0.01788888888888888,105.25822222222216,0)" xlink:href="#I"/><use transform="matrix(0.01788888888888888,0,0,0.01788888888888888,124.00577777777771,0)" xlink:href="#N"/><use transform="matrix(0.01788888888888888,0,0,0.01788888888888888,153.37933333333322,0)" xlink:href="#I"/><use transform="matrix(0.01788888888888888,0,0,0.01788888888888888,172.12688888888883,0)" xlink:href="#O"/><use transform="matrix(0.01788888888888888,0,0,0.01788888888888888,192.01933333333326,0)" xlink:href="#P"/><use transform="matrix(0.01788888888888888,0,0,0.01788888888888888,205.36444444444433,0)" xlink:href="#Q"/></g><path fill="#333" d="M1365-1009c68 170 68 416 0 586C1264-171 1053 0 710 0H174v-1433h536c343 5 555 172 655 424zM710-157c338-11 507-216 507-559s-169-560-507-560H369v1119h341" id="R"/><path fill="#333" d="M103-704c0-220 160-326 384-326 92 0 169 21 228 57h275c-2 53 13 100-42 108l-115 16c43 79 45 196 5 279-58 120-176 191-351 193-47 0-92-6-134-17-50 22-100 108-36 142 165 88 511-13 621 164 40 65 36 170-4 240-77 134-229 213-441 213-193 0-343-50-415-167-19-32-28-66-28-101 3-117 84-175 178-211-54-27-98-64-94-143 4-90 64-137 129-173-91-51-160-139-160-274zM334-85C254-53 162 38 224 138c97 157 586 133 579-83C799-63 659-58 543-68c-70-6-146-6-209-17zm-67-614c0 134 84 204 220 204 137 0 221-69 221-204 0-129-85-203-221-203-135 0-220 74-220 203" id="S"/><g id="i"><use transform="matrix(0.01788888888888888,0,0,0.01788888888888888,0,0)" xlink:href="#R"/><use transform="matrix(0.01788888888888888,0,0,0.01788888888888888,26.940666666666655,0)" xlink:href="#I"/><use transform="matrix(0.01788888888888888,0,0,0.01788888888888888,45.6882222222222,0)" xlink:href="#Q"/><use transform="matrix(0.01788888888888888,0,0,0.01788888888888888,61.21577777777775,0)" xlink:href="#L"/><use transform="matrix(0.01788888888888888,0,0,0.01788888888888888,70.37488888888886,0)" xlink:href="#S"/><use transform="matrix(0.01788888888888888,0,0,0.01788888888888888,88.6573333333333,0)" xlink:href="#O"/></g><path fill="#333" d="M404 0H210v-1433h194V0" id="T"/><path fill="#333" d="M602 14c-133 0-212-47-278-119v448H146v-1356c60 6 147-22 154 37l15 120c80-93 179-175 341-175 282 0 383 224 383 518 0 237-92 406-253 487-54 27-116 40-184 40zm253-527c-3-212-53-374-258-374-136 0-207 69-273 153v490c57 77 121 120 238 120 207 0 295-164 293-389" id="U"/><path fill="#333" d="M344-1473V0H166v-1473h178" id="V"/><path fill="#333" d="M537-1031c235 0 353 147 353 383V0c-58-5-129 17-142-42l-20-94C637-55 545 19 375 16 200 13 92-76 92-253c0-184 160-243 332-285 79-19 176-28 291-31 12-184-31-318-200-318-113 0-181 45-243 91-36 26-82 14-99-17l-32-57c101-96 215-161 396-161zM263-261c0 103 62 152 165 152 140 0 216-64 287-136v-211c-141 4-258 19-349 60-60 27-103 62-103 135" id="W"/><path fill="#333" d="M1038-507c0 321-164 521-482 521S72-187 72-507c0-248 107-410 284-485 60-25 126-37 200-37 317 0 482 201 482 522zm-782 1c0 225 80 381 300 381 213 0 298-159 298-381 0-223-84-383-298-383-221 0-300 158-300 383" id="X"/><g id="j"><use transform="matrix(0.01788888888888888,0,0,0.01788888888888888,0,0)" xlink:href="#T"/><use transform="matrix(0.01788888888888888,0,0,0.01788888888888888,10.983777777777773,0)" xlink:href="#N"/><use transform="matrix(0.01788888888888888,0,0,0.01788888888888888,40.357333333333315,0)" xlink:href="#U"/><use transform="matrix(0.01788888888888888,0,0,0.01788888888888888,60.10666666666664,0)" xlink:href="#V"/><use transform="matrix(0.01788888888888888,0,0,0.01788888888888888,69.26577777777774,0)" xlink:href="#I"/><use transform="matrix(0.01788888888888888,0,0,0.01788888888888888,88.01333333333329,0)" xlink:href="#N"/><use transform="matrix(0.01788888888888888,0,0,0.01788888888888888,117.38688888888883,0)" xlink:href="#I"/><use transform="matrix(0.01788888888888888,0,0,0.01788888888888888,136.13444444444437,0)" xlink:href="#O"/><use transform="matrix(0.01788888888888888,0,0,0.01788888888888888,156.02688888888878,0)" xlink:href="#P"/><use transform="matrix(0.01788888888888888,0,0,0.01788888888888888,169.3719999999999,0)" xlink:href="#W"/><use transform="matrix(0.01788888888888888,0,0,0.01788888888888888,187.51133333333323,0)" xlink:href="#P"/><use transform="matrix(0.01788888888888888,0,0,0.01788888888888888,200.85644444444432,0)" xlink:href="#L"/><use transform="matrix(0.01788888888888888,0,0,0.01788888888888888,210.01555555555544,0)" xlink:href="#X"/><use transform="matrix(0.01788888888888888,0,0,0.01788888888888888,229.90799999999987,0)" xlink:href="#O"/></g><path fill="#333" d="M1150-1433v163H687V0H493v-1270H28v-163h1122" id="Y"/><path fill="#333" d="M161 21C140 84 75 97-12 90l601-1497c18-62 84-72 169-66" id="Z"/><path fill="#333" d="M1045-23C887 31 660 27 510-38 260-146 92-368 92-716s168-572 418-679c168-72 408-72 576 0 251 108 419 330 419 679 0 297-122 491-301 615l368 397c-103-5-219 16-275-45zM798-153c339 0 508-219 508-563 0-268-108-446-298-526-121-52-298-52-419 0-190 80-299 258-299 526s109 444 299 524c63 26 132 39 209 39" id="aa"/><path fill="#333" d="M1353 0h-150c-36 0-55-21-66-46l-134-346H360L226-46c-9 23-33 46-66 46H10l573-1433h197zM414-532h535l-225-583c-15-36-29-81-43-135-13 48-26 95-42 136" id="ab"/><g id="k"><use transform="matrix(0.01788888888888888,0,0,0.01788888888888888,0,0)" xlink:href="#Y"/><use transform="matrix(0.01788888888888888,0,0,0.01788888888888888,17.352222222222217,0)" xlink:href="#I"/><use transform="matrix(0.01788888888888888,0,0,0.01788888888888888,36.09977777777776,0)" xlink:href="#Q"/><use transform="matrix(0.01788888888888888,0,0,0.01788888888888888,51.62733333333331,0)" xlink:href="#P"/><use transform="matrix(0.01788888888888888,0,0,0.01788888888888888,64.97244444444442,0)" xlink:href="#Z"/><use transform="matrix(0.01788888888888888,0,0,0.01788888888888888,77.3873333333333,0)" xlink:href="#aa"/><use transform="matrix(0.01788888888888888,0,0,0.01788888888888888,105.18666666666662,0)" xlink:href="#ab"/></g><path fill="#333" d="M443 299c-13 26-25 44-64 44H247L432-59 14-1013h154c30-1 46 18 55 37 95 228 197 450 287 682 6 14 8 30 11 45 10-32 18-60 30-90l263-637c18-60 124-30 194-37" id="ac"/><g id="l"><use transform="matrix(0.01788888888888888,0,0,0.01788888888888888,0,0)" xlink:href="#R"/><use transform="matrix(0.01788888888888888,0,0,0.01788888888888888,26.940666666666655,0)" xlink:href="#I"/><use transform="matrix(0.01788888888888888,0,0,0.01788888888888888,45.6882222222222,0)" xlink:href="#U"/><use transform="matrix(0.01788888888888888,0,0,0.01788888888888888,65.43755555555552,0)" xlink:href="#V"/><use transform="matrix(0.01788888888888888,0,0,0.01788888888888888,74.59666666666662,0)" xlink:href="#X"/><use transform="matrix(0.01788888888888888,0,0,0.01788888888888888,94.02399999999994,0)" xlink:href="#ac"/><use transform="matrix(0.01788888888888888,0,0,0.01788888888888888,112.34222222222216,0)" xlink:href="#N"/><use transform="matrix(0.01788888888888888,0,0,0.01788888888888888,141.7157777777777,0)" xlink:href="#I"/><use transform="matrix(0.01788888888888888,0,0,0.01788888888888888,160.46333333333325,0)" xlink:href="#O"/><use transform="matrix(0.01788888888888888,0,0,0.01788888888888888,180.3557777777777,0)" xlink:href="#P"/></g><path fill="#333" d="M338-1150c4 31 6 65 6 97V0H174v-1433c59 2 132-6 183 5 10 2 18 13 27 28l495 882c19 31 31 68 45 104 14-38 27-71 46-105l485-881c25-58 137-23 210-33V0h-170c2-381-5-772 4-1147l-491 896c-27 62-134 61-168 0" id="ad"/><path fill="#333" d="M895-142C799-8 539 62 344-21 173-94 74-262 74-507c0-317 160-522 477-522 151 0 254 54 333 132-21 26-39 58-63 81-42 20-68-19-100-34-42-20-91-42-160-40-219 6-304 160-304 383 0 220 82 376 295 383 106 4 169-38 223-84 22-19 53-21 70 1" id="ae"/><g id="m"><use transform="matrix(0.01788888888888888,0,0,0.01788888888888888,0,0)" xlink:href="#ad"/><use transform="matrix(0.01788888888888888,0,0,0.01788888888888888,32.91555555555554,0)" xlink:href="#W"/><use transform="matrix(0.01788888888888888,0,0,0.01788888888888888,51.05488888888887,0)" xlink:href="#L"/><use transform="matrix(0.01788888888888888,0,0,0.01788888888888888,60.21399999999998,0)" xlink:href="#O"/><use transform="matrix(0.01788888888888888,0,0,0.01788888888888888,80.1064444444444,0)" xlink:href="#P"/><use transform="matrix(0.01788888888888888,0,0,0.01788888888888888,93.45155555555552,0)" xlink:href="#I"/><use transform="matrix(0.01788888888888888,0,0,0.01788888888888888,112.19911111111107,0)" xlink:href="#O"/><use transform="matrix(0.01788888888888888,0,0,0.01788888888888888,132.0915555555555,0)" xlink:href="#W"/><use transform="matrix(0.01788888888888888,0,0,0.01788888888888888,150.2308888888888,0)" xlink:href="#O"/><use transform="matrix(0.01788888888888888,0,0,0.01788888888888888,170.12333333333325,0)" xlink:href="#ae"/><use transform="matrix(0.01788888888888888,0,0,0.01788888888888888,186.83155555555547,0)" xlink:href="#I"/></g></defs></g></svg>
