<svg xmlns="http://www.w3.org/2000/svg" xmlns:xlink="http://www.w3.org/1999/xlink" xmlns:lucid="lucid" width="853" height="429"><g transform="translate(-294 -1646)" lucid:page-tab-id="0_0"><path d="M0 0h1360v2792H0z" fill="#fff"/><path d="M354 1840.9a5.66 5.66 0 0 1 0-8l2.6-2.6a.83.83 0 0 1 1.4.6 2 2 0 0 0 2 2h680a2 2 0 0 0 2-2 .83.83 0 0 1 1.4-.6l2.6 2.6a5.66 5.66 0 0 1 0 8l-2.6 2.6a.83.83 0 0 1-1.4-.6 2 2 0 0 0-2-2H360a2 2 0 0 0-2 2 .83.83 0 0 1-1.4.6z" stroke="#979ea8" stroke-width="2" fill-opacity="0"/><path d="M332.94 1687.27a8 8 0 0 1 8-8h224a8 8 0 0 1 8 8v85.46a8 8 0 0 1-8 8h-224a8 8 0 0 1-8-8z" stroke="#000" stroke-opacity="0" fill="#fff" fill-opacity="0"/><use xlink:href="#a" transform="matrix(1,0,0,1,337.943380708069,1684.2666666666667) translate(60.972222222222214 24.808333333333334)"/><use xlink:href="#b" transform="matrix(1,0,0,1,337.943380708069,1684.2666666666667) translate(115 47.30766666666666)"/><use xlink:href="#c" transform="matrix(1,0,0,1,337.943380708069,1684.2666666666667) translate(27.961000000000013 68.90766666666667)"/><use xlink:href="#d" transform="matrix(1,0,0,1,337.943380708069,1684.2666666666667) translate(95.73100000000001 68.90766666666667)"/><use xlink:href="#e" transform="matrix(1,0,0,1,337.943380708069,1684.2666666666667) translate(182.023 68.90766666666667)"/><use xlink:href="#f" transform="matrix(1,0,0,1,337.943380708069,1684.2666666666667) translate(2.2930000000000064 90.50766666666667)"/><use xlink:href="#g" transform="matrix(1,0,0,1,337.943380708069,1684.2666666666667) translate(94.615 90.50766666666667)"/><use xlink:href="#h" transform="matrix(1,0,0,1,337.943380708069,1684.2666666666667) translate(110.743 90.50766666666667)"/><path d="M840 1689.8a8 8 0 0 1 8-8h224a8 8 0 0 1 8 8v102a8 8 0 0 1-8 8H848a8 8 0 0 1-8-8z" stroke="#000" stroke-opacity="0" fill="#fff" fill-opacity="0"/><use xlink:href="#i" transform="matrix(1,0,0,1,845,1686.8) translate(72.0611111111111 32.15208333333334)"/><use xlink:href="#b" transform="matrix(1,0,0,1,845,1686.8) translate(115 54.65141666666667)"/><use xlink:href="#j" transform="matrix(1,0,0,1,845,1686.8) translate(0.5470000000000255 76.25141666666667)"/><use xlink:href="#g" transform="matrix(1,0,0,1,845,1686.8) translate(96.361 76.25141666666667)"/><use xlink:href="#k" transform="matrix(1,0,0,1,845,1686.8) translate(112.489 76.25141666666667)"/><use xlink:href="#l" transform="matrix(1,0,0,1,845,1686.8) translate(44.57500000000002 97.85141666666667)"/><use xlink:href="#m" transform="matrix(1,0,0,1,845,1686.8) translate(87.36100000000002 97.85141666666667)"/><use xlink:href="#n" transform="matrix(1,0,0,1,845,1686.8) translate(146.041 97.85141666666667)"/><path d="M332.94 1878a8 8 0 0 1 8-8h224a8 8 0 0 1 8 8v44a8 8 0 0 1-8 8h-224a8 8 0 0 1-8-8z" stroke="#000" stroke-opacity="0" fill="#fff" fill-opacity="0"/><g><use xlink:href="#o" transform="matrix(1,0,0,1,337.94338070806907,1875) translate(54.21400000000001 33.391)"/><use xlink:href="#p" transform="matrix(1,0,0,1,337.94338070806907,1875) translate(116.83600000000001 33.391)"/></g><path d="M332.94 1998a8 8 0 0 1 8-8h224a8 8 0 0 1 8 8v44a8 8 0 0 1-8 8h-224a8 8 0 0 1-8-8z" stroke="#000" stroke-opacity="0" fill="#fff" fill-opacity="0"/><g><use xlink:href="#q" transform="matrix(1,0,0,1,337.94338070806907,1995) translate(29.680000000000007 33.391)"/><use xlink:href="#r" transform="matrix(1,0,0,1,337.94338070806907,1995) translate(67.894 33.391)"/><use xlink:href="#p" transform="matrix(1,0,0,1,337.94338070806907,1995) translate(141.37 33.391)"/></g><path d="M332.94 1938a8 8 0 0 1 8-8h224a8 8 0 0 1 8 8v44a8 8 0 0 1-8 8h-224a8 8 0 0 1-8-8z" stroke="#000" stroke-opacity="0" fill="#fff" fill-opacity="0"/><g><use xlink:href="#s" transform="matrix(1,0,0,1,337.94338070806907,1935) translate(67.435 33.391)"/><use xlink:href="#p" transform="matrix(1,0,0,1,337.94338070806907,1935) translate(103.615 33.391)"/></g><path d="M880 1878a8 8 0 0 1 8-8h224a8 8 0 0 1 8 8v44a8 8 0 0 1-8 8H888a8 8 0 0 1-8-8z" stroke="#000" stroke-opacity="0" fill="#fff" fill-opacity="0"/><g><use xlink:href="#t" transform="matrix(1,0,0,1,885,1875) translate(14.038000000000025 33.391)"/><use xlink:href="#u" transform="matrix(1,0,0,1,885,1875) translate(57.47200000000002 33.391)"/><use xlink:href="#v" transform="matrix(1,0,0,1,885,1875) translate(109.63600000000001 33.391)"/><use xlink:href="#w" transform="matrix(1,0,0,1,885,1875) translate(172.06 33.391)"/></g><path d="M760 1938a8 8 0 0 1 8-8h238.67a8 8 0 0 1 8 8v44a8 8 0 0 1-8 8H768a8 8 0 0 1-8-8z" stroke="#000" stroke-opacity="0" fill="#fff" fill-opacity="0"/><g><use xlink:href="#x" transform="matrix(1,0,0,1,765,1935) translate(10.747000000000028 33.391)"/><use xlink:href="#u" transform="matrix(1,0,0,1,765,1935) translate(72.055 33.391)"/><use xlink:href="#v" transform="matrix(1,0,0,1,765,1935) translate(124.21900000000001 33.391)"/><use xlink:href="#y" transform="matrix(1,0,0,1,765,1935) translate(186.64299999999997 33.391)"/></g><defs><path d="M1187-985c0 329-222 471-561 476H424V0H155v-1446h471c337 4 561 134 561 461zm-269 0c0-176-112-253-292-253H424v519h202c184-1 292-85 292-266" id="z"/><path d="M991-153C899-47 760 15 568 15 237 15 63-197 63-535c0-237 116-392 287-467 61-27 129-40 206-40 287 0 444 174 444 465 0 54-3 95-57 95H309c4 226 158 349 385 292 52-13 93-39 132-62 32-19 73-16 93 9zM778-631c-4-143-73-234-217-234-154 0-226 95-247 234h464" id="A"/><path d="M604-806c-122 5-180 74-225 167V0H132v-1026c83 11 206-35 218 62l15 124c63-106 147-205 295-205 51 0 93 12 126 35l-32 185c-4 23-15 33-40 33-33 0-65-16-110-14" id="B"/><path d="M565-850c-86 0-140 48-186 99V0H132v-1026c80 9 198-29 214 45l16 76c67-72 141-136 276-137 139-1 214 86 253 192 57-117 162-192 328-192 240 0 354 147 354 389V0h-247v-653c1-123-52-197-169-197s-180 76-180 197V0H729v-653c0-127-46-197-164-197" id="C"/><path d="M395-1026V0H148v-1026h247zm-123-457c96 0 160 62 160 158 0 94-65 155-160 155-93 0-156-62-156-155 0-95 61-158 156-158" id="D"/><path d="M254-198c95 60 334 64 323-83-9-119-156-122-253-159C192-490 72-550 72-729c0-214 163-309 387-313 145-3 264 55 338 127-26 36-45 82-77 111-69 21-111-33-176-48-103-23-247 0-238 102 11 114 156 118 251 155 126 49 251 100 251 270C808-59 575 48 294 6 192-9 106-54 42-110c28-39 43-95 83-120 49-31 96 11 129 32" id="E"/><path d="M646 0H422L14-1026h205c36-1 62 20 71 46 75 215 159 421 226 642 9 30 15 61 21 92 13-66 27-126 50-186l203-548c9-25 34-46 68-46h195" id="F"/><g id="a"><use transform="matrix(0.011111111111111112,0,0,0.011111111111111112,0,0)" xlink:href="#z"/><use transform="matrix(0.011111111111111112,0,0,0.011111111111111112,13.555555555555555,0)" xlink:href="#A"/><use transform="matrix(0.011111111111111112,0,0,0.011111111111111112,25.433333333333334,0)" xlink:href="#B"/><use transform="matrix(0.011111111111111112,0,0,0.011111111111111112,34.51111111111111,0)" xlink:href="#C"/><use transform="matrix(0.011111111111111112,0,0,0.011111111111111112,53.22222222222222,0)" xlink:href="#D"/><use transform="matrix(0.011111111111111112,0,0,0.011111111111111112,59.244444444444454,0)" xlink:href="#E"/><use transform="matrix(0.011111111111111112,0,0,0.011111111111111112,68.95555555555556,0)" xlink:href="#E"/><use transform="matrix(0.011111111111111112,0,0,0.011111111111111112,78.66666666666667,0)" xlink:href="#D"/><use transform="matrix(0.011111111111111112,0,0,0.011111111111111112,84.6888888888889,0)" xlink:href="#F"/><use transform="matrix(0.011111111111111112,0,0,0.011111111111111112,96.17777777777778,0)" xlink:href="#A"/></g><path d="M338-1150c4 31 6 65 6 97V0H174v-1433c59 2 132-6 183 5 10 2 18 13 27 28l495 882c19 31 31 68 45 104 14-38 27-71 46-105l485-881c25-58 137-23 210-33V0h-170c2-381-5-772 4-1147l-491 896c-27 62-134 61-168 0" id="G"/><path d="M344-1013V0H166v-1013h178zm-88-446c77 0 128 52 128 128 0 75-52 126-128 126-75 0-126-51-126-126 0-76 50-128 126-128" id="H"/><path d="M598-887c-125 2-207 68-274 141V0H146v-1013c60 6 147-22 154 37l14 110c82-87 177-163 336-163 232 0 339 151 339 384V0H811v-645c0-149-65-244-213-242" id="I"/><path d="M550-887c-107 0-172 65-226 132V0H146v-1013c60 6 147-22 154 37l13 104c69-80 148-156 287-157 148-1 223 92 258 211 51-126 153-211 323-211 232 0 338 149 338 384V0h-178v-645c1-148-62-242-203-242-142 0-218 94-218 242V0H742v-645c1-149-54-242-192-242" id="J"/><path d="M537-1031c235 0 353 147 353 383V0c-58-5-129 17-142-42l-20-94C637-55 545 19 375 16 200 13 92-76 92-253c0-184 160-243 332-285 79-19 176-28 291-31 12-184-31-318-200-318-113 0-181 45-243 91-36 26-82 14-99-17l-32-57c101-96 215-161 396-161zM263-261c0 103 62 152 165 152 140 0 216-64 287-136v-211c-141 4-258 19-349 60-60 27-103 62-103 135" id="K"/><path d="M344-1473V0H166v-1473h178" id="L"/><g id="c"><use transform="matrix(0.009,0,0,0.009,0,0)" xlink:href="#G"/><use transform="matrix(0.009,0,0,0.009,16.56,0)" xlink:href="#H"/><use transform="matrix(0.009,0,0,0.009,21.168,0)" xlink:href="#I"/><use transform="matrix(0.009,0,0,0.009,31.176,0)" xlink:href="#H"/><use transform="matrix(0.009,0,0,0.009,35.784,0)" xlink:href="#J"/><use transform="matrix(0.009,0,0,0.009,50.562,0)" xlink:href="#K"/><use transform="matrix(0.009,0,0,0.009,59.687999999999995,0)" xlink:href="#L"/></g><path d="M584-856c-148 6-210 94-260 211V0H146v-1013c62 7 151-25 157 49l12 158c66-138 184-259 384-216 23 5 44 16 63 27l-23 133c-5 17-15 25-31 25-36 0-71-21-124-19" id="M"/><path d="M954-142C850-8 572 61 364-22 180-96 74-268 74-527c0-234 108-389 275-463 59-26 125-39 198-39 273 0 420 174 420 453 0 48-2 70-43 70H250c8 226 98 375 322 380 114 2 191-38 258-82 70-46 94 37 124 66zM807-617c-5-171-86-278-256-281-181-3-273 116-295 281h551" id="N"/><path d="M409-112c121-3 207-52 207-167 0-134-157-142-264-181-133-48-263-98-263-275 0-197 153-290 360-294 139-3 243 49 317 118-26 35-46 114-111 76-53-31-114-63-202-61-108 3-195 44-195 147 0 129 158 136 262 175 128 48 263 93 263 264C783-89 627 12 400 16 255 19 139-39 62-107c27-41 57-128 128-81 57 38 118 78 219 76" id="O"/><path d="M698-76c-54 52-145 92-245 92-162 1-249-96-249-260v-620c-58-9-160 26-160-39v-71l166-21 41-313c4-50 80-30 131-34v349h290v129H382v608c-2 78 40 125 111 126 60 2 88-33 128-48 9 0 18 6 25 17" id="P"/><path d="M895-142C799-8 539 62 344-21 173-94 74-262 74-507c0-317 160-522 477-522 151 0 254 54 333 132-21 26-39 58-63 81-42 20-68-19-100-34-42-20-91-42-160-40-219 6-304 160-304 383 0 220 82 376 295 383 106 4 169-38 223-84 22-19 53-21 70 1" id="Q"/><path d="M1038-507c0 321-164 521-482 521S72-187 72-507c0-248 107-410 284-485 60-25 126-37 200-37 317 0 482 201 482 522zm-782 1c0 225 80 381 300 381 213 0 298-159 298-381 0-223-84-383-298-383-221 0-300 158-300 383" id="R"/><g id="d"><use transform="matrix(0.009,0,0,0.009,0,0)" xlink:href="#M"/><use transform="matrix(0.009,0,0,0.009,7.254,0)" xlink:href="#N"/><use transform="matrix(0.009,0,0,0.009,16.686,0)" xlink:href="#O"/><use transform="matrix(0.009,0,0,0.009,24.497999999999998,0)" xlink:href="#P"/><use transform="matrix(0.009,0,0,0.009,31.211999999999996,0)" xlink:href="#M"/><use transform="matrix(0.009,0,0,0.009,38.465999999999994,0)" xlink:href="#H"/><use transform="matrix(0.009,0,0,0.009,43.07399999999999,0)" xlink:href="#Q"/><use transform="matrix(0.009,0,0,0.009,51.47999999999999,0)" xlink:href="#P"/><use transform="matrix(0.009,0,0,0.009,58.19399999999999,0)" xlink:href="#H"/><use transform="matrix(0.009,0,0,0.009,62.801999999999985,0)" xlink:href="#R"/><use transform="matrix(0.009,0,0,0.009,72.80999999999999,0)" xlink:href="#I"/></g><g id="e"><use transform="matrix(0.009,0,0,0.009,0,0)" xlink:href="#R"/><use transform="matrix(0.009,0,0,0.009,10.008,0)" xlink:href="#I"/></g><path d="M510-1031c133 0 210 49 277 120v-562h178V0c-60-6-146 21-154-37l-16-123C716-67 616 14 455 14 173 14 72-209 72-503c0-237 94-406 254-487 54-27 115-41 184-41zM256-503c2 212 53 373 258 373 136 0 207-69 273-153v-490c-57-77-121-119-237-119-208 0-296 164-294 389" id="S"/><path d="M18-1013h146c28-1 47 18 55 37l257 652c18 45 27 93 37 143 12-50 22-98 40-143l260-652c17-60 123-30 192-37L592 0H431" id="T"/><g id="f"><use transform="matrix(0.009,0,0,0.009,0,0)" xlink:href="#S"/><use transform="matrix(0.009,0,0,0.009,10.062,0)" xlink:href="#N"/><use transform="matrix(0.009,0,0,0.009,19.494,0)" xlink:href="#M"/><use transform="matrix(0.009,0,0,0.009,26.747999999999998,0)" xlink:href="#H"/><use transform="matrix(0.009,0,0,0.009,31.355999999999998,0)" xlink:href="#T"/><use transform="matrix(0.009,0,0,0.009,40.571999999999996,0)" xlink:href="#K"/><use transform="matrix(0.009,0,0,0.009,49.69799999999999,0)" xlink:href="#P"/><use transform="matrix(0.009,0,0,0.009,56.412,0)" xlink:href="#H"/><use transform="matrix(0.009,0,0,0.009,61.01999999999999,0)" xlink:href="#R"/><use transform="matrix(0.009,0,0,0.009,71.02799999999999,0)" xlink:href="#I"/><use transform="matrix(0.009,0,0,0.009,81.03599999999999,0)" xlink:href="#O"/></g><path d="M275-1098c0-226 154-351 385-351 165 0 275 80 332 191 19 37 28 75 31 115-40 7-78 23-120 23-49 0-42-53-63-86-37-56-89-104-180-104-156 0-248 117-210 278 20 87 77 144 135 204l412 419c47-81 83-179 91-288 5-63 93-34 150-41-5 175-60 320-138 434L1400 0c-93-8-205 18-259-36L997-181C863-45 607 74 354-11 202-62 82-182 82-382c0-226 150-337 312-415-68-88-119-168-119-301zm201 392c-118 64-213 154-213 310 0 169 112 262 278 267 161 5 273-67 358-150" id="U"/><use transform="matrix(0.009,0,0,0.009,0,0)" xlink:href="#U" id="g"/><path d="M608 14c-142 0-221-61-286-144-9 50 6 130-55 130H152v-1473h179v606c78-87 176-162 331-162 283 0 384 222 384 516 0 237-93 406-254 487-54 27-116 40-184 40zm254-527c-2-212-53-374-258-374-136 0-207 69-273 153v490c56 77 120 120 237 120 208 0 296-164 294-389" id="V"/><path d="M461 16c-231 0-339-149-339-383v-646h178v646c0 148 67 243 213 241 125-2 207-66 274-140v-747h178V0c-60-6-146 22-154-37l-14-109C716-60 619 16 461 16" id="W"/><g id="h"><use transform="matrix(0.009,0,0,0.009,0,0)" xlink:href="#M"/><use transform="matrix(0.009,0,0,0.009,7.254,0)" xlink:href="#N"/><use transform="matrix(0.009,0,0,0.009,16.686,0)" xlink:href="#S"/><use transform="matrix(0.009,0,0,0.009,26.747999999999998,0)" xlink:href="#H"/><use transform="matrix(0.009,0,0,0.009,31.355999999999998,0)" xlink:href="#O"/><use transform="matrix(0.009,0,0,0.009,39.168,0)" xlink:href="#P"/><use transform="matrix(0.009,0,0,0.009,45.882,0)" xlink:href="#M"/><use transform="matrix(0.009,0,0,0.009,53.135999999999996,0)" xlink:href="#H"/><use transform="matrix(0.009,0,0,0.009,57.74399999999999,0)" xlink:href="#V"/><use transform="matrix(0.009,0,0,0.009,67.806,0)" xlink:href="#W"/><use transform="matrix(0.009,0,0,0.009,77.814,0)" xlink:href="#P"/><use transform="matrix(0.009,0,0,0.009,84.52799999999999,0)" xlink:href="#H"/><use transform="matrix(0.009,0,0,0.009,89.136,0)" xlink:href="#R"/><use transform="matrix(0.009,0,0,0.009,99.14399999999999,0)" xlink:href="#I"/><use transform="matrix(0.009,0,0,0.009,109.15199999999999,0)" xlink:href="#O"/></g><path d="M1284-209C1170-69 1008 19 759 16c-347-4-553-182-649-442-66-178-66-423 6-596 108-261 330-435 688-440 220-3 375 79 488 188l-90 125c-16 32-68 39-102 12-71-55-162-101-298-96-304 11-465 201-465 510 0 241 101 401 267 477 125 58 330 39 424-24 42-17 97-111 150-54" id="X"/><path d="M361-1005c121-49 297-49 417 0 184 74 298 236 298 490 0 330-178 530-506 530C241 15 61-185 61-515c0-254 115-416 300-490zm-45 492c0 201 65 338 254 338 188 0 251-137 251-338s-63-340-251-340c-189 0-254 139-254 340" id="Y"/><path d="M635 15C514 15 442-25 379-85v420H132v-1361c64 5 145-11 192 11 33 24 28 86 42 129 78-86 174-159 331-159 277 0 379 232 379 524 0 241-96 412-258 495-54 27-116 41-183 41zm186-536c0-181-37-329-209-329-117 0-175 55-233 124v460c48 60 104 93 198 93 188 0 244-152 244-348" id="Z"/><path d="M496 282c-21 85-170 43-266 53L422-76 7-1026h216c39-1 60 21 70 46 80 195 164 386 238 586 7 18 10 37 14 56 74-221 164-427 244-642 9-24 36-46 68-46h198" id="aa"/><path d="M395-1486V0H148v-1486h247" id="ab"/><path d="M601-1285c-158 0-198 102-186 268h267v176H423V0H176v-840c-61-14-153-3-153-76v-101h153c-17-292 113-454 383-454 47 0 91 6 132 19l-5 124c-1 41-44 43-85 43" id="ac"/><path d="M738-75c-64 55-158 90-269 91-176 2-277-109-277-284v-573c-65-4-153 21-153-52v-98l165-27 52-280c10-66 115-35 183-42v323h270v176H439v556c-1 59 32 101 88 102 48 1 68-25 104-34 19 1 25 9 33 22" id="ad"/><g id="i"><use transform="matrix(0.011111111111111112,0,0,0.011111111111111112,0,0)" xlink:href="#X"/><use transform="matrix(0.011111111111111112,0,0,0.011111111111111112,14.9,0)" xlink:href="#Y"/><use transform="matrix(0.011111111111111112,0,0,0.011111111111111112,27.533333333333335,0)" xlink:href="#Z"/><use transform="matrix(0.011111111111111112,0,0,0.011111111111111112,39.733333333333334,0)" xlink:href="#aa"/><use transform="matrix(0.011111111111111112,0,0,0.011111111111111112,51.58888888888889,0)" xlink:href="#ab"/><use transform="matrix(0.011111111111111112,0,0,0.011111111111111112,57.611111111111114,0)" xlink:href="#A"/><use transform="matrix(0.011111111111111112,0,0,0.011111111111111112,69.4888888888889,0)" xlink:href="#ac"/><use transform="matrix(0.011111111111111112,0,0,0.011111111111111112,77.27777777777779,0)" xlink:href="#ad"/></g><path d="M1365-1009c68 170 68 416 0 586C1264-171 1053 0 710 0H174v-1433h536c343 5 555 172 655 424zM710-157c338-11 507-216 507-559s-169-560-507-560H369v1119h341" id="ae"/><g id="j"><use transform="matrix(0.009,0,0,0.009,0,0)" xlink:href="#ae"/><use transform="matrix(0.009,0,0,0.009,13.553999999999998,0)" xlink:href="#N"/><use transform="matrix(0.009,0,0,0.009,22.985999999999997,0)" xlink:href="#M"/><use transform="matrix(0.009,0,0,0.009,30.239999999999995,0)" xlink:href="#H"/><use transform="matrix(0.009,0,0,0.009,34.84799999999999,0)" xlink:href="#T"/><use transform="matrix(0.009,0,0,0.009,44.064,0)" xlink:href="#K"/><use transform="matrix(0.009,0,0,0.009,53.18999999999999,0)" xlink:href="#P"/><use transform="matrix(0.009,0,0,0.009,59.90399999999999,0)" xlink:href="#H"/><use transform="matrix(0.009,0,0,0.009,64.51199999999999,0)" xlink:href="#R"/><use transform="matrix(0.009,0,0,0.009,74.51999999999998,0)" xlink:href="#I"/><use transform="matrix(0.009,0,0,0.009,84.52799999999998,0)" xlink:href="#O"/></g><g id="k"><use transform="matrix(0.009,0,0,0.009,0,0)" xlink:href="#M"/><use transform="matrix(0.009,0,0,0.009,7.254,0)" xlink:href="#N"/><use transform="matrix(0.009,0,0,0.009,16.686,0)" xlink:href="#S"/><use transform="matrix(0.009,0,0,0.009,26.747999999999998,0)" xlink:href="#H"/><use transform="matrix(0.009,0,0,0.009,31.355999999999998,0)" xlink:href="#O"/><use transform="matrix(0.009,0,0,0.009,39.168,0)" xlink:href="#P"/><use transform="matrix(0.009,0,0,0.009,45.882,0)" xlink:href="#M"/><use transform="matrix(0.009,0,0,0.009,53.135999999999996,0)" xlink:href="#H"/><use transform="matrix(0.009,0,0,0.009,57.74399999999999,0)" xlink:href="#V"/><use transform="matrix(0.009,0,0,0.009,67.806,0)" xlink:href="#W"/><use transform="matrix(0.009,0,0,0.009,77.814,0)" xlink:href="#P"/><use transform="matrix(0.009,0,0,0.009,84.52799999999999,0)" xlink:href="#H"/><use transform="matrix(0.009,0,0,0.009,89.136,0)" xlink:href="#R"/><use transform="matrix(0.009,0,0,0.009,99.14399999999999,0)" xlink:href="#I"/><use transform="matrix(0.009,0,0,0.009,109.15199999999999,0)" xlink:href="#O"/></g><g id="l"><use transform="matrix(0.009,0,0,0.009,0,0)" xlink:href="#J"/><use transform="matrix(0.009,0,0,0.009,14.777999999999999,0)" xlink:href="#W"/><use transform="matrix(0.009,0,0,0.009,24.785999999999998,0)" xlink:href="#O"/><use transform="matrix(0.009,0,0,0.009,32.598,0)" xlink:href="#P"/></g><g id="m"><use transform="matrix(0.009,0,0,0.009,0,0)" xlink:href="#M"/><use transform="matrix(0.009,0,0,0.009,7.254,0)" xlink:href="#N"/><use transform="matrix(0.009,0,0,0.009,16.686,0)" xlink:href="#J"/><use transform="matrix(0.009,0,0,0.009,31.464,0)" xlink:href="#K"/><use transform="matrix(0.009,0,0,0.009,40.589999999999996,0)" xlink:href="#H"/><use transform="matrix(0.009,0,0,0.009,45.19799999999999,0)" xlink:href="#I"/></g><path d="M602 14c-133 0-212-47-278-119v448H146v-1356c60 6 147-22 154 37l15 120c80-93 179-175 341-175 282 0 383 224 383 518 0 237-92 406-253 487-54 27-116 40-184 40zm253-527c-3-212-53-374-258-374-136 0-207 69-273 153v490c57 77 121 120 238 120 207 0 295-164 293-389" id="af"/><g id="n"><use transform="matrix(0.009,0,0,0.009,0,0)" xlink:href="#R"/><use transform="matrix(0.009,0,0,0.009,10.008,0)" xlink:href="#af"/><use transform="matrix(0.009,0,0,0.009,19.944,0)" xlink:href="#N"/><use transform="matrix(0.009,0,0,0.009,29.375999999999998,0)" xlink:href="#I"/></g><path fill="#635dff" d="M1353 0h-150c-36 0-55-21-66-46l-134-346H360L226-46c-9 23-33 46-66 46H10l573-1433h197zM414-532h535l-225-583c-15-36-29-81-43-135-13 48-26 95-42 136" id="ag"/><path fill="#635dff" d="M602 14c-133 0-212-47-278-119v448H146v-1356c60 6 147-22 154 37l15 120c80-93 179-175 341-175 282 0 383 224 383 518 0 237-92 406-253 487-54 27-116 40-184 40zm253-527c-3-212-53-374-258-374-136 0-207 69-273 153v490c57 77 121 120 238 120 207 0 295-164 293-389" id="ah"/><path fill="#635dff" d="M537-1031c235 0 353 147 353 383V0c-58-5-129 17-142-42l-20-94C637-55 545 19 375 16 200 13 92-76 92-253c0-184 160-243 332-285 79-19 176-28 291-31 12-184-31-318-200-318-113 0-181 45-243 91-36 26-82 14-99-17l-32-57c101-96 215-161 396-161zM263-261c0 103 62 152 165 152 140 0 216-64 287-136v-211c-141 4-258 19-349 60-60 27-103 62-103 135" id="ai"/><path fill="#635dff" d="M895-142C799-8 539 62 344-21 173-94 74-262 74-507c0-317 160-522 477-522 151 0 254 54 333 132-21 26-39 58-63 81-42 20-68-19-100-34-42-20-91-42-160-40-219 6-304 160-304 383 0 220 82 376 295 383 106 4 169-38 223-84 22-19 53-21 70 1" id="aj"/><path fill="#635dff" d="M598-887c-125 2-207 68-274 141V0H146v-1473h178v596c81-82 173-152 326-152 232 0 339 151 339 384V0H811v-645c0-149-65-244-213-242" id="ak"/><path fill="#635dff" d="M954-142C850-8 572 61 364-22 180-96 74-268 74-527c0-234 108-389 275-463 59-26 125-39 198-39 273 0 420 174 420 453 0 48-2 70-43 70H250c8 226 98 375 322 380 114 2 191-38 258-82 70-46 94 37 124 66zM807-617c-5-171-86-278-256-281-181-3-273 116-295 281h551" id="al"/><g id="o"><use transform="matrix(0.009,0,0,0.009,0,0)" xlink:href="#ag"/><use transform="matrix(0.009,0,0,0.009,12.239999999999998,0)" xlink:href="#ah"/><use transform="matrix(0.009,0,0,0.009,22.176,0)" xlink:href="#ai"/><use transform="matrix(0.009,0,0,0.009,31.301999999999996,0)" xlink:href="#aj"/><use transform="matrix(0.009,0,0,0.009,39.708,0)" xlink:href="#ak"/><use transform="matrix(0.009,0,0,0.009,49.715999999999994,0)" xlink:href="#al"/></g><path fill="#635dff" d="M368-163h620V0H174v-1433h194v1270" id="am"/><path fill="#635dff" d="M344-1013V0H166v-1013h178zm-88-446c77 0 128 52 128 128 0 75-52 126-128 126-75 0-126-51-126-126 0-76 50-128 126-128" id="an"/><path fill="#635dff" d="M598-887c-125 2-207 68-274 141V0H146v-1013c60 6 147-22 154 37l14 110c82-87 177-163 336-163 232 0 339 151 339 384V0H811v-645c0-149-65-244-213-242" id="ao"/><path fill="#635dff" d="M409-112c121-3 207-52 207-167 0-134-157-142-264-181-133-48-263-98-263-275 0-197 153-290 360-294 139-3 243 49 317 118-26 35-46 114-111 76-53-31-114-63-202-61-108 3-195 44-195 147 0 129 158 136 262 175 128 48 263 93 263 264C783-89 627 12 400 16 255 19 139-39 62-107c27-41 57-128 128-81 57 38 118 78 219 76" id="ap"/><g id="p"><use transform="matrix(0.009,0,0,0.009,0,0)" xlink:href="#am"/><use transform="matrix(0.009,0,0,0.009,9.251999999999999,0)" xlink:href="#an"/><use transform="matrix(0.009,0,0,0.009,13.86,0)" xlink:href="#aj"/><use transform="matrix(0.009,0,0,0.009,22.266,0)" xlink:href="#al"/><use transform="matrix(0.009,0,0,0.009,31.697999999999997,0)" xlink:href="#ao"/><use transform="matrix(0.009,0,0,0.009,41.705999999999996,0)" xlink:href="#ap"/><use transform="matrix(0.009,0,0,0.009,49.517999999999994,0)" xlink:href="#al"/></g><path fill="#635dff" d="M867-737c186 37 317 126 317 329C1184-123 974 0 681 0H174v-1433h457c293 3 505 90 505 374 0 185-121 273-269 322zm126 324c0-168-128-240-316-240H368v499h310c190-2 315-75 315-259zm-50-623c0-184-115-243-312-244H368v489h256c186-3 319-66 319-245" id="aq"/><path fill="#635dff" d="M513-145c178-4 292-88 292-262 0-193-194-213-343-263-182-61-347-142-342-385 4-188 111-303 254-361 117-48 292-41 408 5 66 26 124 62 173 110-22 37-36 86-66 115-51 25-83-28-123-48-53-26-114-56-200-54-157 4-266 71-266 223 0 186 200 204 344 258 175 65 343 135 343 372 0 289-185 446-480 451-198 4-349-81-449-187 26-36 42-83 76-111 60-25 93 39 140 65 62 34 135 75 239 72" id="ar"/><path fill="#635dff" d="M1365-1009c68 170 68 416 0 586C1264-171 1053 0 710 0H174v-1433h536c343 5 555 172 655 424zM710-157c338-11 507-216 507-559s-169-560-507-560H369v1119h341" id="as"/><g id="q"><use transform="matrix(0.009,0,0,0.009,0,0)" xlink:href="#aq"/><use transform="matrix(0.009,0,0,0.009,11.645999999999999,0)" xlink:href="#ar"/><use transform="matrix(0.009,0,0,0.009,21.186,0)" xlink:href="#as"/></g><path fill="#635dff" d="M152-1045c40-248 190-404 468-404 193 0 325 82 387 216 21 45 31 96 31 151-1 190-102 284-249 329 168 44 281 146 281 342 0 217-128 337-292 397-109 40-275 38-380 2-160-54-240-184-290-346 52-26 153-75 185 12 43 117 129 214 298 210 180-4 294-101 301-270 8-211-150-263-367-264v-129c195-5 339-62 339-253 0-161-95-244-254-244-156 0-249 88-277 214-18 80-114 49-181 37" id="at"/><path fill="#635dff" d="M100-675h494v151H100v-151" id="au"/><path fill="#635dff" d="M1289-200C1173-69 1017 19 773 16c-339-4-539-180-634-435-65-176-67-421 3-594 104-257 318-431 668-436 220-3 359 75 476 182-27 35-48 75-79 105-60 21-86-37-135-56-109-71-336-85-474-24-190 83-310 257-310 526 0 268 114 444 301 527 146 65 383 42 487-33 24-17 50-36 75-59 20-19 44-22 62-2" id="av"/><path fill="#635dff" d="M344-1473V0H166v-1473h178" id="aw"/><path fill="#635dff" d="M461 16c-231 0-339-149-339-383v-646h178v646c0 148 67 243 213 241 125-2 207-66 274-140v-747h178V0c-60-6-146 22-154-37l-14-109C716-60 619 16 461 16" id="ax"/><g id="r"><use transform="matrix(0.009,0,0,0.009,0,0)" xlink:href="#at"/><use transform="matrix(0.009,0,0,0.009,10.44,0)" xlink:href="#au"/><use transform="matrix(0.009,0,0,0.009,16.686,0)" xlink:href="#av"/><use transform="matrix(0.009,0,0,0.009,29.016,0)" xlink:href="#aw"/><use transform="matrix(0.009,0,0,0.009,33.623999999999995,0)" xlink:href="#ai"/><use transform="matrix(0.009,0,0,0.009,42.75,0)" xlink:href="#ax"/><use transform="matrix(0.009,0,0,0.009,52.757999999999996,0)" xlink:href="#ap"/><use transform="matrix(0.009,0,0,0.009,60.56999999999999,0)" xlink:href="#al"/></g><path fill="#635dff" d="M338-1150c4 31 6 65 6 97V0H174v-1433c59 2 132-6 183 5 10 2 18 13 27 28l495 882c19 31 31 68 45 104 14-38 27-71 46-105l485-881c25-58 137-23 210-33V0h-170c2-381-5-772 4-1147l-491 896c-27 62-134 61-168 0" id="ay"/><path fill="#635dff" d="M404 0H210v-1433h194V0" id="az"/><path fill="#635dff" d="M1150-1433v163H687V0H493v-1270H28v-163h1122" id="aA"/><g id="s"><use transform="matrix(0.009,0,0,0.009,0,0)" xlink:href="#ay"/><use transform="matrix(0.009,0,0,0.009,16.56,0)" xlink:href="#az"/><use transform="matrix(0.009,0,0,0.009,22.086,0)" xlink:href="#aA"/></g><path fill="#635dff" d="M1344-139C1208-39 1036 20 799 16c-345-5-555-181-657-435-70-174-66-421 0-596 113-299 413-484 839-421 148 22 259 85 350 168l-55 88c-38 58-99 7-135-18-118-82-379-113-543-44-193 82-310 256-310 526 0 276 118 454 313 536 175 73 436 36 567-45v-316H946c-65 1-35-91-42-148h440v550" id="aB"/><path fill="#635dff" d="M340-1114c9 364 1 744 4 1114H174v-1433c45 2 105-6 138 7 9 3 18 13 29 26l830 1080c-4-32-5-64-5-98v-1015h170V0c-46-3-102 7-136-8-10-5-21-14-31-27" id="aC"/><path fill="#635dff" d="M353-563c7 250 130 409 378 409s377-159 377-408v-871h193v871c-5 275-133 450-332 535-136 58-340 59-476 0-200-85-333-259-333-535v-871h193v870" id="aD"/><g id="t"><use transform="matrix(0.009,0,0,0.009,0,0)" xlink:href="#aB"/><use transform="matrix(0.009,0,0,0.009,13.212,0)" xlink:href="#aC"/><use transform="matrix(0.009,0,0,0.009,26.820000000000004,0)" xlink:href="#aD"/></g><path fill="#635dff" d="M617-1433c323 3 534 130 534 444 0 310-216 446-534 453H387V0H194v-1433h423zm340 444c0-197-128-291-340-291H387v590h230c207-4 340-97 340-299" id="aE"/><path fill="#635dff" d="M608 14c-142 0-221-61-286-144-9 50 6 130-55 130H152v-1473h179v606c78-87 176-162 331-162 283 0 384 222 384 516 0 237-93 406-254 487-54 27-116 40-184 40zm254-527c-2-212-53-374-258-374-136 0-207 69-273 153v490c56 77 120 120 237 120 208 0 296-164 294-389" id="aF"/><g id="u"><use transform="matrix(0.009,0,0,0.009,0,0)" xlink:href="#aE"/><use transform="matrix(0.009,0,0,0.009,10.998,0)" xlink:href="#ax"/><use transform="matrix(0.009,0,0,0.009,21.005999999999997,0)" xlink:href="#aF"/><use transform="matrix(0.009,0,0,0.009,31.067999999999998,0)" xlink:href="#aw"/><use transform="matrix(0.009,0,0,0.009,35.675999999999995,0)" xlink:href="#an"/><use transform="matrix(0.009,0,0,0.009,40.28399999999999,0)" xlink:href="#aj"/></g><g id="v"><use transform="matrix(0.009,0,0,0.009,0,0)" xlink:href="#am"/><use transform="matrix(0.009,0,0,0.009,9.251999999999999,0)" xlink:href="#an"/><use transform="matrix(0.009,0,0,0.009,13.86,0)" xlink:href="#aj"/><use transform="matrix(0.009,0,0,0.009,22.266,0)" xlink:href="#al"/><use transform="matrix(0.009,0,0,0.009,31.697999999999997,0)" xlink:href="#ao"/><use transform="matrix(0.009,0,0,0.009,41.705999999999996,0)" xlink:href="#ap"/><use transform="matrix(0.009,0,0,0.009,49.517999999999994,0)" xlink:href="#al"/></g><path fill="#635dff" d="M409 293C214 8 88-383 149-866c35-276 133-488 260-685 32 22 70 38 97 65 12 17 8 37-3 57-126 218-214 479-214 800s87 582 214 800c15 26 10 65-15 74" id="aG"/><path fill="#635dff" d="M178-1551c194 286 322 675 260 1159-35 275-132 490-260 685-32-22-72-36-97-64-13-15-6-42 3-58C209-48 298-307 298-629c0-321-92-580-214-800-41-75 58-89 94-122" id="aH"/><g id="w"><use transform="matrix(0.009,0,0,0.009,0,0)" xlink:href="#aG"/><use transform="matrix(0.009,0,0,0.009,5.04,0)" xlink:href="#aB"/><use transform="matrix(0.009,0,0,0.009,18.252,0)" xlink:href="#aE"/><use transform="matrix(0.009,0,0,0.009,29.250000000000004,0)" xlink:href="#am"/><use transform="matrix(0.009,0,0,0.009,38.501999999999995,0)" xlink:href="#aH"/></g><path fill="#635dff" d="M1038-507c0 321-164 521-482 521S72-187 72-507c0-248 107-410 284-485 60-25 126-37 200-37 317 0 482 201 482 522zm-782 1c0 225 80 381 300 381 213 0 298-159 298-381 0-223-84-383-298-383-221 0-300 158-300 383" id="aI"/><path fill="#635dff" d="M853-1013c0 56 1 109-25 144L280-139h553V0H70c-1-55-1-103 25-138l551-735H101v-140h752" id="aJ"/><g id="x"><use transform="matrix(0.009,0,0,0.009,0,0)" xlink:href="#ay"/><use transform="matrix(0.009,0,0,0.009,16.56,0)" xlink:href="#aI"/><use transform="matrix(0.009,0,0,0.009,26.567999999999998,0)" xlink:href="#aJ"/><use transform="matrix(0.009,0,0,0.009,34.884,0)" xlink:href="#an"/><use transform="matrix(0.009,0,0,0.009,39.492,0)" xlink:href="#aw"/><use transform="matrix(0.009,0,0,0.009,44.099999999999994,0)" xlink:href="#aw"/><use transform="matrix(0.009,0,0,0.009,48.70799999999999,0)" xlink:href="#ai"/></g><g id="y"><use transform="matrix(0.009,0,0,0.009,0,0)" xlink:href="#aG"/><use transform="matrix(0.009,0,0,0.009,5.3999999999999995,0)" xlink:href="#ay"/><use transform="matrix(0.009,0,0,0.009,21.959999999999997,0)" xlink:href="#aE"/><use transform="matrix(0.009,0,0,0.009,32.958,0)" xlink:href="#am"/><use transform="matrix(0.009,0,0,0.009,42.209999999999994,0)" xlink:href="#aH"/></g></defs></g></svg>
