<svg xmlns="http://www.w3.org/2000/svg" xmlns:xlink="http://www.w3.org/1999/xlink" xmlns:lucid="lucid" width="1320" height="660.96"><g transform="translate(-20.00000000000003 -177.8103294481032)" lucid:page-tab-id="0_0"><path d="M0 0h1360v1760H0z" fill="#fff"/><path d="M347.73 435.8v135.6" stroke="#5d666f" stroke-width="2" fill="none"/><path d="M347.73 434.8l1-.12v1.15h-2v-1.15zM348.73 572.55l-1-.13-1 .13v-1.16h2z" stroke="#5d666f" stroke-width=".05" fill="#5d666f"/><path d="M347.72 606.12l-.9 144.96" stroke="#5d666f" stroke-width="2" fill="none"/><path d="M348.72 606.15h-2v-1.16l1 .12 1-.13zM347.82 751.06v1.15l-1-.12-1 .13v-1.15z" stroke="#5d666f" stroke-width=".05" fill="#5d666f"/><path d="M347.73 401.1V273.5" stroke="#5d666f" stroke-width="2" fill="none"/><path d="M348.73 402.23l-1-.13-1 .13v-1.15h2z" stroke="#5d666f" stroke-width=".05" fill="#5d666f"/><path d="M347.73 273.52v-1.02" stroke="#5d666f" stroke-width="2" fill="none"/><path d="M40 401.1h273.45v34.7H40z" stroke="#000" stroke-opacity="0" fill="#fff" fill-opacity="0"/><use xlink:href="#a" transform="matrix(1,0,0,1,45.00000000000003,406.11055917054375) translate(150.77777777777777 23.495833333333334)"/><use xlink:href="#b" transform="matrix(1,0,0,1,45.00000000000003,406.11055917054375) translate(197.6888888888889 23.495833333333334)"/><path d="M361.6 418.46c0 7.64-6.2 13.83-13.87 13.83-7.66 0-13.88-6.2-13.88-13.84s6.22-13.84 13.88-13.84c7.66 0 13.88 6.2 13.88 13.84z" stroke="#4397ff" stroke-width="5" fill="#fff"/><path d="M385.88 377.48h809.1v81.95h-809.1z" stroke="#000" stroke-opacity="0" fill="#fff" fill-opacity="0"/><use xlink:href="#c" transform="matrix(1,0,0,1,390.8772874342846,382.47699611476986) translate(0 44.43333333333334)"/><use xlink:href="#d" transform="matrix(1,0,0,1,390.8772874342846,382.47699611476986) translate(45.57777777777778 44.43333333333334)"/><use xlink:href="#e" transform="matrix(1,0,0,1,390.8772874342846,382.47699611476986) translate(69.71111111111111 44.43333333333334)"/><use xlink:href="#f" transform="matrix(1,0,0,1,390.8772874342846,382.47699611476986) translate(210.15555555555554 44.43333333333334)"/><path d="M385.88 522.43H1320V655.1H385.88z" stroke="#000" stroke-opacity="0" fill="#fff" fill-opacity="0"/><use xlink:href="#g" transform="matrix(1,0,0,1,390.87728743428437,527.4353175480724) translate(4.666666666666666 25.777083333333334)"/><use xlink:href="#h" transform="matrix(1,0,0,1,390.87728743428437,527.4353175480724) translate(22.22222222222222 25.777083333333334)"/><use xlink:href="#i" transform="matrix(1,0,0,1,390.87728743428437,527.4353175480724) translate(115.31111111111113 25.777083333333334)"/><use xlink:href="#j" transform="matrix(1,0,0,1,390.87728743428437,527.4353175480724) translate(212.33333333333337 25.777083333333334)"/><use xlink:href="#g" transform="matrix(1,0,0,1,390.87728743428437,527.4353175480724) translate(4.666666666666666 57.77708333333334)"/><use xlink:href="#k" transform="matrix(1,0,0,1,390.87728743428437,527.4353175480724) translate(22.22222222222222 57.77708333333334)"/><use xlink:href="#l" transform="matrix(1,0,0,1,390.87728743428437,527.4353175480724) translate(97.46666666666667 57.77708333333334)"/><use xlink:href="#m" transform="matrix(1,0,0,1,390.87728743428437,527.4353175480724) translate(117.08888888888889 57.77708333333334)"/><use xlink:href="#g" transform="matrix(1,0,0,1,390.87728743428437,527.4353175480724) translate(4.666666666666666 89.77708333333334)"/><use xlink:href="#n" transform="matrix(1,0,0,1,390.87728743428437,527.4353175480724) translate(22.22222222222222 89.77708333333334)"/><use xlink:href="#o" transform="matrix(1,0,0,1,390.87728743428437,527.4353175480724) translate(101.88888888888889 89.77708333333334)"/><use xlink:href="#p" transform="matrix(1,0,0,1,390.87728743428437,527.4353175480724) translate(190.75555555555556 89.77708333333334)"/><use xlink:href="#q" transform="matrix(1,0,0,1,390.87728743428437,527.4353175480724) translate(251.13333333333335 89.77708333333334)"/><use xlink:href="#r" transform="matrix(1,0,0,1,390.87728743428437,527.4353175480724) translate(304.7555555555556 89.77708333333334)"/><use xlink:href="#s" transform="matrix(1,0,0,1,390.87728743428437,527.4353175480724) translate(402.8 89.77708333333334)"/><use xlink:href="#t" transform="matrix(1,0,0,1,390.87728743428437,527.4353175480724) translate(480.64444444444445 89.77708333333334)"/><use xlink:href="#d" transform="matrix(1,0,0,1,390.87728743428437,527.4353175480724) translate(623.3777777777777 89.77708333333334)"/><use xlink:href="#u" transform="matrix(1,0,0,1,390.87728743428437,527.4353175480724) translate(647.5111111111111 89.77708333333334)"/><use xlink:href="#v" transform="matrix(1,0,0,1,390.87728743428437,527.4353175480724) translate(684.0888888888888 89.77708333333334)"/><use xlink:href="#w" transform="matrix(1,0,0,1,390.87728743428437,527.4353175480724) translate(732.5333333333333 89.77708333333334)"/><use xlink:href="#x" transform="matrix(1,0,0,1,390.87728743428437,527.4353175480724) translate(22.22222222222222 121.77708333333334)"/><use xlink:href="#y" transform="matrix(1,0,0,1,390.87728743428437,527.4353175480724) translate(137.75555555555556 121.77708333333334)"/><use xlink:href="#z" transform="matrix(1,0,0,1,390.87728743428437,527.4353175480724) translate(178.0888888888889 121.77708333333334)"/><use xlink:href="#d" transform="matrix(1,0,0,1,390.87728743428437,527.4353175480724) translate(290.24444444444447 121.77708333333334)"/><use xlink:href="#u" transform="matrix(1,0,0,1,390.87728743428437,527.4353175480724) translate(314.3777777777778 121.77708333333334)"/><use xlink:href="#A" transform="matrix(1,0,0,1,390.87728743428437,527.4353175480724) translate(350.9555555555556 121.77708333333334)"/><use xlink:href="#B" transform="matrix(1,0,0,1,390.87728743428437,527.4353175480724) translate(409.24444444444447 121.77708333333334)"/><use xlink:href="#C" transform="matrix(1,0,0,1,390.87728743428437,527.4353175480724) translate(481 121.77708333333334)"/><path d="M361.6 588.77c0 7.64-6.2 13.83-13.87 13.83-7.66 0-13.88-6.2-13.88-13.83 0-7.64 6.22-13.83 13.88-13.83 7.66 0 13.88 6.2 13.88 13.83z" stroke="#4397ff" stroke-width="5" fill="#fff"/><path d="M135.5 571.42h177.04v34.7H135.5z" stroke="#000" stroke-opacity="0" fill="#fff" fill-opacity="0"/><g><use xlink:href="#D" transform="matrix(1,0,0,1,140.50140706221666,576.4230532205283) translate(51.133333333333326 21.933333333333334)"/><use xlink:href="#E" transform="matrix(1,0,0,1,140.50140706221666,576.4230532205283) translate(93.97777777777777 21.933333333333334)"/><use xlink:href="#F" transform="matrix(1,0,0,1,140.50140706221666,576.4230532205283) translate(72.97777777777777 48.6)"/><use xlink:href="#G" transform="matrix(1,0,0,1,140.50140706221666,576.4230532205283) translate(127.46666666666667 48.6)"/></g><path d="M383.25 718.1h934.15v100.67H383.25z" stroke="#000" stroke-opacity="0" fill="#fff" fill-opacity="0"/><g><use xlink:href="#g" transform="matrix(1,0,0,1,388.2545254415619,723.101984214739) translate(4.666666666666666 38.99583333333334)"/><use xlink:href="#H" transform="matrix(1,0,0,1,388.2545254415619,723.101984214739) translate(22.22222222222222 38.99583333333334)"/><use xlink:href="#I" transform="matrix(1,0,0,1,388.2545254415619,723.101984214739) translate(77.97777777777779 38.99583333333334)"/><use xlink:href="#J" transform="matrix(1,0,0,1,388.2545254415619,723.101984214739) translate(142.6888888888889 38.99583333333334)"/><use xlink:href="#u" transform="matrix(1,0,0,1,388.2545254415619,723.101984214739) translate(227.11111111111114 38.99583333333334)"/><use xlink:href="#K" transform="matrix(1,0,0,1,388.2545254415619,723.101984214739) translate(263.6888888888889 38.99583333333334)"/><use xlink:href="#L" transform="matrix(1,0,0,1,388.2545254415619,723.101984214739) translate(321.00000000000006 38.99583333333334)"/><use xlink:href="#M" transform="matrix(1,0,0,1,388.2545254415619,723.101984214739) translate(390.3111111111112 38.99583333333334)"/><use xlink:href="#N" transform="matrix(1,0,0,1,388.2545254415619,723.101984214739) translate(452.3333333333334 38.99583333333334)"/><use xlink:href="#O" transform="matrix(1,0,0,1,388.2545254415619,723.101984214739) translate(467.88888888888897 38.99583333333334)"/><use xlink:href="#P" transform="matrix(1,0,0,1,388.2545254415619,723.101984214739) translate(513.4888888888889 38.99583333333334)"/><use xlink:href="#Q" transform="matrix(1,0,0,1,388.2545254415619,723.101984214739) translate(584.8222222222223 38.99583333333334)"/><use xlink:href="#g" transform="matrix(1,0,0,1,388.2545254415619,723.101984214739) translate(4.666666666666666 70.99583333333334)"/><use xlink:href="#R" transform="matrix(1,0,0,1,388.2545254415619,723.101984214739) translate(22.22222222222222 70.99583333333334)"/><use xlink:href="#S" transform="matrix(1,0,0,1,388.2545254415619,723.101984214739) translate(64.44444444444446 70.99583333333334)"/><use xlink:href="#T" transform="matrix(1,0,0,1,388.2545254415619,723.101984214739) translate(177.20000000000002 70.99583333333334)"/><use xlink:href="#u" transform="matrix(1,0,0,1,388.2545254415619,723.101984214739) translate(277.2888888888889 70.99583333333334)"/><use xlink:href="#U" transform="matrix(1,0,0,1,388.2545254415619,723.101984214739) translate(313.8666666666667 70.99583333333334)"/><use xlink:href="#y" transform="matrix(1,0,0,1,388.2545254415619,723.101984214739) translate(414.84444444444443 70.99583333333334)"/><use xlink:href="#u" transform="matrix(1,0,0,1,388.2545254415619,723.101984214739) translate(455.17777777777775 70.99583333333334)"/><use xlink:href="#V" transform="matrix(1,0,0,1,388.2545254415619,723.101984214739) translate(491.75555555555553 70.99583333333334)"/></g><g transform="matrix(1,0,0,1,388.2545254415619,723.101984214739)"><a xlink:href="http://S.Raymond" target="_blank"><path class="lucid-link lucid-hotspot lucid-overlay-hotspot" fill-opacity="0" d="M64.44 49.06H172.9v26.67H64.45z"/></a></g><path d="M360.7 768.43c0 7.65-6.22 13.84-13.88 13.84-7.66 0-13.88-6.2-13.88-13.84 0-7.63 6.22-13.83 13.88-13.83 7.66 0 13.87 6.2 13.87 13.83z" stroke="#4397ff" stroke-width="5" fill="#fff"/><path d="M135.5 752.28h177.04v32.3H135.5z" stroke="#000" stroke-opacity="0" fill="#fff" fill-opacity="0"/><g><use xlink:href="#W" transform="matrix(1,0,0,1,140.50140706221666,757.2776823733125) translate(101.68888888888888 21.933333333333334)"/></g><path d="M361.6 256.14c0 7.64-6.2 13.84-13.87 13.84-7.66 0-13.88-6.2-13.88-13.84s6.22-13.83 13.88-13.83c7.66 0 13.88 6.2 13.88 13.84z" stroke="#4397ff" stroke-width="5" fill="#fff"/><path d="M385.88 197.8h512.35V314.5H385.88z" stroke="#000" stroke-opacity="0" fill="#fff" fill-opacity="0"/><g><use xlink:href="#h" transform="matrix(1,0,0,1,390.8772874342844,202.8103294481032) translate(0 35.30833333333334)"/><use xlink:href="#X" transform="matrix(1,0,0,1,390.8772874342844,202.8103294481032) translate(93.0888888888889 35.30833333333334)"/><use xlink:href="#Y" transform="matrix(1,0,0,1,390.8772874342844,202.8103294481032) translate(135.31111111111113 35.30833333333334)"/><use xlink:href="#Z" transform="matrix(1,0,0,1,390.8772874342844,202.8103294481032) translate(204.22222222222223 35.30833333333334)"/><use xlink:href="#aa" transform="matrix(1,0,0,1,390.8772874342844,202.8103294481032) translate(309.4 35.30833333333334)"/><use xlink:href="#ab" transform="matrix(1,0,0,1,390.8772874342844,202.8103294481032) translate(337.2 35.30833333333334)"/><use xlink:href="#ac" transform="matrix(1,0,0,1,390.8772874342844,202.8103294481032) translate(442.4222222222222 35.30833333333334)"/><use xlink:href="#ad" transform="matrix(1,0,0,1,390.8772874342844,202.8103294481032) translate(0 61.97500000000001)"/><use xlink:href="#ae" transform="matrix(1,0,0,1,390.8772874342844,202.8103294481032) translate(100.33333333333333 61.97500000000001)"/><use xlink:href="#af" transform="matrix(1,0,0,1,390.8772874342844,202.8103294481032) translate(228.7111111111111 61.97500000000001)"/><use xlink:href="#ag" transform="matrix(1,0,0,1,390.8772874342844,202.8103294481032) translate(288.24444444444447 61.97500000000001)"/><use xlink:href="#ah" transform="matrix(1,0,0,1,390.8772874342844,202.8103294481032) translate(358.82222222222225 61.97500000000001)"/><use xlink:href="#u" transform="matrix(1,0,0,1,390.8772874342844,202.8103294481032) translate(381.15555555555557 61.97500000000001)"/><use xlink:href="#ai" transform="matrix(1,0,0,1,390.8772874342844,202.8103294481032) translate(417.73333333333335 61.97500000000001)"/><use xlink:href="#aj" transform="matrix(1,0,0,1,390.8772874342844,202.8103294481032) translate(0 88.64166666666668)"/></g><path d="M136.4 231.1h177.05v50.1H136.4z" stroke="#000" stroke-opacity="0" fill="#fff" fill-opacity="0"/><g><use xlink:href="#ak" transform="matrix(1,0,0,1,141.412778171355,236.09965870781528) translate(42.42222222222223 29.620833333333334)"/></g><defs><path fill="#333" d="M368-163h620V0H174v-1433h194v1270" id="al"/><path fill="#333" d="M537-1031c235 0 353 147 353 383V0c-58-5-129 17-142-42l-20-94C637-55 545 19 375 16 200 13 92-76 92-253c0-184 160-243 332-285 79-19 176-28 291-31 12-184-31-318-200-318-113 0-181 45-243 91-36 26-82 14-99-17l-32-57c101-96 215-161 396-161zM263-261c0 103 62 152 165 152 140 0 216-64 287-136v-211c-141 4-258 19-349 60-60 27-103 62-103 135" id="am"/><path fill="#333" d="M698-76c-54 52-145 92-245 92-162 1-249-96-249-260v-620c-58-9-160 26-160-39v-71l166-21 41-313c4-50 80-30 131-34v349h290v129H382v608c-2 78 40 125 111 126 60 2 88-33 128-48 9 0 18 6 25 17" id="an"/><path fill="#333" d="M954-142C850-8 572 61 364-22 180-96 74-268 74-527c0-234 108-389 275-463 59-26 125-39 198-39 273 0 420 174 420 453 0 48-2 70-43 70H250c8 226 98 375 322 380 114 2 191-38 258-82 70-46 94 37 124 66zM807-617c-5-171-86-278-256-281-181-3-273 116-295 281h551" id="ao"/><g id="a"><use transform="matrix(0.011111111111111112,0,0,0.011111111111111112,0,0)" xlink:href="#al"/><use transform="matrix(0.011111111111111112,0,0,0.011111111111111112,11.422222222222222,0)" xlink:href="#am"/><use transform="matrix(0.011111111111111112,0,0,0.011111111111111112,22.68888888888889,0)" xlink:href="#an"/><use transform="matrix(0.011111111111111112,0,0,0.011111111111111112,30.977777777777778,0)" xlink:href="#ao"/></g><path fill="#333" d="M287-136h308c2-355-4-716 3-1066L342-983c-20 23-68 15-84-7l-56-77 426-369h145v1300h282V0H287v-136" id="ap"/><path fill="#333" d="M819-678c-91 81-278 120-423 63-147-58-248-182-248-384 0-217 123-348 283-415 110-46 267-45 378-1 189 74 308 278 257 547-25 130-89 225-155 322L562-42C526 21 400-6 306 0c170-227 347-447 513-678zm-211-47c183 0 299-105 299-282 0-183-105-293-287-293s-294 106-294 288c0 183 99 287 282 287" id="aq"/><path fill="#333" d="M403-804c92-72 275-100 410-46 154 61 261 188 261 399 0 225-125 362-292 431-115 47-281 49-396 2-171-69-278-219-278-455 0-182 78-298 175-428l363-489c38-61 159-39 254-43zm189 62c-190 0-312 114-312 300 0 194 105 310 299 310 195 0 316-113 316-306 0-192-111-304-303-304" id="ar"/><path fill="#333" d="M1060-1042c53 174 53 479 0 652C990-160 857 15 579 15c-277 0-410-176-479-405-52-173-53-479 0-652 70-230 201-407 479-407 277 0 412 178 481 407zM888-441c36-137 36-414 0-551-45-170-118-306-309-306-190 0-263 137-307 306-36 138-36 414 0 551 45 170 116 306 307 306 190 0 265-138 309-306" id="as"/><path fill="#333" d="M307-1433c0 153 4 312-16 445-6 40-18 68-62 67-40 0-55-30-61-67-22-132-16-292-16-445h155" id="at"/><path fill="#333" d="M409-112c121-3 207-52 207-167 0-134-157-142-264-181-133-48-263-98-263-275 0-197 153-290 360-294 139-3 243 49 317 118-26 35-46 114-111 76-53-31-114-63-202-61-108 3-195 44-195 147 0 129 158 136 262 175 128 48 263 93 263 264C783-89 627 12 400 16 255 19 139-39 62-107c27-41 57-128 128-81 57 38 118 78 219 76" id="au"/><g id="b"><use transform="matrix(0.011111111111111112,0,0,0.011111111111111112,0,0)" xlink:href="#ap"/><use transform="matrix(0.011111111111111112,0,0,0.011111111111111112,12.88888888888889,0)" xlink:href="#aq"/><use transform="matrix(0.011111111111111112,0,0,0.011111111111111112,25.77777777777778,0)" xlink:href="#ar"/><use transform="matrix(0.011111111111111112,0,0,0.011111111111111112,38.66666666666667,0)" xlink:href="#as"/><use transform="matrix(0.011111111111111112,0,0,0.011111111111111112,51.55555555555556,0)" xlink:href="#at"/><use transform="matrix(0.011111111111111112,0,0,0.011111111111111112,56.66666666666667,0)" xlink:href="#au"/></g><path fill="#333" d="M1124-1036c0 240-152 355-353 406 24 14 45 35 64 61L1253 0c-92-9-205 21-250-41L631-553c-24-32-41-45-97-45H387V0H194v-1433h405c307 3 525 101 525 397zm-189 14c0-188-133-258-336-258H387v541h203c205-3 345-85 345-283" id="av"/><path fill="#333" d="M344-1013V0H166v-1013h178zm-88-446c77 0 128 52 128 128 0 75-52 126-128 126-75 0-126-51-126-126 0-76 50-128 126-128" id="aw"/><g id="c"><use transform="matrix(0.011111111111111112,0,0,0.011111111111111112,0,0)" xlink:href="#av"/><use transform="matrix(0.011111111111111112,0,0,0.011111111111111112,14.311111111111112,0)" xlink:href="#aw"/><use transform="matrix(0.011111111111111112,0,0,0.011111111111111112,20,0)" xlink:href="#au"/><use transform="matrix(0.011111111111111112,0,0,0.011111111111111112,29.644444444444446,0)" xlink:href="#ao"/></g><path fill="#333" d="M1038-507c0 321-164 521-482 521S72-187 72-507c0-248 107-410 284-485 60-25 126-37 200-37 317 0 482 201 482 522zm-782 1c0 225 80 381 300 381 213 0 298-159 298-381 0-223-84-383-298-383-221 0-300 158-300 383" id="ax"/><path fill="#333" d="M594-1317c-165 0-237 72-235 231v93h293v129H365V0H186v-861c-49-9-113-4-146-29-24-17-10-67-14-103h160v-98c5-229 120-363 348-363 45 0 87 7 126 20l-4 89c-2 31-28 28-62 28" id="ay"/><g id="d"><use transform="matrix(0.011111111111111112,0,0,0.011111111111111112,0,0)" xlink:href="#ax"/><use transform="matrix(0.011111111111111112,0,0,0.011111111111111112,12.355555555555556,0)" xlink:href="#ay"/></g><path fill="#333" d="M14-1013c70 8 177-25 195 37l194 652c10 46 20 89 27 137 77-272 174-527 253-793 13-44 73-34 126-35 27-1 44 16 51 35 81 265 173 518 245 792 7-44 18-96 30-136l198-652c15-59 118-30 186-37L1191 0h-141c-17 0-29-11-36-34-79-245-162-486-237-734-5-15-7-31-10-46-7 32-12 65-23 94L517-34C501 26 405-10 342 0" id="az"/><path fill="#333" d="M584-856c-148 6-210 94-260 211V0H146v-1013c62 7 151-25 157 49l12 158c66-138 184-259 384-216 23 5 44 16 63 27l-23 133c-5 17-15 25-31 25-36 0-71-21-124-19" id="aA"/><path fill="#333" d="M100-675h494v151H100v-151" id="aB"/><path fill="#333" d="M598-887c-125 2-207 68-274 141V0H146v-1013c60 6 147-22 154 37l14 110c82-87 177-163 336-163 232 0 339 151 339 384V0H811v-645c0-149-65-244-213-242" id="aC"/><path fill="#333" d="M344-1473V0H166v-1473h178" id="aD"/><path fill="#333" d="M443 299c-13 26-25 44-64 44H247L432-59 14-1013h154c30-1 46 18 55 37 95 228 197 450 287 682 6 14 8 30 11 45 10-32 18-60 30-90l263-637c18-60 124-30 194-37" id="aE"/><g id="e"><use transform="matrix(0.011111111111111112,0,0,0.011111111111111112,0,0)" xlink:href="#au"/><use transform="matrix(0.011111111111111112,0,0,0.011111111111111112,9.644444444444444,0)" xlink:href="#ax"/><use transform="matrix(0.011111111111111112,0,0,0.011111111111111112,22,0)" xlink:href="#ay"/><use transform="matrix(0.011111111111111112,0,0,0.011111111111111112,29.488888888888884,0)" xlink:href="#an"/><use transform="matrix(0.011111111111111112,0,0,0.011111111111111112,37.77777777777778,0)" xlink:href="#az"/><use transform="matrix(0.011111111111111112,0,0,0.011111111111111112,54.800000000000004,0)" xlink:href="#am"/><use transform="matrix(0.011111111111111112,0,0,0.011111111111111112,66.06666666666666,0)" xlink:href="#aA"/><use transform="matrix(0.011111111111111112,0,0,0.011111111111111112,75.02222222222221,0)" xlink:href="#ao"/><use transform="matrix(0.011111111111111112,0,0,0.011111111111111112,86.66666666666666,0)" xlink:href="#aB"/><use transform="matrix(0.011111111111111112,0,0,0.011111111111111112,94.37777777777777,0)" xlink:href="#ax"/><use transform="matrix(0.011111111111111112,0,0,0.011111111111111112,106.73333333333332,0)" xlink:href="#aC"/><use transform="matrix(0.011111111111111112,0,0,0.011111111111111112,119.08888888888887,0)" xlink:href="#aD"/><use transform="matrix(0.011111111111111112,0,0,0.011111111111111112,124.77777777777776,0)" xlink:href="#aE"/></g><path fill="#333" d="M895-142C799-8 539 62 344-21 173-94 74-262 74-507c0-317 160-522 477-522 151 0 254 54 333 132-21 26-39 58-63 81-42 20-68-19-100-34-42-20-91-42-160-40-219 6-304 160-304 383 0 220 82 376 295 383 106 4 169-38 223-84 22-19 53-21 70 1" id="aF"/><path fill="#333" d="M550-887c-107 0-172 65-226 132V0H146v-1013c60 6 147-22 154 37l13 104c69-80 148-156 287-157 148-1 223 92 258 211 51-126 153-211 323-211 232 0 338 149 338 384V0h-178v-645c1-148-62-242-203-242-142 0-218 94-218 242V0H742v-645c1-149-54-242-192-242" id="aG"/><path fill="#333" d="M602 14c-133 0-212-47-278-119v448H146v-1356c60 6 147-22 154 37l15 120c80-93 179-175 341-175 282 0 383 224 383 518 0 237-92 406-253 487-54 27-116 40-184 40zm253-527c-3-212-53-374-258-374-136 0-207 69-273 153v490c57 77 121 120 238 120 207 0 295-164 293-389" id="aH"/><path fill="#333" d="M212 15C136 15 88-34 88-110s48-126 124-126 125 50 125 126c0 77-49 125-125 125" id="aI"/><g id="f"><use transform="matrix(0.011111111111111112,0,0,0.011111111111111112,0,0)" xlink:href="#aF"/><use transform="matrix(0.011111111111111112,0,0,0.011111111111111112,10.377777777777778,0)" xlink:href="#ax"/><use transform="matrix(0.011111111111111112,0,0,0.011111111111111112,22.733333333333334,0)" xlink:href="#aG"/><use transform="matrix(0.011111111111111112,0,0,0.011111111111111112,40.977777777777774,0)" xlink:href="#aH"/><use transform="matrix(0.011111111111111112,0,0,0.011111111111111112,53.24444444444443,0)" xlink:href="#am"/><use transform="matrix(0.011111111111111112,0,0,0.011111111111111112,64.5111111111111,0)" xlink:href="#aC"/><use transform="matrix(0.011111111111111112,0,0,0.011111111111111112,76.86666666666666,0)" xlink:href="#aw"/><use transform="matrix(0.011111111111111112,0,0,0.011111111111111112,82.55555555555554,0)" xlink:href="#ao"/><use transform="matrix(0.011111111111111112,0,0,0.011111111111111112,94.19999999999999,0)" xlink:href="#au"/><use transform="matrix(0.011111111111111112,0,0,0.011111111111111112,103.84444444444443,0)" xlink:href="#aI"/></g><path fill="#333" d="M238-450c-39-88-39-202 0-290 58-127 165-228 340-228 176 0 287 101 344 228 39 88 40 202 0 290-58 127-168 226-344 226-174 0-283-100-340-226" id="aJ"/><use transform="matrix(0.011111111111111112,0,0,0.011111111111111112,0,0)" xlink:href="#aJ" id="g"/><path fill="#333" d="M513-145c178-4 292-88 292-262 0-193-194-213-343-263-182-61-347-142-342-385 4-188 111-303 254-361 117-48 292-41 408 5 66 26 124 62 173 110-22 37-36 86-66 115-51 25-83-28-123-48-53-26-114-56-200-54-157 4-266 71-266 223 0 186 200 204 344 258 175 65 343 135 343 372 0 289-185 446-480 451-198 4-349-81-449-187 26-36 42-83 76-111 60-25 93 39 140 65 62 34 135 75 239 72" id="aK"/><g id="h"><use transform="matrix(0.011111111111111112,0,0,0.011111111111111112,0,0)" xlink:href="#aK"/><use transform="matrix(0.011111111111111112,0,0,0.011111111111111112,11.777777777777779,0)" xlink:href="#ax"/><use transform="matrix(0.011111111111111112,0,0,0.011111111111111112,24.133333333333333,0)" xlink:href="#ay"/><use transform="matrix(0.011111111111111112,0,0,0.011111111111111112,31.62222222222222,0)" xlink:href="#an"/><use transform="matrix(0.011111111111111112,0,0,0.011111111111111112,39.91111111111111,0)" xlink:href="#az"/><use transform="matrix(0.011111111111111112,0,0,0.011111111111111112,56.93333333333334,0)" xlink:href="#am"/><use transform="matrix(0.011111111111111112,0,0,0.011111111111111112,68.2,0)" xlink:href="#aA"/><use transform="matrix(0.011111111111111112,0,0,0.011111111111111112,77.15555555555557,0)" xlink:href="#ao"/></g><path fill="#333" d="M103-704c0-220 160-326 384-326 92 0 169 21 228 57h275c-2 53 13 100-42 108l-115 16c43 79 45 196 5 279-58 120-176 191-351 193-47 0-92-6-134-17-50 22-100 108-36 142 165 88 511-13 621 164 40 65 36 170-4 240-77 134-229 213-441 213-193 0-343-50-415-167-19-32-28-66-28-101 3-117 84-175 178-211-54-27-98-64-94-143 4-90 64-137 129-173-91-51-160-139-160-274zM334-85C254-53 162 38 224 138c97 157 586 133 579-83C799-63 659-58 543-68c-70-6-146-6-209-17zm-67-614c0 134 84 204 220 204 137 0 221-69 221-204 0-129-85-203-221-203-135 0-220 74-220 203" id="aL"/><path fill="#333" d="M598-887c-125 2-207 68-274 141V0H146v-1473h178v596c81-82 173-152 326-152 232 0 339 151 339 384V0H811v-645c0-149-65-244-213-242" id="aM"/><g id="i"><use transform="matrix(0.011111111111111112,0,0,0.011111111111111112,0,0)" xlink:href="#aF"/><use transform="matrix(0.011111111111111112,0,0,0.011111111111111112,10.377777777777778,0)" xlink:href="#ax"/><use transform="matrix(0.011111111111111112,0,0,0.011111111111111112,22.733333333333334,0)" xlink:href="#aH"/><use transform="matrix(0.011111111111111112,0,0,0.011111111111111112,34.711111111111116,0)" xlink:href="#aE"/><use transform="matrix(0.011111111111111112,0,0,0.011111111111111112,46.08888888888889,0)" xlink:href="#aA"/><use transform="matrix(0.011111111111111112,0,0,0.011111111111111112,55.044444444444444,0)" xlink:href="#aw"/><use transform="matrix(0.011111111111111112,0,0,0.011111111111111112,60.73333333333335,0)" xlink:href="#aL"/><use transform="matrix(0.011111111111111112,0,0,0.011111111111111112,72.0888888888889,0)" xlink:href="#aM"/><use transform="matrix(0.011111111111111112,0,0,0.011111111111111112,84.44444444444446,0)" xlink:href="#an"/></g><path fill="#333" d="M409 293C214 8 88-383 149-866c35-276 133-488 260-685 32 22 70 38 97 65 12 17 8 37-3 57-126 218-214 479-214 800s87 582 214 800c15 26 10 65-15 74" id="aN"/><path fill="#333" d="M154-1268c-66-2-38-100-44-165h974c1 65-2 131-23 173L468-63c-18 34-45 63-98 63H243l602-1182c17-33 34-60 57-86H154" id="aO"/><path fill="#333" d="M1120-517c-7 54 22 140-39 140H903V0H746v-377H111c-66-1-56-79-71-131l697-925h166v916h217zm-374 0c1-215-1-434 2-647 1-20 3-41 6-62L233-517h513" id="aP"/><path fill="#333" d="M178-1551c194 286 322 675 260 1159-35 275-132 490-260 685-32-22-72-36-97-64-13-15-6-42 3-58C209-48 298-307 298-629c0-321-92-580-214-800-41-75 58-89 94-122" id="aQ"/><g id="j"><use transform="matrix(0.011111111111111112,0,0,0.011111111111111112,0,0)" xlink:href="#aN"/><use transform="matrix(0.011111111111111112,0,0,0.011111111111111112,6.666666666666667,0)" xlink:href="#ap"/><use transform="matrix(0.011111111111111112,0,0,0.011111111111111112,19.555555555555557,0)" xlink:href="#aq"/><use transform="matrix(0.011111111111111112,0,0,0.011111111111111112,32.44444444444444,0)" xlink:href="#aO"/><use transform="matrix(0.011111111111111112,0,0,0.011111111111111112,45.33333333333333,0)" xlink:href="#aP"/><use transform="matrix(0.011111111111111112,0,0,0.011111111111111112,58.222222222222214,0)" xlink:href="#aQ"/><use transform="matrix(0.011111111111111112,0,0,0.011111111111111112,64.88888888888889,0)" xlink:href="#aI"/></g><path fill="#333" d="M338-1150c4 31 6 65 6 97V0H174v-1433c59 2 132-6 183 5 10 2 18 13 27 28l495 882c19 31 31 68 45 104 14-38 27-71 46-105l485-881c25-58 137-23 210-33V0h-170c2-381-5-772 4-1147l-491 896c-27 62-134 61-168 0" id="aR"/><path fill="#333" d="M1365-1009c68 170 68 416 0 586C1264-171 1053 0 710 0H174v-1433h536c343 5 555 172 655 424zM710-157c338-11 507-216 507-559s-169-560-507-560H369v1119h341" id="aS"/><g id="k"><use transform="matrix(0.011111111111111112,0,0,0.011111111111111112,0,0)" xlink:href="#aR"/><use transform="matrix(0.011111111111111112,0,0,0.011111111111111112,20.444444444444446,0)" xlink:href="#aK"/><use transform="matrix(0.011111111111111112,0,0,0.011111111111111112,32.22222222222223,0)" xlink:href="#aS"/><use transform="matrix(0.011111111111111112,0,0,0.011111111111111112,48.95555555555557,0)" xlink:href="#ax"/><use transform="matrix(0.011111111111111112,0,0,0.011111111111111112,61.31111111111111,0)" xlink:href="#au"/></g><g id="l"><use transform="matrix(0.011111111111111112,0,0,0.011111111111111112,0,0)" xlink:href="#aw"/><use transform="matrix(0.011111111111111112,0,0,0.011111111111111112,5.688888888888889,0)" xlink:href="#au"/></g><path fill="#333" d="M510-1031c133 0 210 49 277 120v-562h178V0c-60-6-146 21-154-37l-16-123C716-67 616 14 455 14 173 14 72-209 72-503c0-237 94-406 254-487 54-27 115-41 184-41zM256-503c2 212 53 373 258 373 136 0 207-69 273-153v-490c-57-77-121-119-237-119-208 0-296 164-294 389" id="aT"/><g id="m"><use transform="matrix(0.011111111111111112,0,0,0.011111111111111112,0,0)" xlink:href="#aA"/><use transform="matrix(0.011111111111111112,0,0,0.011111111111111112,8.955555555555556,0)" xlink:href="#ao"/><use transform="matrix(0.011111111111111112,0,0,0.011111111111111112,20.6,0)" xlink:href="#aD"/><use transform="matrix(0.011111111111111112,0,0,0.011111111111111112,26.28888888888889,0)" xlink:href="#ao"/><use transform="matrix(0.011111111111111112,0,0,0.011111111111111112,37.93333333333334,0)" xlink:href="#am"/><use transform="matrix(0.011111111111111112,0,0,0.011111111111111112,49.2,0)" xlink:href="#au"/><use transform="matrix(0.011111111111111112,0,0,0.011111111111111112,58.84444444444445,0)" xlink:href="#ao"/><use transform="matrix(0.011111111111111112,0,0,0.011111111111111112,70.4888888888889,0)" xlink:href="#aT"/><use transform="matrix(0.011111111111111112,0,0,0.011111111111111112,82.91111111111111,0)" xlink:href="#aI"/></g><g id="n"><use transform="matrix(0.011111111111111112,0,0,0.011111111111111112,0,0)" xlink:href="#av"/><use transform="matrix(0.011111111111111112,0,0,0.011111111111111112,14.311111111111112,0)" xlink:href="#aw"/><use transform="matrix(0.011111111111111112,0,0,0.011111111111111112,20,0)" xlink:href="#aF"/><use transform="matrix(0.011111111111111112,0,0,0.011111111111111112,30.37777777777778,0)" xlink:href="#aM"/><use transform="matrix(0.011111111111111112,0,0,0.011111111111111112,42.733333333333334,0)" xlink:href="#am"/><use transform="matrix(0.011111111111111112,0,0,0.011111111111111112,54,0)" xlink:href="#aA"/><use transform="matrix(0.011111111111111112,0,0,0.011111111111111112,62.955555555555556,0)" xlink:href="#aT"/></g><g id="o"><use transform="matrix(0.011111111111111112,0,0,0.011111111111111112,0,0)" xlink:href="#aK"/><use transform="matrix(0.011111111111111112,0,0,0.011111111111111112,11.777777777777779,0)" xlink:href="#an"/><use transform="matrix(0.011111111111111112,0,0,0.011111111111111112,20.06666666666667,0)" xlink:href="#am"/><use transform="matrix(0.011111111111111112,0,0,0.011111111111111112,31.333333333333336,0)" xlink:href="#aD"/><use transform="matrix(0.011111111111111112,0,0,0.011111111111111112,37.022222222222226,0)" xlink:href="#aD"/><use transform="matrix(0.011111111111111112,0,0,0.011111111111111112,42.711111111111116,0)" xlink:href="#aG"/><use transform="matrix(0.011111111111111112,0,0,0.011111111111111112,60.955555555555556,0)" xlink:href="#am"/><use transform="matrix(0.011111111111111112,0,0,0.011111111111111112,72.22222222222223,0)" xlink:href="#aC"/></g><g id="p"><use transform="matrix(0.011111111111111112,0,0,0.011111111111111112,0,0)" xlink:href="#au"/><use transform="matrix(0.011111111111111112,0,0,0.011111111111111112,9.644444444444444,0)" xlink:href="#an"/><use transform="matrix(0.011111111111111112,0,0,0.011111111111111112,17.933333333333334,0)" xlink:href="#am"/><use transform="matrix(0.011111111111111112,0,0,0.011111111111111112,29.200000000000003,0)" xlink:href="#aA"/><use transform="matrix(0.011111111111111112,0,0,0.011111111111111112,38.15555555555556,0)" xlink:href="#an"/><use transform="matrix(0.011111111111111112,0,0,0.011111111111111112,46.44444444444444,0)" xlink:href="#au"/></g><path fill="#333" d="M1344-139C1208-39 1036 20 799 16c-345-5-555-181-657-435-70-174-66-421 0-596 113-299 413-484 839-421 148 22 259 85 350 168l-55 88c-38 58-99 7-135-18-118-82-379-113-543-44-193 82-310 256-310 526 0 276 118 454 313 536 175 73 436 36 567-45v-316H946c-65 1-35-91-42-148h440v550" id="aU"/><path fill="#333" d="M340-1114c9 364 1 744 4 1114H174v-1433c45 2 105-6 138 7 9 3 18 13 29 26l830 1080c-4-32-5-64-5-98v-1015h170V0c-46-3-102 7-136-8-10-5-21-14-31-27" id="aV"/><path fill="#333" d="M353-563c7 250 130 409 378 409s377-159 377-408v-871h193v871c-5 275-133 450-332 535-136 58-340 59-476 0-200-85-333-259-333-535v-871h193v870" id="aW"/><g id="q"><use transform="matrix(0.011111111111111112,0,0,0.011111111111111112,0,0)" xlink:href="#aU"/><use transform="matrix(0.011111111111111112,0,0,0.011111111111111112,16.31111111111111,0)" xlink:href="#aV"/><use transform="matrix(0.011111111111111112,0,0,0.011111111111111112,33.111111111111114,0)" xlink:href="#aW"/></g><g id="r"><use transform="matrix(0.011111111111111112,0,0,0.011111111111111112,0,0)" xlink:href="#ax"/><use transform="matrix(0.011111111111111112,0,0,0.011111111111111112,12.355555555555556,0)" xlink:href="#aH"/><use transform="matrix(0.011111111111111112,0,0,0.011111111111111112,24.622222222222224,0)" xlink:href="#ao"/><use transform="matrix(0.011111111111111112,0,0,0.011111111111111112,36.266666666666666,0)" xlink:href="#aA"/><use transform="matrix(0.011111111111111112,0,0,0.011111111111111112,44.8,0)" xlink:href="#am"/><use transform="matrix(0.011111111111111112,0,0,0.011111111111111112,56.066666666666656,0)" xlink:href="#an"/><use transform="matrix(0.011111111111111112,0,0,0.011111111111111112,64.35555555555555,0)" xlink:href="#aw"/><use transform="matrix(0.011111111111111112,0,0,0.011111111111111112,70.04444444444444,0)" xlink:href="#aC"/><use transform="matrix(0.011111111111111112,0,0,0.011111111111111112,82.39999999999999,0)" xlink:href="#aL"/></g><g id="s"><use transform="matrix(0.011111111111111112,0,0,0.011111111111111112,0,0)" xlink:href="#au"/><use transform="matrix(0.011111111111111112,0,0,0.011111111111111112,9.644444444444444,0)" xlink:href="#aE"/><use transform="matrix(0.011111111111111112,0,0,0.011111111111111112,21.022222222222222,0)" xlink:href="#au"/><use transform="matrix(0.011111111111111112,0,0,0.011111111111111112,30.666666666666664,0)" xlink:href="#an"/><use transform="matrix(0.011111111111111112,0,0,0.011111111111111112,38.955555555555556,0)" xlink:href="#ao"/><use transform="matrix(0.011111111111111112,0,0,0.011111111111111112,50.6,0)" xlink:href="#aG"/><use transform="matrix(0.011111111111111112,0,0,0.011111111111111112,68.84444444444445,0)" xlink:href="#aI"/></g><path fill="#333" d="M1057-1433v158H369v476h557v152H369v489h688V0H174v-1433h883" id="aX"/><path fill="#333" d="M608 14c-142 0-221-61-286-144-9 50 6 130-55 130H152v-1473h179v606c78-87 176-162 331-162 283 0 384 222 384 516 0 237-93 406-254 487-54 27-116 40-184 40zm254-527c-2-212-53-374-258-374-136 0-207 69-273 153v490c56 77 120 120 237 120 208 0 296-164 294-389" id="aY"/><g id="t"><use transform="matrix(0.011111111111111112,0,0,0.011111111111111112,0,0)" xlink:href="#aX"/><use transform="matrix(0.011111111111111112,0,0,0.011111111111111112,12.911111111111111,0)" xlink:href="#au"/><use transform="matrix(0.011111111111111112,0,0,0.011111111111111112,22.555555555555557,0)" xlink:href="#an"/><use transform="matrix(0.011111111111111112,0,0,0.011111111111111112,30.844444444444452,0)" xlink:href="#am"/><use transform="matrix(0.011111111111111112,0,0,0.011111111111111112,42.111111111111114,0)" xlink:href="#aY"/><use transform="matrix(0.011111111111111112,0,0,0.011111111111111112,54.53333333333334,0)" xlink:href="#aD"/><use transform="matrix(0.011111111111111112,0,0,0.011111111111111112,60.22222222222222,0)" xlink:href="#aw"/><use transform="matrix(0.011111111111111112,0,0,0.011111111111111112,65.91111111111111,0)" xlink:href="#au"/><use transform="matrix(0.011111111111111112,0,0,0.011111111111111112,75.55555555555556,0)" xlink:href="#aM"/><use transform="matrix(0.011111111111111112,0,0,0.011111111111111112,87.91111111111111,0)" xlink:href="#aG"/><use transform="matrix(0.011111111111111112,0,0,0.011111111111111112,106.15555555555557,0)" xlink:href="#ao"/><use transform="matrix(0.011111111111111112,0,0,0.011111111111111112,117.80000000000001,0)" xlink:href="#aC"/><use transform="matrix(0.011111111111111112,0,0,0.011111111111111112,130.15555555555557,0)" xlink:href="#an"/></g><g id="u"><use transform="matrix(0.011111111111111112,0,0,0.011111111111111112,0,0)" xlink:href="#an"/><use transform="matrix(0.011111111111111112,0,0,0.011111111111111112,8.28888888888889,0)" xlink:href="#aM"/><use transform="matrix(0.011111111111111112,0,0,0.011111111111111112,20.644444444444446,0)" xlink:href="#ao"/></g><path fill="#333" d="M1057-1433v158H369v501h588v158H369V0H174v-1433h883" id="aZ"/><g id="v"><use transform="matrix(0.011111111111111112,0,0,0.011111111111111112,0,0)" xlink:href="#aZ"/><use transform="matrix(0.011111111111111112,0,0,0.011111111111111112,11.911111111111111,0)" xlink:href="#aA"/><use transform="matrix(0.011111111111111112,0,0,0.011111111111111112,20.866666666666667,0)" xlink:href="#ao"/><use transform="matrix(0.011111111111111112,0,0,0.011111111111111112,32.51111111111111,0)" xlink:href="#ao"/></g><g id="w"><use transform="matrix(0.011111111111111112,0,0,0.011111111111111112,0,0)" xlink:href="#aK"/><use transform="matrix(0.011111111111111112,0,0,0.011111111111111112,11.777777777777779,0)" xlink:href="#ax"/><use transform="matrix(0.011111111111111112,0,0,0.011111111111111112,24.133333333333333,0)" xlink:href="#ay"/><use transform="matrix(0.011111111111111112,0,0,0.011111111111111112,31.62222222222222,0)" xlink:href="#an"/><use transform="matrix(0.011111111111111112,0,0,0.011111111111111112,39.91111111111111,0)" xlink:href="#az"/><use transform="matrix(0.011111111111111112,0,0,0.011111111111111112,56.93333333333334,0)" xlink:href="#am"/><use transform="matrix(0.011111111111111112,0,0,0.011111111111111112,68.2,0)" xlink:href="#aA"/><use transform="matrix(0.011111111111111112,0,0,0.011111111111111112,77.15555555555557,0)" xlink:href="#ao"/></g><path fill="#333" d="M461 16c-231 0-339-149-339-383v-646h178v646c0 148 67 243 213 241 125-2 207-66 274-140v-747h178V0c-60-6-146 22-154-37l-14-109C716-60 619 16 461 16" id="ba"/><g id="x"><use transform="matrix(0.011111111111111112,0,0,0.011111111111111112,0,0)" xlink:href="#aZ"/><use transform="matrix(0.011111111111111112,0,0,0.011111111111111112,11.799999999999997,0)" xlink:href="#ax"/><use transform="matrix(0.011111111111111112,0,0,0.011111111111111112,24.155555555555555,0)" xlink:href="#ba"/><use transform="matrix(0.011111111111111112,0,0,0.011111111111111112,36.51111111111111,0)" xlink:href="#aC"/><use transform="matrix(0.011111111111111112,0,0,0.011111111111111112,48.86666666666667,0)" xlink:href="#aT"/><use transform="matrix(0.011111111111111112,0,0,0.011111111111111112,61.28888888888889,0)" xlink:href="#am"/><use transform="matrix(0.011111111111111112,0,0,0.011111111111111112,72.55555555555556,0)" xlink:href="#an"/><use transform="matrix(0.011111111111111112,0,0,0.011111111111111112,80.84444444444445,0)" xlink:href="#aw"/><use transform="matrix(0.011111111111111112,0,0,0.011111111111111112,86.53333333333333,0)" xlink:href="#ax"/><use transform="matrix(0.011111111111111112,0,0,0.011111111111111112,98.88888888888889,0)" xlink:href="#aC"/></g><g id="y"><use transform="matrix(0.011111111111111112,0,0,0.011111111111111112,0,0)" xlink:href="#am"/><use transform="matrix(0.011111111111111112,0,0,0.011111111111111112,11.266666666666667,0)" xlink:href="#aC"/><use transform="matrix(0.011111111111111112,0,0,0.011111111111111112,23.622222222222224,0)" xlink:href="#aT"/></g><g id="z"><use transform="matrix(0.011111111111111112,0,0,0.011111111111111112,0,0)" xlink:href="#ao"/><use transform="matrix(0.011111111111111112,0,0,0.011111111111111112,11.644444444444446,0)" xlink:href="#aG"/><use transform="matrix(0.011111111111111112,0,0,0.011111111111111112,29.88888888888889,0)" xlink:href="#ao"/><use transform="matrix(0.011111111111111112,0,0,0.011111111111111112,41.53333333333333,0)" xlink:href="#aA"/><use transform="matrix(0.011111111111111112,0,0,0.011111111111111112,50.488888888888894,0)" xlink:href="#aL"/><use transform="matrix(0.011111111111111112,0,0,0.011111111111111112,61.844444444444434,0)" xlink:href="#ao"/><use transform="matrix(0.011111111111111112,0,0,0.011111111111111112,73.48888888888888,0)" xlink:href="#aC"/><use transform="matrix(0.011111111111111112,0,0,0.011111111111111112,85.84444444444443,0)" xlink:href="#aF"/><use transform="matrix(0.011111111111111112,0,0,0.011111111111111112,96.2222222222222,0)" xlink:href="#ao"/></g><path fill="#333" d="M1454-1012c68 174 68 418 0 592-101 256-310 435-656 435S243-165 143-420c-68-174-68-418 0-592 101-256 309-437 655-437s556 181 656 437zM798-153c339 0 508-219 508-563 0-268-108-446-298-526-121-52-298-52-419 0-190 80-299 258-299 526s109 444 299 524c63 26 132 39 209 39" id="bb"/><g id="A"><use transform="matrix(0.011111111111111112,0,0,0.011111111111111112,0,0)" xlink:href="#bb"/><use transform="matrix(0.011111111111111112,0,0,0.011111111111111112,17.733333333333334,0)" xlink:href="#aH"/><use transform="matrix(0.011111111111111112,0,0,0.011111111111111112,30,0)" xlink:href="#ao"/><use transform="matrix(0.011111111111111112,0,0,0.011111111111111112,41.644444444444446,0)" xlink:href="#aC"/></g><g id="B"><use transform="matrix(0.011111111111111112,0,0,0.011111111111111112,0,0)" xlink:href="#aK"/><use transform="matrix(0.011111111111111112,0,0,0.011111111111111112,11.777777777777779,0)" xlink:href="#ax"/><use transform="matrix(0.011111111111111112,0,0,0.011111111111111112,24.133333333333333,0)" xlink:href="#ba"/><use transform="matrix(0.011111111111111112,0,0,0.011111111111111112,36.48888888888889,0)" xlink:href="#aA"/><use transform="matrix(0.011111111111111112,0,0,0.011111111111111112,45.44444444444444,0)" xlink:href="#aF"/><use transform="matrix(0.011111111111111112,0,0,0.011111111111111112,55.82222222222222,0)" xlink:href="#ao"/></g><g id="C"><use transform="matrix(0.011111111111111112,0,0,0.011111111111111112,0,0)" xlink:href="#aS"/><use transform="matrix(0.011111111111111112,0,0,0.011111111111111112,16.733333333333334,0)" xlink:href="#ao"/><use transform="matrix(0.011111111111111112,0,0,0.011111111111111112,28.37777777777778,0)" xlink:href="#ay"/><use transform="matrix(0.011111111111111112,0,0,0.011111111111111112,35.86666666666667,0)" xlink:href="#aw"/><use transform="matrix(0.011111111111111112,0,0,0.011111111111111112,41.55555555555556,0)" xlink:href="#aC"/><use transform="matrix(0.011111111111111112,0,0,0.011111111111111112,53.91111111111111,0)" xlink:href="#aw"/><use transform="matrix(0.011111111111111112,0,0,0.011111111111111112,59.6,0)" xlink:href="#an"/><use transform="matrix(0.011111111111111112,0,0,0.011111111111111112,67.88888888888889,0)" xlink:href="#aw"/><use transform="matrix(0.011111111111111112,0,0,0.011111111111111112,73.57777777777777,0)" xlink:href="#ax"/><use transform="matrix(0.011111111111111112,0,0,0.011111111111111112,85.93333333333332,0)" xlink:href="#aC"/><use transform="matrix(0.011111111111111112,0,0,0.011111111111111112,98.28888888888888,0)" xlink:href="#aI"/></g><g id="D"><use transform="matrix(0.011111111111111112,0,0,0.011111111111111112,0,0)" xlink:href="#aR"/><use transform="matrix(0.011111111111111112,0,0,0.011111111111111112,20.444444444444446,0)" xlink:href="#aw"/><use transform="matrix(0.011111111111111112,0,0,0.011111111111111112,26.133333333333333,0)" xlink:href="#aT"/></g><g id="E"><use transform="matrix(0.011111111111111112,0,0,0.011111111111111112,0,0)" xlink:href="#ap"/><use transform="matrix(0.011111111111111112,0,0,0.011111111111111112,12.88888888888889,0)" xlink:href="#aq"/><use transform="matrix(0.011111111111111112,0,0,0.011111111111111112,25.77777777777778,0)" xlink:href="#aO"/><use transform="matrix(0.011111111111111112,0,0,0.011111111111111112,38.66666666666667,0)" xlink:href="#as"/><use transform="matrix(0.011111111111111112,0,0,0.011111111111111112,51.55555555555556,0)" xlink:href="#at"/><use transform="matrix(0.011111111111111112,0,0,0.011111111111111112,56.66666666666667,0)" xlink:href="#au"/><use transform="matrix(0.011111111111111112,0,0,0.011111111111111112,66.31111111111112,0)" xlink:href="#aB"/></g><g id="F"><use transform="matrix(0.011111111111111112,0,0,0.011111111111111112,0,0)" xlink:href="#aX"/><use transform="matrix(0.011111111111111112,0,0,0.011111111111111112,12.911111111111111,0)" xlink:href="#am"/><use transform="matrix(0.011111111111111112,0,0,0.011111111111111112,24.177777777777777,0)" xlink:href="#aA"/><use transform="matrix(0.011111111111111112,0,0,0.011111111111111112,33.13333333333333,0)" xlink:href="#aD"/><use transform="matrix(0.011111111111111112,0,0,0.011111111111111112,38.82222222222222,0)" xlink:href="#aE"/></g><path fill="#333" d="M784-747c164 46 278 155 278 355 0 277-201 408-483 408-221 0-376-86-448-238-23-50-35-107-35-170 1-199 114-309 278-355-136-49-228-153-228-325 0-187 113-294 256-348 102-39 251-39 354 0 144 54 256 161 256 348 0 172-93 276-228 325zM280-395c0 178 117 269 299 269s299-91 299-269c0-186-117-276-299-276s-299 90-299 276zm40-674c0 163 92 255 259 255s259-92 259-255c0-156-98-242-259-242s-259 86-259 242" id="bc"/><g id="G"><use transform="matrix(0.011111111111111112,0,0,0.011111111111111112,0,0)" xlink:href="#bc"/><use transform="matrix(0.011111111111111112,0,0,0.011111111111111112,12.88888888888889,0)" xlink:href="#as"/><use transform="matrix(0.011111111111111112,0,0,0.011111111111111112,25.77777777777778,0)" xlink:href="#at"/><use transform="matrix(0.011111111111111112,0,0,0.011111111111111112,30.88888888888889,0)" xlink:href="#au"/></g><g id="H"><use transform="matrix(0.011111111111111112,0,0,0.011111111111111112,0,0)" xlink:href="#al"/><use transform="matrix(0.011111111111111112,0,0,0.011111111111111112,11.422222222222222,0)" xlink:href="#aw"/><use transform="matrix(0.011111111111111112,0,0,0.011111111111111112,17.11111111111111,0)" xlink:href="#aC"/><use transform="matrix(0.011111111111111112,0,0,0.011111111111111112,29.46666666666667,0)" xlink:href="#ba"/><use transform="matrix(0.011111111111111112,0,0,0.011111111111111112,41.82222222222222,0)" xlink:href="#au"/></g><path fill="#333" d="M1150-1433v163H687V0H493v-1270H28v-163h1122" id="bd"/><path fill="#333" d="M18-1013h146c28-1 47 18 55 37l257 652c18 45 27 93 37 143 12-50 22-98 40-143l260-652c17-60 123-30 192-37L592 0H431" id="be"/><g id="I"><use transform="matrix(0.011111111111111112,0,0,0.011111111111111112,0,0)" xlink:href="#bd"/><use transform="matrix(0.011111111111111112,0,0,0.011111111111111112,10.777777777777779,0)" xlink:href="#ax"/><use transform="matrix(0.011111111111111112,0,0,0.011111111111111112,23.133333333333333,0)" xlink:href="#aA"/><use transform="matrix(0.011111111111111112,0,0,0.011111111111111112,32.08888888888889,0)" xlink:href="#be"/><use transform="matrix(0.011111111111111112,0,0,0.011111111111111112,43.46666666666667,0)" xlink:href="#am"/><use transform="matrix(0.011111111111111112,0,0,0.011111111111111112,54.733333333333334,0)" xlink:href="#aD"/></g><g id="J"><use transform="matrix(0.011111111111111112,0,0,0.011111111111111112,0,0)" xlink:href="#aA"/><use transform="matrix(0.011111111111111112,0,0,0.011111111111111112,8.955555555555556,0)" xlink:href="#ao"/><use transform="matrix(0.011111111111111112,0,0,0.011111111111111112,20.6,0)" xlink:href="#aD"/><use transform="matrix(0.011111111111111112,0,0,0.011111111111111112,26.28888888888889,0)" xlink:href="#ao"/><use transform="matrix(0.011111111111111112,0,0,0.011111111111111112,37.93333333333334,0)" xlink:href="#am"/><use transform="matrix(0.011111111111111112,0,0,0.011111111111111112,49.2,0)" xlink:href="#au"/><use transform="matrix(0.011111111111111112,0,0,0.011111111111111112,58.84444444444445,0)" xlink:href="#ao"/><use transform="matrix(0.011111111111111112,0,0,0.011111111111111112,70.4888888888889,0)" xlink:href="#au"/></g><path fill="#333" d="M383-519L42-1013h171c30 0 38 9 50 27l248 380c6-19 14-38 26-56l218-320c12-15 21-30 45-31h164L623-529 978 0H807c-30 1-44-19-55-37L497-434c-5 19-11 37-21 52L240-37c-13 16-24 37-53 37H28" id="bf"/><g id="K"><use transform="matrix(0.011111111111111112,0,0,0.011111111111111112,0,0)" xlink:href="#al"/><use transform="matrix(0.011111111111111112,0,0,0.011111111111111112,11.422222222222222,0)" xlink:href="#aw"/><use transform="matrix(0.011111111111111112,0,0,0.011111111111111112,17.11111111111111,0)" xlink:href="#aC"/><use transform="matrix(0.011111111111111112,0,0,0.011111111111111112,29.46666666666667,0)" xlink:href="#ba"/><use transform="matrix(0.011111111111111112,0,0,0.011111111111111112,41.82222222222222,0)" xlink:href="#bf"/></g><path fill="#333" d="M387-805c45-1 103 5 133-9 15-6 30-18 43-33l477-540c28-29 44-46 95-46h165L754-816c-26 27-46 49-79 65 43 14 65 39 93 72L1338 0c-92-7-205 17-256-41L587-610c-25-30-54-46-112-46h-88V0H194v-1433h193v628" id="bg"/><g id="L"><use transform="matrix(0.011111111111111112,0,0,0.011111111111111112,0,0)" xlink:href="#bg"/><use transform="matrix(0.011111111111111112,0,0,0.011111111111111112,14.733333333333334,0)" xlink:href="#ao"/><use transform="matrix(0.011111111111111112,0,0,0.011111111111111112,26.37777777777778,0)" xlink:href="#aA"/><use transform="matrix(0.011111111111111112,0,0,0.011111111111111112,35.333333333333336,0)" xlink:href="#aC"/><use transform="matrix(0.011111111111111112,0,0,0.011111111111111112,47.68888888888889,0)" xlink:href="#ao"/><use transform="matrix(0.011111111111111112,0,0,0.011111111111111112,59.333333333333336,0)" xlink:href="#aD"/></g><g id="M"><use transform="matrix(0.011111111111111112,0,0,0.011111111111111112,0,0)" xlink:href="#ba"/><use transform="matrix(0.011111111111111112,0,0,0.011111111111111112,12.355555555555556,0)" xlink:href="#aC"/><use transform="matrix(0.011111111111111112,0,0,0.011111111111111112,24.711111111111112,0)" xlink:href="#aT"/><use transform="matrix(0.011111111111111112,0,0,0.011111111111111112,37.13333333333333,0)" xlink:href="#ao"/><use transform="matrix(0.011111111111111112,0,0,0.011111111111111112,48.77777777777778,0)" xlink:href="#aA"/></g><use transform="matrix(0.011111111111111112,0,0,0.011111111111111112,0,0)" xlink:href="#am" id="N"/><path fill="#333" d="M617-1433c323 3 534 130 534 444 0 310-216 446-534 453H387V0H194v-1433h423zm340 444c0-197-128-291-340-291H387v590h230c207-4 340-97 340-299" id="bh"/><g id="O"><use transform="matrix(0.011111111111111112,0,0,0.011111111111111112,0,0)" xlink:href="#aU"/><use transform="matrix(0.011111111111111112,0,0,0.011111111111111112,16.31111111111111,0)" xlink:href="#bh"/><use transform="matrix(0.011111111111111112,0,0,0.011111111111111112,29.888888888888886,0)" xlink:href="#al"/></g><g id="P"><use transform="matrix(0.011111111111111112,0,0,0.011111111111111112,0,0)" xlink:href="#aD"/><use transform="matrix(0.011111111111111112,0,0,0.011111111111111112,5.688888888888889,0)" xlink:href="#aw"/><use transform="matrix(0.011111111111111112,0,0,0.011111111111111112,11.377777777777778,0)" xlink:href="#aF"/><use transform="matrix(0.011111111111111112,0,0,0.011111111111111112,21.755555555555556,0)" xlink:href="#ao"/><use transform="matrix(0.011111111111111112,0,0,0.011111111111111112,33.400000000000006,0)" xlink:href="#aC"/><use transform="matrix(0.011111111111111112,0,0,0.011111111111111112,45.75555555555556,0)" xlink:href="#au"/><use transform="matrix(0.011111111111111112,0,0,0.011111111111111112,55.4,0)" xlink:href="#ao"/></g><g id="Q"><use transform="matrix(0.011111111111111112,0,0,0.011111111111111112,0,0)" xlink:href="#aN"/><use transform="matrix(0.011111111111111112,0,0,0.011111111111111112,6.666666666666667,0)" xlink:href="#ap"/><use transform="matrix(0.011111111111111112,0,0,0.011111111111111112,19.555555555555557,0)" xlink:href="#aq"/><use transform="matrix(0.011111111111111112,0,0,0.011111111111111112,32.44444444444444,0)" xlink:href="#aq"/><use transform="matrix(0.011111111111111112,0,0,0.011111111111111112,45.33333333333333,0)" xlink:href="#ap"/><use transform="matrix(0.011111111111111112,0,0,0.011111111111111112,58.222222222222214,0)" xlink:href="#aQ"/><use transform="matrix(0.011111111111111112,0,0,0.011111111111111112,64.88888888888889,0)" xlink:href="#aI"/></g><g id="R"><use transform="matrix(0.011111111111111112,0,0,0.011111111111111112,0,0)" xlink:href="#aX"/><use transform="matrix(0.011111111111111112,0,0,0.011111111111111112,12.911111111111111,0)" xlink:href="#aA"/><use transform="matrix(0.011111111111111112,0,0,0.011111111111111112,21.866666666666667,0)" xlink:href="#aw"/><use transform="matrix(0.011111111111111112,0,0,0.011111111111111112,27.555555555555557,0)" xlink:href="#aF"/></g><g id="S"><use transform="matrix(0.011111111111111112,0,0,0.011111111111111112,0,0)" xlink:href="#aK"/><use transform="matrix(0.011111111111111112,0,0,0.011111111111111112,11.777777777777779,0)" xlink:href="#aI"/><use transform="matrix(0.011111111111111112,0,0,0.011111111111111112,16.48888888888889,0)" xlink:href="#av"/><use transform="matrix(0.011111111111111112,0,0,0.011111111111111112,30.800000000000008,0)" xlink:href="#am"/><use transform="matrix(0.011111111111111112,0,0,0.011111111111111112,41.711111111111116,0)" xlink:href="#aE"/><use transform="matrix(0.011111111111111112,0,0,0.011111111111111112,53.08888888888889,0)" xlink:href="#aG"/><use transform="matrix(0.011111111111111112,0,0,0.011111111111111112,71.33333333333334,0)" xlink:href="#ax"/><use transform="matrix(0.011111111111111112,0,0,0.011111111111111112,83.6888888888889,0)" xlink:href="#aC"/><use transform="matrix(0.011111111111111112,0,0,0.011111111111111112,96.04444444444445,0)" xlink:href="#aT"/><path fill="#8080ff" d="M-1.1.9h110.68V2.2H-1.12z"/></g><g id="T"><use transform="matrix(0.011111111111111112,0,0,0.011111111111111112,0,0)" xlink:href="#bh"/><use transform="matrix(0.011111111111111112,0,0,0.011111111111111112,13.577777777777778,0)" xlink:href="#ba"/><use transform="matrix(0.011111111111111112,0,0,0.011111111111111112,25.933333333333334,0)" xlink:href="#aY"/><use transform="matrix(0.011111111111111112,0,0,0.011111111111111112,38.355555555555554,0)" xlink:href="#aD"/><use transform="matrix(0.011111111111111112,0,0,0.011111111111111112,44.044444444444444,0)" xlink:href="#aw"/><use transform="matrix(0.011111111111111112,0,0,0.011111111111111112,49.733333333333334,0)" xlink:href="#au"/><use transform="matrix(0.011111111111111112,0,0,0.011111111111111112,59.37777777777778,0)" xlink:href="#aM"/><use transform="matrix(0.011111111111111112,0,0,0.011111111111111112,71.73333333333333,0)" xlink:href="#ao"/><use transform="matrix(0.011111111111111112,0,0,0.011111111111111112,83.37777777777778,0)" xlink:href="#aT"/></g><path fill="#333" d="M1289-200C1173-69 1017 19 773 16c-339-4-539-180-634-435-65-176-67-421 3-594 104-257 318-431 668-436 220-3 359 75 476 182-27 35-48 75-79 105-60 21-86-37-135-56-109-71-336-85-474-24-190 83-310 257-310 526 0 268 114 444 301 527 146 65 383 42 487-33 24-17 50-36 75-59 20-19 44-22 62-2" id="bi"/><g id="U"><use transform="matrix(0.011111111111111112,0,0,0.011111111111111112,0,0)" xlink:href="#bi"/><use transform="matrix(0.011111111111111112,0,0,0.011111111111111112,15.222222222222223,0)" xlink:href="#am"/><use transform="matrix(0.011111111111111112,0,0,0.011111111111111112,26.48888888888889,0)" xlink:href="#an"/><use transform="matrix(0.011111111111111112,0,0,0.011111111111111112,34.77777777777778,0)" xlink:href="#aM"/><use transform="matrix(0.011111111111111112,0,0,0.011111111111111112,47.13333333333333,0)" xlink:href="#ao"/><use transform="matrix(0.011111111111111112,0,0,0.011111111111111112,58.77777777777778,0)" xlink:href="#aT"/><use transform="matrix(0.011111111111111112,0,0,0.011111111111111112,71.2,0)" xlink:href="#aA"/><use transform="matrix(0.011111111111111112,0,0,0.011111111111111112,79.73333333333335,0)" xlink:href="#am"/><use transform="matrix(0.011111111111111112,0,0,0.011111111111111112,91.00000000000001,0)" xlink:href="#aD"/></g><path fill="#333" d="M867-737c186 37 317 126 317 329C1184-123 974 0 681 0H174v-1433h457c293 3 505 90 505 374 0 185-121 273-269 322zm126 324c0-168-128-240-316-240H368v499h310c190-2 315-75 315-259zm-50-623c0-184-115-243-312-244H368v489h256c186-3 319-66 319-245" id="bj"/><path fill="#333" d="M853-1013c0 56 1 109-25 144L280-139h553V0H70c-1-55-1-103 25-138l551-735H101v-140h752" id="bk"/><g id="V"><use transform="matrix(0.011111111111111112,0,0,0.011111111111111112,0,0)" xlink:href="#bj"/><use transform="matrix(0.011111111111111112,0,0,0.011111111111111112,14.377777777777778,0)" xlink:href="#am"/><use transform="matrix(0.011111111111111112,0,0,0.011111111111111112,25.644444444444446,0)" xlink:href="#bk"/><use transform="matrix(0.011111111111111112,0,0,0.011111111111111112,35.91111111111111,0)" xlink:href="#am"/><use transform="matrix(0.011111111111111112,0,0,0.011111111111111112,47.17777777777778,0)" xlink:href="#am"/><use transform="matrix(0.011111111111111112,0,0,0.011111111111111112,58.44444444444445,0)" xlink:href="#aA"/><use transform="matrix(0.011111111111111112,0,0,0.011111111111111112,65.93333333333334,0)" xlink:href="#aI"/></g><g id="W"><use transform="matrix(0.011111111111111112,0,0,0.011111111111111112,0,0)" xlink:href="#ap"/><use transform="matrix(0.011111111111111112,0,0,0.011111111111111112,12.88888888888889,0)" xlink:href="#aq"/><use transform="matrix(0.011111111111111112,0,0,0.011111111111111112,25.77777777777778,0)" xlink:href="#aq"/><use transform="matrix(0.011111111111111112,0,0,0.011111111111111112,38.66666666666667,0)" xlink:href="#as"/><use transform="matrix(0.011111111111111112,0,0,0.011111111111111112,51.55555555555556,0)" xlink:href="#at"/><use transform="matrix(0.011111111111111112,0,0,0.011111111111111112,56.66666666666667,0)" xlink:href="#au"/></g><g id="X"><use transform="matrix(0.011111111111111112,0,0,0.011111111111111112,0,0)" xlink:href="#az"/><use transform="matrix(0.011111111111111112,0,0,0.011111111111111112,17.022222222222222,0)" xlink:href="#am"/><use transform="matrix(0.011111111111111112,0,0,0.011111111111111112,28.28888888888889,0)" xlink:href="#au"/></g><g id="Y"><use transform="matrix(0.011111111111111112,0,0,0.011111111111111112,0,0)" xlink:href="#aG"/><use transform="matrix(0.011111111111111112,0,0,0.011111111111111112,18.244444444444444,0)" xlink:href="#am"/><use transform="matrix(0.011111111111111112,0,0,0.011111111111111112,29.511111111111113,0)" xlink:href="#aw"/><use transform="matrix(0.011111111111111112,0,0,0.011111111111111112,35.2,0)" xlink:href="#aC"/><use transform="matrix(0.011111111111111112,0,0,0.011111111111111112,47.55555555555556,0)" xlink:href="#aD"/><use transform="matrix(0.011111111111111112,0,0,0.011111111111111112,53.24444444444445,0)" xlink:href="#aE"/></g><g id="Z"><use transform="matrix(0.011111111111111112,0,0,0.011111111111111112,0,0)" xlink:href="#aT"/><use transform="matrix(0.011111111111111112,0,0,0.011111111111111112,12.422222222222222,0)" xlink:href="#ao"/><use transform="matrix(0.011111111111111112,0,0,0.011111111111111112,23.77777777777778,0)" xlink:href="#be"/><use transform="matrix(0.011111111111111112,0,0,0.011111111111111112,34.86666666666667,0)" xlink:href="#ao"/><use transform="matrix(0.011111111111111112,0,0,0.011111111111111112,46.51111111111111,0)" xlink:href="#aD"/><use transform="matrix(0.011111111111111112,0,0,0.011111111111111112,52.2,0)" xlink:href="#ax"/><use transform="matrix(0.011111111111111112,0,0,0.011111111111111112,64.55555555555556,0)" xlink:href="#aH"/><use transform="matrix(0.011111111111111112,0,0,0.011111111111111112,76.82222222222222,0)" xlink:href="#ao"/><use transform="matrix(0.011111111111111112,0,0,0.011111111111111112,88.46666666666667,0)" xlink:href="#aT"/></g><g id="aa"><use transform="matrix(0.011111111111111112,0,0,0.011111111111111112,0,0)" xlink:href="#aY"/><use transform="matrix(0.011111111111111112,0,0,0.011111111111111112,12.133333333333335,0)" xlink:href="#aE"/></g><g id="ab"><use transform="matrix(0.011111111111111112,0,0,0.011111111111111112,0,0)" xlink:href="#am"/><use transform="matrix(0.011111111111111112,0,0,0.011111111111111112,11.266666666666667,0)" xlink:href="#aF"/><use transform="matrix(0.011111111111111112,0,0,0.011111111111111112,21.644444444444446,0)" xlink:href="#am"/><use transform="matrix(0.011111111111111112,0,0,0.011111111111111112,32.91111111111111,0)" xlink:href="#aT"/><use transform="matrix(0.011111111111111112,0,0,0.011111111111111112,45.333333333333336,0)" xlink:href="#ao"/><use transform="matrix(0.011111111111111112,0,0,0.011111111111111112,56.97777777777778,0)" xlink:href="#aG"/><use transform="matrix(0.011111111111111112,0,0,0.011111111111111112,75.22222222222223,0)" xlink:href="#aw"/><use transform="matrix(0.011111111111111112,0,0,0.011111111111111112,80.91111111111111,0)" xlink:href="#aF"/><use transform="matrix(0.011111111111111112,0,0,0.011111111111111112,91.28888888888889,0)" xlink:href="#au"/></g><g id="ac"><use transform="matrix(0.011111111111111112,0,0,0.011111111111111112,0,0)" xlink:href="#am"/><use transform="matrix(0.011111111111111112,0,0,0.011111111111111112,11.266666666666667,0)" xlink:href="#aC"/><use transform="matrix(0.011111111111111112,0,0,0.011111111111111112,23.622222222222224,0)" xlink:href="#aT"/></g><g id="ad"><use transform="matrix(0.011111111111111112,0,0,0.011111111111111112,0,0)" xlink:href="#aF"/><use transform="matrix(0.011111111111111112,0,0,0.011111111111111112,10.377777777777778,0)" xlink:href="#ax"/><use transform="matrix(0.011111111111111112,0,0,0.011111111111111112,22.733333333333334,0)" xlink:href="#aA"/><use transform="matrix(0.011111111111111112,0,0,0.011111111111111112,31.68888888888889,0)" xlink:href="#aH"/><use transform="matrix(0.011111111111111112,0,0,0.011111111111111112,43.955555555555556,0)" xlink:href="#ax"/><use transform="matrix(0.011111111111111112,0,0,0.011111111111111112,56.31111111111111,0)" xlink:href="#aA"/><use transform="matrix(0.011111111111111112,0,0,0.011111111111111112,64.84444444444443,0)" xlink:href="#am"/><use transform="matrix(0.011111111111111112,0,0,0.011111111111111112,76.1111111111111,0)" xlink:href="#an"/><use transform="matrix(0.011111111111111112,0,0,0.011111111111111112,84.39999999999999,0)" xlink:href="#ao"/></g><g id="ae"><use transform="matrix(0.011111111111111112,0,0,0.011111111111111112,0,0)" xlink:href="#aA"/><use transform="matrix(0.011111111111111112,0,0,0.011111111111111112,8.955555555555556,0)" xlink:href="#ao"/><use transform="matrix(0.011111111111111112,0,0,0.011111111111111112,20.6,0)" xlink:href="#au"/><use transform="matrix(0.011111111111111112,0,0,0.011111111111111112,30.244444444444447,0)" xlink:href="#ao"/><use transform="matrix(0.011111111111111112,0,0,0.011111111111111112,41.88888888888889,0)" xlink:href="#am"/><use transform="matrix(0.011111111111111112,0,0,0.011111111111111112,53.15555555555556,0)" xlink:href="#aA"/><use transform="matrix(0.011111111111111112,0,0,0.011111111111111112,62.111111111111114,0)" xlink:href="#aF"/><use transform="matrix(0.011111111111111112,0,0,0.011111111111111112,72.4888888888889,0)" xlink:href="#aM"/><use transform="matrix(0.011111111111111112,0,0,0.011111111111111112,84.84444444444445,0)" xlink:href="#ao"/><use transform="matrix(0.011111111111111112,0,0,0.011111111111111112,96.4888888888889,0)" xlink:href="#aA"/><use transform="matrix(0.011111111111111112,0,0,0.011111111111111112,105.44444444444444,0)" xlink:href="#au"/><use transform="matrix(0.011111111111111112,0,0,0.011111111111111112,115.08888888888889,0)" xlink:href="#aI"/></g><path fill="#333" d="M14-1433h161c34-1 58 20 66 46 103 352 213 698 311 1054 6 20 8 42 12 65 9-42 17-86 30-123l337-996c11-63 166-65 188 0l335 996c12 35 23 74 32 119 8-42 12-82 24-119l297-996c16-70 135-39 216-46L1576 0h-174l-363-1093c-7-21-14-45-20-72-6 24-12 50-19 72L635 0H461" id="bl"/><path fill="#333" d="M331-1473v867c49 0 82 0 108-28l320-343c20-19 33-36 70-36h162C858-871 723-729 590-586c-9 9-19 16-30 23 25 17 41 39 60 63L1016 0c-81-8-184 18-227-35L456-450c-21-27-31-33-75-34h-50V0H152v-1473h179" id="bm"/><g id="af"><use transform="matrix(0.011111111111111112,0,0,0.011111111111111112,0,0)" xlink:href="#bl"/><use transform="matrix(0.011111111111111112,0,0,0.011111111111111112,22.28888888888889,0)" xlink:href="#ax"/><use transform="matrix(0.011111111111111112,0,0,0.011111111111111112,34.644444444444446,0)" xlink:href="#aA"/><use transform="matrix(0.011111111111111112,0,0,0.011111111111111112,43.6,0)" xlink:href="#bm"/></g><g id="ag"><use transform="matrix(0.011111111111111112,0,0,0.011111111111111112,0,0)" xlink:href="#au"/><use transform="matrix(0.011111111111111112,0,0,0.011111111111111112,9.644444444444444,0)" xlink:href="#aM"/><use transform="matrix(0.011111111111111112,0,0,0.011111111111111112,22,0)" xlink:href="#am"/><use transform="matrix(0.011111111111111112,0,0,0.011111111111111112,33.266666666666666,0)" xlink:href="#aA"/><use transform="matrix(0.011111111111111112,0,0,0.011111111111111112,42.22222222222222,0)" xlink:href="#ao"/><use transform="matrix(0.011111111111111112,0,0,0.011111111111111112,53.86666666666667,0)" xlink:href="#aT"/></g><g id="ah"><use transform="matrix(0.011111111111111112,0,0,0.011111111111111112,0,0)" xlink:href="#aw"/><use transform="matrix(0.011111111111111112,0,0,0.011111111111111112,5.688888888888889,0)" xlink:href="#aC"/></g><path fill="#333" d="M631-13C493 48 319-2 256-100l-54 443H29l165-1357c68 2 156-16 149 60l-17 216c69-116 153-218 281-270 36-14 73-20 110-20 193 5 277 155 273 369-5 258-101 444-240 571-36 33-76 57-119 75zm141-389c59-157 83-494-122-483-146 8-215 132-278 242-28 48-50 103-69 161l-32 258c50 85 188 130 298 78 101-47 162-147 203-256" id="bn"/><path fill="#333" d="M335 14C143 15 77-159 102-369l76-644h177c-26 240-81 471-81 717 0 101 31 162 127 162 138 0 211-109 273-207 27-43 49-92 68-145l63-527h177L860 0c-68-2-157 16-153-57 3-65 10-129 15-191-54 86-114 152-181 196S406 14 335 14" id="bo"/><path fill="#333" d="M505 14c-119 0-204-55-254-131-14 52-8 117-76 117H80l178-1473h175l-88 716c68-107 151-203 274-251 35-13 70-20 106-20 193 5 277 155 273 369-5 258-101 445-240 571C696-32 613 14 505 14zm275-416c59-157 83-494-122-483-145 8-213 131-277 239-28 48-50 102-69 160l-32 263c50 84 187 129 297 77 101-47 162-147 203-256" id="bp"/><path fill="#333" d="M89 0l179-1473h175L264 0H89" id="bq"/><path fill="#333" d="M393-1013L271 0H96l122-1013h175zm-56-446c74 0 123 53 123 128 0 74-51 126-124 126-72 0-120-53-120-126 0-74 49-128 121-128" id="br"/><path fill="#333" d="M820-182C719-74 624 18 422 14 175 9 61-151 61-400c0-275 129-471 310-575 103-59 270-71 377-17 45 24 85 59 119 104-24 26-43 58-71 80-39 17-57-18-82-36-63-46-192-53-268-2-126 84-203 239-207 447-4 188 104 307 299 263 78-18 121-71 176-108 53-36 80 38 106 62" id="bs"/><g id="ai"><use transform="matrix(0.011111111111111112,0,0,0.011111111111111112,0,0)" xlink:href="#bn"/><use transform="matrix(0.011111111111111112,0,0,0.011111111111111112,11.533333333333333,0)" xlink:href="#bo"/><use transform="matrix(0.011111111111111112,0,0,0.011111111111111112,23.22222222222222,0)" xlink:href="#bp"/><use transform="matrix(0.011111111111111112,0,0,0.011111111111111112,34.91111111111111,0)" xlink:href="#bq"/><use transform="matrix(0.011111111111111112,0,0,0.011111111111111112,40.21111111111111,0)" xlink:href="#br"/><use transform="matrix(0.011111111111111112,0,0,0.011111111111111112,45.644444444444446,0)" xlink:href="#bs"/></g><path fill="#333" d="M547-1028c109 0 189 47 240 112l69-557h175L849 0h-92c-44 1-63-24-60-62l19-211C647-159 563-57 436-6c-36 14-72 20-109 20C133 10 50-141 54-355c5-257 100-447 240-572 62-56 145-101 253-101zM254-554c-44 167-43 425 140 425 145 0 213-130 276-237 28-47 49-101 68-158l33-268c-58-98-237-130-341-50-84 65-144 169-176 288" id="bt"/><path fill="#333" d="M235-408c-1 169 59 283 214 283 178 0 257-149 300-300 16-58 23-119 23-182 1-168-60-282-214-282-179 0-257 148-300 299-17 58-23 119-23 182zm339-621c250 0 377 166 377 421 0 277-129 473-314 572-63 34-131 50-204 50C183 14 56-152 56-407c0-277 129-474 314-573 63-33 131-49 204-49" id="bu"/><path fill="#333" d="M720-645c12-110 21-244-99-235-135 10-195 105-250 204-24 43-43 93-62 148L246 0H72l122-1014c68 2 156-16 149 60l-14 181c50-84 105-148 164-191s122-64 188-64c150 2 200 113 201 272 51-93 107-162 170-206s130-66 199-66c195 0 240 179 216 383L1391 0h-175l76-645c13-113 15-243-103-235-127 9-189 96-243 188-24 40-44 88-62 141L819 0H643" id="bv"/><path fill="#333" d="M314 14C120 14 49-141 49-343c0-285 143-462 315-587 132-96 396-132 574-50L817 0h-92c-44 1-63-24-60-62l18-205C619-155 541-56 420-6c-34 13-69 20-106 20zm438-903c-292-39-444 147-509 379-12 43-16 89-16 135 0 210 112 297 250 211 119-74 212-218 232-377" id="bw"/><path fill="#333" d="M775-645c15-122 0-244-121-235-142 10-215 112-278 214-27 44-49 96-68 151L250 0H72l121-1014c68 2 156-16 149 60l-15 196c54-89 115-157 183-202s137-68 210-68c193-2 258 172 233 383L877 0H699" id="bx"/><g id="aj"><use transform="matrix(0.011111111111111112,0,0,0.011111111111111112,0,0)" xlink:href="#bt"/><use transform="matrix(0.011111111111111112,0,0,0.011111111111111112,11.711111111111112,0)" xlink:href="#bu"/><use transform="matrix(0.011111111111111112,0,0,0.011111111111111112,22.900000000000002,0)" xlink:href="#bv"/><use transform="matrix(0.011111111111111112,0,0,0.011111111111111112,40.333333333333336,0)" xlink:href="#bw"/><use transform="matrix(0.011111111111111112,0,0,0.011111111111111112,51.57777777777778,0)" xlink:href="#br"/><use transform="matrix(0.011111111111111112,0,0,0.011111111111111112,57.01111111111112,0)" xlink:href="#bx"/><use transform="matrix(0.011111111111111112,0,0,0.011111111111111112,68.72222222222223,0)" xlink:href="#aI"/></g><path fill="#333" d="M527-768c-86 0-160 15-232 38l-112-33 116-670h679c7 99-4 165-105 165H423l-66 376c75-16 144-24 207-24 286 0 458 152 458 433 0 245-132 392-313 464-129 52-317 40-432-11-63-28-123-63-169-105 34-42 67-137 146-87 68 43 146 88 262 85 210-6 326-128 326-338 0-197-116-293-315-293" id="by"/><g id="ak"><use transform="matrix(0.011111111111111112,0,0,0.011111111111111112,0,0)" xlink:href="#ap"/><use transform="matrix(0.011111111111111112,0,0,0.011111111111111112,12.88888888888889,0)" xlink:href="#aq"/><use transform="matrix(0.011111111111111112,0,0,0.011111111111111112,25.77777777777778,0)" xlink:href="#by"/><use transform="matrix(0.011111111111111112,0,0,0.011111111111111112,38.66666666666667,0)" xlink:href="#as"/><use transform="matrix(0.011111111111111112,0,0,0.011111111111111112,51.55555555555556,0)" xlink:href="#aB"/><use transform="matrix(0.011111111111111112,0,0,0.011111111111111112,59.266666666666666,0)" xlink:href="#ap"/><use transform="matrix(0.011111111111111112,0,0,0.011111111111111112,72.15555555555555,0)" xlink:href="#aq"/><use transform="matrix(0.011111111111111112,0,0,0.011111111111111112,85.04444444444444,0)" xlink:href="#ar"/><use transform="matrix(0.011111111111111112,0,0,0.011111111111111112,97.93333333333332,0)" xlink:href="#as"/><use transform="matrix(0.011111111111111112,0,0,0.011111111111111112,110.82222222222221,0)" xlink:href="#at"/><use transform="matrix(0.011111111111111112,0,0,0.011111111111111112,115.93333333333332,0)" xlink:href="#au"/></g></defs></g></svg>