<svg xmlns="http://www.w3.org/2000/svg" xmlns:xlink="http://www.w3.org/1999/xlink" xmlns:lucid="lucid" width="1363" height="1583"><g transform="translate(-1563 -2683)" lucid:page-tab-id="0_0"><path d="M1600.86 2728a8 8 0 0 1 8-8H2872a8 8 0 0 1 8 8v1484a8 8 0 0 1-8 8H1608.86a8 8 0 0 1-8-8z" stroke="#333" fill="#fff"/><path d="M2000.7 3022.1c0 55.9-44.78 101.23-100 101.23-55.24 0-100-45.32-100-101.23 0-55.9 44.76-101.23 100-101.23 55.22 0 100 45.32 100 101.23z" stroke="#635dff" stroke-width="2" fill="#9391ff" fill-opacity=".7"/><use xlink:href="#a" transform="matrix(1,0,0,1,1805.6878857227516,2925.866666666667) translate(83.95555555555555 109.11291666666668)"/><path d="M2001.04 3364.57c0 55.9-44.77 101.23-100 101.23s-100-45.32-100-101.23c0-55.9 44.77-101.24 100-101.24s100 45.33 100 101.24z" stroke="#635dff" stroke-width="2" fill="#9391ff" fill-opacity=".7"/><use xlink:href="#b" transform="matrix(1,0,0,1,1806.0371796346194,3268.333333333332) translate(84.86555555555556 109.11291666666668)"/><path d="M2301.4 3364.57c0 55.9-44.8 101.23-100 101.23-55.24 0-100-45.32-100-101.23 0-55.9 44.76-101.24 100-101.24 55.2 0 100 45.33 100 101.24z" stroke="#635dff" stroke-width="2" fill="#9391ff" fill-opacity=".7"/><use xlink:href="#c" transform="matrix(1,0,0,1,2106.386473546481,3268.333333333332) translate(84.57 109.11291666666668)"/><path d="M2301.4 3691.5c0 55.9-44.8 101.22-100 101.22-55.24 0-100-45.32-100-101.23 0-55.92 44.76-101.24 100-101.24 55.2 0 100 45.32 100 101.23z" stroke="#ba23f6" stroke-width="2" fill="#ba23f6" fill-opacity=".31"/><use xlink:href="#d" transform="matrix(1,0,0,1,2106.386473546487,3595.2573014243844) translate(17.821111111111108 109.11291666666668)"/><path d="M2301.04 4004.57c0 55.9-44.77 101.23-100 101.23s-100-45.32-100-101.23c0-55.9 44.77-101.24 100-101.24s100 45.33 100 101.24z" stroke="#635dff" stroke-width="2" fill="#9391ff" fill-opacity=".7"/><use xlink:href="#e" transform="matrix(1,0,0,1,2106.0371796346194,3908.333333333333) translate(83.37222222222222 109.11291666666668)"/><path d="M1901.04 3468.3v211.2a12 12 0 0 0 12 12h166.73" stroke="#6f7681" stroke-width="3" fill="none"/><path d="M1901.04 3466.8l1.5-.03v1.57h-3v-1.58z" stroke="#6f7681" stroke-width=".05" fill="#6f7681"/><path d="M2095.53 3691.5l-14.26 4.63v-9.28z" stroke="#6f7681" stroke-width="3" fill="#6f7681"/><path d="M2201.4 3468.3v100.34" stroke="#6f7681" stroke-width="3" fill="none"/><path d="M2201.38 3466.8l1.5-.03v1.57h-3v-1.58z" stroke="#6f7681" stroke-width=".05" fill="#6f7681"/><path d="M2201.4 3584.4l-4.65-14.26h9.27z" stroke="#6f7681" stroke-width="3" fill="#6f7681"/><path d="M2201.4 3795.22v52.63a.17.17 0 0 1-.2.18.17.17 0 0 0-.16.17v33.5" stroke="#6f7681" stroke-width="3" fill="none"/><path d="M2201.38 3793.72l1.5-.03v1.56h-3v-1.57z" stroke="#6f7681" stroke-width=".05" fill="#6f7681"/><path d="M2201.04 3897.48l-4.64-14.27h9.27z" stroke="#6f7681" stroke-width="3" fill="#6f7681"/><path d="M2541.04 2911.33a8 8 0 0 1 8-8h64a8 8 0 0 1 8 8v570.93a8 8 0 0 1-8 8h-64a8 8 0 0 1-8-8z" fill="none"/><path d="M2541.04 3490.26c5.52 0 10-4.48 10-10V3206.8c0-5.53 4.47-10 10-10-5.53 0-10-4.48-10-10v-273.47c0-5.52-4.48-10-10-10" stroke="#000" stroke-width="3" fill="none"/><use xlink:href="#f" transform="matrix(1,0,0,1,2576.0371796346194,2908.3333333333335) translate(0 259.59333333333336)"/><use xlink:href="#g" transform="matrix(1,0,0,1,2576.0371796346194,2908.3333333333335) translate(0 302.26)"/><use xlink:href="#h" transform="matrix(1,0,0,1,2576.0371796346194,2908.3333333333335) translate(0 344.9266666666666)"/><path d="M2521.04 3882.57a8 8 0 0 1 8-8h64a8 8 0 0 1 8 8v204a8 8 0 0 1-8 8h-64a8 8 0 0 1-8-8z" fill="none"/><path d="M2521.04 4094.57c5.52 0 10-4.48 10-10v-90c0-5.53 4.47-10 10-10-5.53 0-10-4.48-10-10v-90c0-5.53-4.48-10-10-10" stroke="#333" stroke-width="3" fill="none"/><use xlink:href="#i" transform="matrix(1,0,0,1,2556.0371796346194,3879.5666666666675) translate(0 76.09333333333333)"/><use xlink:href="#g" transform="matrix(1,0,0,1,2556.0371796346194,3879.5666666666675) translate(0 118.75999999999999)"/><use xlink:href="#h" transform="matrix(1,0,0,1,2556.0371796346194,3879.5666666666675) translate(0 161.42666666666668)"/><path d="M1620 2688a8 8 0 0 1 8-8h884a8 8 0 0 1 8 8v207.33a8 8 0 0 1-8 8h-884a8 8 0 0 1-8-8z" stroke="#000" stroke-opacity="0" fill="#fff" fill-opacity="0"/><use xlink:href="#j" transform="matrix(1,0,0,1,1625,2685) translate(26.24444444444441 122.03083333333333)"/><use xlink:href="#k" transform="matrix(1,0,0,1,1625,2685) translate(190.4755555555555 122.03083333333333)"/><use xlink:href="#l" transform="matrix(1,0,0,1,1625,2685) translate(256.431111111111 122.03083333333333)"/><use xlink:href="#m" transform="matrix(1,0,0,1,1625,2685) translate(469.79999999999995 122.03083333333333)"/><use xlink:href="#n" transform="matrix(1,0,0,1,1625,2685) translate(506.51111111111106 122.03083333333333)"/><use xlink:href="#o" transform="matrix(1,0,0,1,1625,2685) translate(601.1244444444444 122.03083333333333)"/><use xlink:href="#p" transform="matrix(1,0,0,1,1625,2685) translate(717.9777777777778 122.03083333333333)"/><path d="M1900.7 3125.83v115.9" stroke="#6f7681" stroke-width="3" fill="none"/><path d="M1900.68 3124.33l1.5-.03v1.57h-3v-1.57z" stroke="#6f7681" stroke-width=".05" fill="#6f7681"/><path d="M1900.7 3257.5l-4.65-14.28h9.27z" stroke="#6f7681" stroke-width="3" fill="#6f7681"/><defs><path fill="#333" d="M1417 0h-208c-47 1-77-28-90-61l-108-295H412L304-61c-11 30-46 61-89 61H6l568-1446h275zM481-546h461c-77-218-163-424-231-651-66 230-154 432-230 651" id="q"/><use transform="matrix(0.015555555555555557,0,0,0.015555555555555557,0,0)" xlink:href="#q" id="a"/><path fill="#333" d="M1177-1061c0 181-116 262-257 314 199 45 298 152 298 322C1218-130 997 0 692 0H146v-1446h499c307 3 532 89 532 385zM952-431c0-152-108-202-265-203H415v424h273c163-1 264-65 264-221zm-43-598c0-163-94-209-264-209H415v418h215c168-1 279-50 279-209" id="r"/><use transform="matrix(0.015555555555555557,0,0,0.015555555555555557,0,0)" xlink:href="#r" id="b"/><path fill="#333" d="M1284-209C1170-69 1008 19 759 16c-347-4-553-182-649-442-66-178-66-423 6-596 108-261 330-435 688-440 220-3 375 79 488 188l-90 125c-16 32-68 39-102 12-71-55-162-101-298-96-304 11-465 201-465 510 0 241 101 401 267 477 125 58 330 39 424-24 42-17 97-111 150-54" id="s"/><use transform="matrix(0.015555555555555557,0,0,0.015555555555555557,0,0)" xlink:href="#s" id="c"/><path fill="#333" d="M565-850c-86 0-140 48-186 99V0H132v-1026c80 9 198-29 214 45l16 76c67-72 141-136 276-137 139-1 214 86 253 192 57-117 162-192 328-192 240 0 354 147 354 389V0h-247v-653c1-123-52-197-169-197s-180 76-180 197V0H729v-653c0-127-46-197-164-197" id="t"/><path fill="#333" d="M496 282c-21 85-170 43-266 53L422-76 7-1026h216c39-1 60 21 70 46 80 195 164 386 238 586 7 18 10 37 14 56 74-221 164-427 244-642 9-24 36-46 68-46h198" id="u"/><path fill="#333" d="M788 134v160H0V134h788" id="v"/><path fill="#333" d="M635 15C514 15 442-25 379-85v420H132v-1361c64 5 145-11 192 11 33 24 28 86 42 129 78-86 174-159 331-159 277 0 379 232 379 524 0 241-96 412-258 495-54 27-116 41-183 41zm186-536c0-181-37-329-209-329-117 0-175 55-233 124v460c48 60 104 93 198 93 188 0 244-152 244-348" id="w"/><path fill="#333" d="M604-806c-122 5-180 74-225 167V0H132v-1026c83 11 206-35 218 62l15 124c63-106 147-205 295-205 51 0 93 12 126 35l-32 185c-4 23-15 33-40 33-33 0-65-16-110-14" id="x"/><path fill="#333" d="M361-1005c121-49 297-49 417 0 184 74 298 236 298 490 0 330-178 530-506 530C241 15 61-185 61-515c0-254 115-416 300-490zm-45 492c0 201 65 338 254 338 188 0 251-137 251-338s-63-340-251-340c-189 0-254 139-254 340" id="y"/><path fill="#333" d="M16 177c97 0 132-44 132-142v-1061h247V35c-4 210-111 324-327 325-50 0-86-6-126-19l8-133c7-33 23-31 66-31zm256-1660c96 0 160 62 160 158 0 94-65 155-160 155-93 0-156-62-156-155 0-95 61-158 156-158" id="z"/><path fill="#333" d="M991-153C899-47 760 15 568 15 237 15 63-197 63-535c0-237 116-392 287-467 61-27 129-40 206-40 287 0 444 174 444 465 0 54-3 95-57 95H309c4 226 158 349 385 292 52-13 93-39 132-62 32-19 73-16 93 9zM778-631c-4-143-73-234-217-234-154 0-226 95-247 234h464" id="A"/><path fill="#333" d="M928-153C839-49 712 15 524 15c-227 0-358-131-424-305-47-123-49-306-4-434 67-190 213-318 465-318 165 0 270 58 357 143-29 37-52 81-86 112-71 26-104-41-170-55-24-5-52-12-86-12-192 5-260 143-260 339 0 194 67 336 254 342 98 3 148-38 200-79 26-20 67-17 87 9" id="B"/><path fill="#333" d="M738-75c-64 55-158 90-269 91-176 2-277-109-277-284v-573c-65-4-153 21-153-52v-98l165-27 52-280c10-66 115-35 183-42v323h270v176H439v556c-1 59 32 101 88 102 48 1 68-25 104-34 19 1 25 9 33 22" id="C"/><g id="d"><use transform="matrix(0.015555555555555557,0,0,0.015555555555555557,0,0)" xlink:href="#t"/><use transform="matrix(0.015555555555555557,0,0,0.015555555555555557,25.63555555555556,0)" xlink:href="#u"/><use transform="matrix(0.015555555555555557,0,0,0.015555555555555557,42.233333333333334,0)" xlink:href="#v"/><use transform="matrix(0.015555555555555557,0,0,0.015555555555555557,54.49111111111111,0)" xlink:href="#w"/><use transform="matrix(0.015555555555555557,0,0,0.015555555555555557,72.08444444444444,0)" xlink:href="#x"/><use transform="matrix(0.015555555555555557,0,0,0.015555555555555557,84.79333333333334,0)" xlink:href="#y"/><use transform="matrix(0.015555555555555557,0,0,0.015555555555555557,102.48,0)" xlink:href="#z"/><use transform="matrix(0.015555555555555557,0,0,0.015555555555555557,110.8488888888889,0)" xlink:href="#A"/><use transform="matrix(0.015555555555555557,0,0,0.015555555555555557,127.47777777777779,0)" xlink:href="#B"/><use transform="matrix(0.015555555555555557,0,0,0.015555555555555557,142.3177777777778,0)" xlink:href="#C"/></g><path fill="#333" d="M1377-1015c71 172 71 412 0 584C1271-174 1052 0 698 0H146v-1446h552c353 6 574 175 679 431zM698-214c307-9 457-198 457-509s-150-500-457-509H417v1018h281" id="D"/><use transform="matrix(0.015555555555555557,0,0,0.015555555555555557,0,0)" xlink:href="#D" id="e"/><path fill="#635dff" d="M398-581c6 222 109 364 330 364 220 0 331-140 331-363v-866h269v866c-5 286-141 466-350 552-142 59-358 59-500 0-210-86-349-266-349-552v-866h269v865" id="E"/><path fill="#635dff" d="M635 15C514 15 442-25 379-85v420H132v-1361c64 5 145-11 192 11 33 24 28 86 42 129 78-86 174-159 331-159 277 0 379 232 379 524 0 241-96 412-258 495-54 27-116 41-183 41zm186-536c0-181-37-329-209-329-117 0-175 55-233 124v460c48 60 104 93 198 93 188 0 244-152 244-348" id="F"/><path fill="#635dff" d="M254-198c95 60 334 64 323-83-9-119-156-122-253-159C192-490 72-550 72-729c0-214 163-309 387-313 145-3 264 55 338 127-26 36-45 82-77 111-69 21-111-33-176-48-103-23-247 0-238 102 11 114 156 118 251 155 126 49 251 100 251 270C808-59 575 48 294 6 192-9 106-54 42-110c28-39 43-95 83-120 49-31 96 11 129 32" id="G"/><path fill="#635dff" d="M738-75c-64 55-158 90-269 91-176 2-277-109-277-284v-573c-65-4-153 21-153-52v-98l165-27 52-280c10-66 115-35 183-42v323h270v176H439v556c-1 59 32 101 88 102 48 1 68-25 104-34 19 1 25 9 33 22" id="H"/><path fill="#635dff" d="M604-806c-122 5-180 74-225 167V0H132v-1026c83 11 206-35 218 62l15 124c63-106 147-205 295-205 51 0 93 12 126 35l-32 185c-4 23-15 33-40 33-33 0-65-16-110-14" id="I"/><path fill="#635dff" d="M991-153C899-47 760 15 568 15 237 15 63-197 63-535c0-237 116-392 287-467 61-27 129-40 206-40 287 0 444 174 444 465 0 54-3 95-57 95H309c4 226 158 349 385 292 52-13 93-39 132-62 32-19 73-16 93 9zM778-631c-4-143-73-234-217-234-154 0-226 95-247 234h464" id="J"/><path fill="#635dff" d="M556-1045c246 0 380 151 380 397V0c-79-6-181 23-196-53l-22-73C630-49 541 18 379 16 194 13 81-77 81-262c0-184 152-247 321-292 78-21 176-31 293-34 10-155-29-262-170-262-104 0-161 40-224 77-47 28-107 5-127-31l-45-79c118-108 260-162 427-162zM317-275c-3 86 56 121 139 121 117 0 179-51 239-111v-173c-122 6-219 17-297 53-49 22-79 51-81 110" id="K"/><path fill="#635dff" d="M565-850c-86 0-140 48-186 99V0H132v-1026c80 9 198-29 214 45l16 76c67-72 141-136 276-137 139-1 214 86 253 192 57-117 162-192 328-192 240 0 354 147 354 389V0h-247v-653c1-123-52-197-169-197s-180 76-180 197V0H729v-653c0-127-46-197-164-197" id="L"/><g id="f"><use transform="matrix(0.017777777777777778,0,0,0.017777777777777778,0,0)" xlink:href="#E"/><use transform="matrix(0.017777777777777778,0,0,0.017777777777777778,25.884444444444444,0)" xlink:href="#F"/><use transform="matrix(0.017777777777777778,0,0,0.017777777777777778,45.99111111111111,0)" xlink:href="#G"/><use transform="matrix(0.017777777777777778,0,0,0.017777777777777778,61.528888888888886,0)" xlink:href="#H"/><use transform="matrix(0.017777777777777778,0,0,0.017777777777777778,75.28888888888889,0)" xlink:href="#I"/><use transform="matrix(0.017777777777777778,0,0,0.017777777777777778,89.81333333333333,0)" xlink:href="#J"/><use transform="matrix(0.017777777777777778,0,0,0.017777777777777778,108.81777777777778,0)" xlink:href="#K"/><use transform="matrix(0.017777777777777778,0,0,0.017777777777777778,127.43111111111111,0)" xlink:href="#L"/></g><path fill="#333" d="M1038-507c0 321-164 521-482 521S72-187 72-507c0-248 107-410 284-485 60-25 126-37 200-37 317 0 482 201 482 522zm-782 1c0 225 80 381 300 381 213 0 298-159 298-381 0-223-84-383-298-383-221 0-300 158-300 383" id="M"/><path fill="#333" d="M594-1317c-165 0-237 72-235 231v93h293v129H365V0H186v-861c-49-9-113-4-146-29-24-17-10-67-14-103h160v-98c5-229 120-363 348-363 45 0 87 7 126 20l-4 89c-2 31-28 28-62 28" id="N"/><g id="g"><use transform="matrix(0.017777777777777778,0,0,0.017777777777777778,0,0)" xlink:href="#M"/><use transform="matrix(0.017777777777777778,0,0,0.017777777777777778,19.76888888888889,0)" xlink:href="#N"/></g><path fill="#333" d="M550-887c-107 0-172 65-226 132V0H146v-1013c60 6 147-22 154 37l13 104c69-80 148-156 287-157 148-1 223 92 258 211 51-126 153-211 323-211 232 0 338 149 338 384V0h-178v-645c1-148-62-242-203-242-142 0-218 94-218 242V0H742v-645c1-149-54-242-192-242" id="O"/><path fill="#333" d="M443 299c-13 26-25 44-64 44H247L432-59 14-1013h154c30-1 46 18 55 37 95 228 197 450 287 682 6 14 8 30 11 45 10-32 18-60 30-90l263-637c18-60 124-30 194-37" id="P"/><path fill="#333" d="M788 165v120H0V165h788" id="Q"/><path fill="#333" d="M602 14c-133 0-212-47-278-119v448H146v-1356c60 6 147-22 154 37l15 120c80-93 179-175 341-175 282 0 383 224 383 518 0 237-92 406-253 487-54 27-116 40-184 40zm253-527c-3-212-53-374-258-374-136 0-207 69-273 153v490c57 77 121 120 238 120 207 0 295-164 293-389" id="R"/><path fill="#333" d="M584-856c-148 6-210 94-260 211V0H146v-1013c62 7 151-25 157 49l12 158c66-138 184-259 384-216 23 5 44 16 63 27l-23 133c-5 17-15 25-31 25-36 0-71-21-124-19" id="S"/><path fill="#333" d="M-17 228c126 0 183-30 183-153v-1088h178V75c-3 186-98 287-286 289-47 0-79-7-114-20l8-96c3-18 11-20 31-20zm273-1687c77 0 128 52 128 128 0 75-52 126-128 126-75 0-126-51-126-126 0-76 50-128 126-128" id="T"/><path fill="#333" d="M954-142C850-8 572 61 364-22 180-96 74-268 74-527c0-234 108-389 275-463 59-26 125-39 198-39 273 0 420 174 420 453 0 48-2 70-43 70H250c8 226 98 375 322 380 114 2 191-38 258-82 70-46 94 37 124 66zM807-617c-5-171-86-278-256-281-181-3-273 116-295 281h551" id="U"/><path fill="#333" d="M895-142C799-8 539 62 344-21 173-94 74-262 74-507c0-317 160-522 477-522 151 0 254 54 333 132-21 26-39 58-63 81-42 20-68-19-100-34-42-20-91-42-160-40-219 6-304 160-304 383 0 220 82 376 295 383 106 4 169-38 223-84 22-19 53-21 70 1" id="V"/><path fill="#333" d="M698-76c-54 52-145 92-245 92-162 1-249-96-249-260v-620c-58-9-160 26-160-39v-71l166-21 41-313c4-50 80-30 131-34v349h290v129H382v608c-2 78 40 125 111 126 60 2 88-33 128-48 9 0 18 6 25 17" id="W"/><g id="h"><use transform="matrix(0.017777777777777778,0,0,0.017777777777777778,0,0)" xlink:href="#O"/><use transform="matrix(0.017777777777777778,0,0,0.017777777777777778,28.622222222222224,0)" xlink:href="#P"/><use transform="matrix(0.017777777777777778,0,0,0.017777777777777778,46.82666666666667,0)" xlink:href="#Q"/><use transform="matrix(0.017777777777777778,0,0,0.017777777777777778,60.83555555555556,0)" xlink:href="#R"/><use transform="matrix(0.017777777777777778,0,0,0.017777777777777778,80.46222222222222,0)" xlink:href="#S"/><use transform="matrix(0.017777777777777778,0,0,0.017777777777777778,94.7911111111111,0)" xlink:href="#M"/><use transform="matrix(0.017777777777777778,0,0,0.017777777777777778,114.56,0)" xlink:href="#T"/><use transform="matrix(0.017777777777777778,0,0,0.017777777777777778,123.5911111111111,0)" xlink:href="#U"/><use transform="matrix(0.017777777777777778,0,0,0.017777777777777778,142.22222222222223,0)" xlink:href="#V"/><use transform="matrix(0.017777777777777778,0,0,0.017777777777777778,158.82666666666665,0)" xlink:href="#W"/></g><path fill="#635dff" d="M1377-1015c71 172 71 412 0 584C1271-174 1052 0 698 0H146v-1446h552c353 6 574 175 679 431zM698-214c307-9 457-198 457-509s-150-500-457-509H417v1018h281" id="X"/><path fill="#635dff" d="M361-1005c121-49 297-49 417 0 184 74 298 236 298 490 0 330-178 530-506 530C241 15 61-185 61-515c0-254 115-416 300-490zm-45 492c0 201 65 338 254 338 188 0 251-137 251-338s-63-340-251-340c-189 0-254 139-254 340" id="Y"/><path fill="#635dff" d="M7-1026h196c35-1 64 19 71 46 60 241 137 465 181 722 68-246 151-481 220-724 17-60 103-44 175-46 35-1 61 20 69 46 70 242 148 477 212 725 47-256 125-482 189-723 21-78 165-35 255-46L1250 0h-199c-21 0-37-15-46-44-67-218-136-432-201-652-5-20-10-39-13-58-8 41-17 80-29 119L575-44c-9 29-27 44-54 44H332" id="Z"/><path fill="#635dff" d="M605-850c-102 1-168 52-226 108V0H132v-1026c80 9 198-29 214 45l17 81c77-76 165-142 317-142 235 0 346 154 346 389V0H779v-653c0-121-55-198-174-197" id="aa"/><g id="i"><use transform="matrix(0.017777777777777778,0,0,0.017777777777777778,0,0)" xlink:href="#X"/><use transform="matrix(0.017777777777777778,0,0,0.017777777777777778,26.57777777777778,0)" xlink:href="#Y"/><use transform="matrix(0.017777777777777778,0,0,0.017777777777777778,46.791111111111114,0)" xlink:href="#Z"/><use transform="matrix(0.017777777777777778,0,0,0.017777777777777778,74.91555555555556,0)" xlink:href="#aa"/><use transform="matrix(0.017777777777777778,0,0,0.017777777777777778,95.1288888888889,0)" xlink:href="#G"/><use transform="matrix(0.017777777777777778,0,0,0.017777777777777778,110.66666666666667,0)" xlink:href="#H"/><use transform="matrix(0.017777777777777778,0,0,0.017777777777777778,124.42666666666668,0)" xlink:href="#I"/><use transform="matrix(0.017777777777777778,0,0,0.017777777777777778,138.95111111111112,0)" xlink:href="#J"/><use transform="matrix(0.017777777777777778,0,0,0.017777777777777778,157.95555555555558,0)" xlink:href="#K"/><use transform="matrix(0.017777777777777778,0,0,0.017777777777777778,176.56888888888892,0)" xlink:href="#L"/></g><path fill="#333" d="M398-581c6 222 109 364 330 364 220 0 331-140 331-363v-866h269v866c-5 286-141 466-350 552-142 59-358 59-500 0-210-86-349-266-349-552v-866h269v865" id="ab"/><path fill="#333" d="M254-198c95 60 334 64 323-83-9-119-156-122-253-159C192-490 72-550 72-729c0-214 163-309 387-313 145-3 264 55 338 127-26 36-45 82-77 111-69 21-111-33-176-48-103-23-247 0-238 102 11 114 156 118 251 155 126 49 251 100 251 270C808-59 575 48 294 6 192-9 106-54 42-110c28-39 43-95 83-120 49-31 96 11 129 32" id="ac"/><path fill="#333" d="M556-1045c246 0 380 151 380 397V0c-79-6-181 23-196-53l-22-73C630-49 541 18 379 16 194 13 81-77 81-262c0-184 152-247 321-292 78-21 176-31 293-34 10-155-29-262-170-262-104 0-161 40-224 77-47 28-107 5-127-31l-45-79c118-108 260-162 427-162zM317-275c-3 86 56 121 139 121 117 0 179-51 239-111v-173c-122 6-219 17-297 53-49 22-79 51-81 110" id="ad"/><g id="j"><use transform="matrix(0.017777777777777778,0,0,0.017777777777777778,0,0)" xlink:href="#ab"/><use transform="matrix(0.017777777777777778,0,0,0.017777777777777778,25.884444444444444,0)" xlink:href="#w"/><use transform="matrix(0.017777777777777778,0,0,0.017777777777777778,45.99111111111111,0)" xlink:href="#ac"/><use transform="matrix(0.017777777777777778,0,0,0.017777777777777778,61.528888888888886,0)" xlink:href="#C"/><use transform="matrix(0.017777777777777778,0,0,0.017777777777777778,75.28888888888889,0)" xlink:href="#x"/><use transform="matrix(0.017777777777777778,0,0,0.017777777777777778,89.81333333333333,0)" xlink:href="#A"/><use transform="matrix(0.017777777777777778,0,0,0.017777777777777778,108.81777777777778,0)" xlink:href="#ad"/><use transform="matrix(0.017777777777777778,0,0,0.017777777777777778,127.43111111111111,0)" xlink:href="#t"/></g><path fill="#333" d="M605-850c-102 1-168 52-226 108V0H132v-1026c80 9 198-29 214 45l17 81c77-76 165-142 317-142 235 0 346 154 346 389V0H779v-653c0-121-55-198-174-197" id="ae"/><path fill="#333" d="M502-1045c120-1 193 43 256 101v-542h247V0c-80-9-199 29-214-45l-20-99C693-58 601 15 441 15 163 15 61-217 61-510c0-241 98-411 259-494 54-27 115-41 182-41zM316-510c0 181 36 329 209 329 118 0 173-54 233-123v-460c-48-59-104-93-198-93-188 0-244 151-244 347" id="af"/><g id="k"><use transform="matrix(0.017777777777777778,0,0,0.017777777777777778,0,0)" xlink:href="#ad"/><use transform="matrix(0.017777777777777778,0,0,0.017777777777777778,18.613333333333333,0)" xlink:href="#ae"/><use transform="matrix(0.017777777777777778,0,0,0.017777777777777778,38.82666666666667,0)" xlink:href="#af"/></g><path fill="#333" d="M7-1026h196c35-1 64 19 71 46 60 241 137 465 181 722 68-246 151-481 220-724 17-60 103-44 175-46 35-1 61 20 69 46 70 242 148 477 212 725 47-256 125-482 189-723 21-78 165-35 255-46L1250 0h-199c-21 0-37-15-46-44-67-218-136-432-201-652-5-20-10-39-13-58-8 41-17 80-29 119L575-44c-9 29-27 44-54 44H332" id="ag"/><g id="l"><use transform="matrix(0.017777777777777778,0,0,0.017777777777777778,0,0)" xlink:href="#D"/><use transform="matrix(0.017777777777777778,0,0,0.017777777777777778,26.57777777777778,0)" xlink:href="#y"/><use transform="matrix(0.017777777777777778,0,0,0.017777777777777778,46.791111111111114,0)" xlink:href="#ag"/><use transform="matrix(0.017777777777777778,0,0,0.017777777777777778,74.91555555555556,0)" xlink:href="#ae"/><use transform="matrix(0.017777777777777778,0,0,0.017777777777777778,95.1288888888889,0)" xlink:href="#ac"/><use transform="matrix(0.017777777777777778,0,0,0.017777777777777778,110.66666666666667,0)" xlink:href="#C"/><use transform="matrix(0.017777777777777778,0,0,0.017777777777777778,124.42666666666668,0)" xlink:href="#x"/><use transform="matrix(0.017777777777777778,0,0,0.017777777777777778,138.95111111111112,0)" xlink:href="#A"/><use transform="matrix(0.017777777777777778,0,0,0.017777777777777778,157.95555555555558,0)" xlink:href="#ad"/><use transform="matrix(0.017777777777777778,0,0,0.017777777777777778,176.56888888888892,0)" xlink:href="#t"/></g><path fill="#333" d="M395-1026V0H148v-1026h247zm-123-457c96 0 160 62 160 158 0 94-65 155-160 155-93 0-156-62-156-155 0-95 61-158 156-158" id="ah"/><g id="m"><use transform="matrix(0.017777777777777778,0,0,0.017777777777777778,0,0)" xlink:href="#ah"/><use transform="matrix(0.017777777777777778,0,0,0.017777777777777778,9.635555555555555,0)" xlink:href="#ae"/></g><path fill="#333" d="M1480-1018c71 176 71 414 0 590-106 261-323 444-679 444S225-168 120-428c-71-176-71-414 0-590 106-261 324-444 681-444 355 0 573 184 679 444zM801-214c307 0 456-198 456-509s-149-510-456-510c-308 0-459 198-459 510s152 509 459 509" id="ai"/><g id="n"><use transform="matrix(0.017777777777777778,0,0,0.017777777777777778,0,0)" xlink:href="#ai"/><use transform="matrix(0.017777777777777778,0,0,0.017777777777777778,28.426666666666666,0)" xlink:href="#w"/><use transform="matrix(0.017777777777777778,0,0,0.017777777777777778,48.53333333333333,0)" xlink:href="#A"/><use transform="matrix(0.017777777777777778,0,0,0.017777777777777778,67.53777777777778,0)" xlink:href="#ae"/></g><path fill="#333" d="M519-204c146 0 246-70 241-211-6-175-195-185-333-232-183-63-339-153-333-400 5-199 120-319 272-380 126-51 311-44 437 5 72 27 133 64 184 112l-66 127c-15 40-64 51-105 25-64-41-136-87-246-85-132 3-224 54-224 182 0 167 202 176 334 227 173 67 333 144 333 381 0 227-120 364-289 433-138 56-353 39-478-16-80-35-154-80-210-138l78-129c23-34 74-43 115-13 73 54 157 112 290 112" id="aj"/><path fill="#333" d="M457 16c-234 0-346-155-346-390v-652h247v652c0 121 55 198 174 197 102-1 168-51 226-107v-742h247V0c-80-9-199 29-214-45l-17-82C697-50 608 16 457 16" id="ak"/><g id="o"><use transform="matrix(0.017777777777777778,0,0,0.017777777777777778,0,0)" xlink:href="#aj"/><use transform="matrix(0.017777777777777778,0,0,0.017777777777777778,19.075555555555557,0)" xlink:href="#y"/><use transform="matrix(0.017777777777777778,0,0,0.017777777777777778,39.28888888888889,0)" xlink:href="#ak"/><use transform="matrix(0.017777777777777778,0,0,0.017777777777777778,59.50222222222223,0)" xlink:href="#x"/><use transform="matrix(0.017777777777777778,0,0,0.017777777777777778,74.02666666666667,0)" xlink:href="#B"/><use transform="matrix(0.017777777777777778,0,0,0.017777777777777778,90.98666666666668,0)" xlink:href="#A"/></g><path fill="#333" d="M601-1285c-158 0-198 102-186 268h267v176H423V0H176v-840c-61-14-153-3-153-76v-101h153c-17-292 113-454 383-454 47 0 91 6 132 19l-5 124c-1 41-44 43-85 43" id="al"/><g id="p"><use transform="matrix(0.017777777777777778,0,0,0.017777777777777778,0,0)" xlink:href="#aj"/><use transform="matrix(0.017777777777777778,0,0,0.017777777777777778,19.075555555555557,0)" xlink:href="#y"/><use transform="matrix(0.017777777777777778,0,0,0.017777777777777778,39.28888888888889,0)" xlink:href="#al"/><use transform="matrix(0.017777777777777778,0,0,0.017777777777777778,51.75111111111111,0)" xlink:href="#C"/><use transform="matrix(0.017777777777777778,0,0,0.017777777777777778,65.51111111111112,0)" xlink:href="#ag"/><use transform="matrix(0.017777777777777778,0,0,0.017777777777777778,93.63555555555557,0)" xlink:href="#ad"/><use transform="matrix(0.017777777777777778,0,0,0.017777777777777778,112.2488888888889,0)" xlink:href="#x"/><use transform="matrix(0.017777777777777778,0,0,0.017777777777777778,126.77333333333333,0)" xlink:href="#A"/></g></defs></g></svg>
