<svg version="1.1" xmlns="http://www.w3.org/2000/svg" viewBox="0 0 1150.0239868164062 586.3553009033203" width="1150.0239868164062" height="586.3553009033203">
  <!-- svg-source:excalidraw -->

  <defs>
    <style class="style-fonts">
      @font-face {
        font-family: "Virgil";
        src: url("https://excalidraw.com/Virgil.woff2");
      }
      @font-face {
        font-family: "Cascadia";
        src: url("https://excalidraw.com/Cascadia.woff2");
      }
    </style>
  </defs>
  <rect x="0" y="0" width="1150.0239868164062" height="586.3553009033203" fill="#ffffff"></rect><g transform="translate(316.18255615234375 199.0249786376953) rotate(0 48.649940490722656 12.5)"><text x="0" y="0" font-family="Virgil, Segoe UI Emoji" font-size="20px" fill="#e03131" text-anchor="start" style="white-space: pre;" direction="ltr" dominant-baseline="text-before-edge">Permissive</text></g><g transform="translate(693.4026489257812 200.0808868408203) rotate(0 106.33989715576172 12.5)"><text x="0" y="0" font-family="Virgil, Segoe UI Emoji" font-size="20px" fill="#e03131" text-anchor="start" style="white-space: pre;" direction="ltr" dominant-baseline="text-before-edge">Protective / Copyleft</text></g><g stroke-linecap="round"><g transform="translate(506.3931884765625 313.3463439941406) rotate(0 -192.2119140625 0.04205322265625)"><path d="M0 0 C-64.07 0.01, -320.35 0.07, -384.42 0.08 M0 0 C-64.07 0.01, -320.35 0.07, -384.42 0.08" stroke="#1e1e1e" stroke-width="1" fill="none"></path></g><g transform="translate(506.3931884765625 313.3463439941406) rotate(0 -192.2119140625 0.04205322265625)"><path d="M-356.24 -10.18 C-366.43 -6.47, -376.63 -2.75, -384.42 0.08 M-356.24 -10.18 C-366.39 -6.48, -376.55 -2.78, -384.42 0.08" stroke="#1e1e1e" stroke-width="1" fill="none"></path></g><g transform="translate(506.3931884765625 313.3463439941406) rotate(0 -192.2119140625 0.04205322265625)"><path d="M-356.23 10.34 C-366.43 6.63, -376.63 2.92, -384.42 0.08 M-356.23 10.34 C-366.39 6.64, -376.55 2.95, -384.42 0.08" stroke="#1e1e1e" stroke-width="1" fill="none"></path></g></g><mask></mask><g transform="translate(753.7550048828125 392.8943786621094) rotate(0 125.93991088867188 12.5)"><text x="0" y="0" font-family="Virgil, Segoe UI Emoji" font-size="20px" fill="#1971c2" text-anchor="start" style="white-space: pre;" direction="ltr" dominant-baseline="text-before-edge">GNU Public License (GPL)</text></g><g transform="translate(470.935546875 76.10224914550781) rotate(0 87.80326080322266 17.129058837890625)"><text x="0" y="0" font-family="Virgil, Segoe UI Emoji" font-size="27.406494140625px" fill="#1e1e1e" text-anchor="start" style="white-space: pre;" direction="ltr" dominant-baseline="text-before-edge">OSS Licenses</text></g><g transform="translate(243.2313232421875 238.84939575195312) rotate(0 134.02178955078125 20.324265028403175)"><text x="0" y="0" font-family="Virgil, Segoe UI Emoji" font-size="16.25941202272254px" fill="#1e1e1e" text-anchor="start" style="white-space: pre;" direction="ltr" dominant-baseline="text-before-edge">Minimal restrictions on </text><text x="0" y="20.324265028403175" font-family="Virgil, Segoe UI Emoji" font-size="16.25941202272254px" fill="#1e1e1e" text-anchor="start" style="white-space: pre;" direction="ltr" dominant-baseline="text-before-edge">derivative work and redistribution</text></g><g transform="translate(671.3035507202148 240.49263688122335) rotate(0 135.88241577148438 20.324265028403175)"><text x="0" y="0" font-family="Virgil, Segoe UI Emoji" font-size="16.25941202272254px" fill="#1e1e1e" text-anchor="start" style="white-space: pre;" direction="ltr" dominant-baseline="text-before-edge">Derivations and redistributions</text><text x="0" y="20.324265028403175" font-family="Virgil, Segoe UI Emoji" font-size="16.25941202272254px" fill="#1e1e1e" text-anchor="start" style="white-space: pre;" direction="ltr" dominant-baseline="text-before-edge">must be open (in varying capacity)</text></g><g transform="translate(192.5413818359375 343.8389892578125) rotate(0 72.82994079589844 12.5)"><text x="0" y="0" font-family="Virgil, Segoe UI Emoji" font-size="20px" fill="#1971c2" text-anchor="start" style="white-space: pre;" direction="ltr" dominant-baseline="text-before-edge">Apache License</text></g><g transform="translate(174.27838134765625 442.5101318359375) rotate(0 60.38995361328125 12.5)"><text x="0" y="0" font-family="Virgil, Segoe UI Emoji" font-size="20px" fill="#1971c2" text-anchor="start" style="white-space: pre;" direction="ltr" dominant-baseline="text-before-edge">MIT License</text></g><g transform="translate(229.646240234375 395.3515930175781) rotate(0 108.62991333007812 12.5)"><text x="0" y="0" font-family="Virgil, Segoe UI Emoji" font-size="20px" fill="#1971c2" text-anchor="start" style="white-space: pre;" direction="ltr" dominant-baseline="text-before-edge">BSD 3-Clause License</text></g><g transform="translate(626.1172485351562 346.4937438964844) rotate(0 137.27987670898438 12.5)"><text x="0" y="0" font-family="Virgil, Segoe UI Emoji" font-size="20px" fill="#1971c2" text-anchor="start" style="white-space: pre;" direction="ltr" dominant-baseline="text-before-edge">Mozilla Public License (MPL)</text></g><g stroke-linecap="round"><g transform="translate(504.8924560546875 314.0721740722656) rotate(0 254.09103393554688 -1.543731689453125)"><path d="M0 0 C84.7 -0.51, 423.49 -2.57, 508.18 -3.09 M0 0 C84.7 -0.51, 423.49 -2.57, 508.18 -3.09" stroke="#1e1e1e" stroke-width="1" fill="none"></path></g><g transform="translate(504.8924560546875 314.0721740722656) rotate(0 254.09103393554688 -1.543731689453125)"><path d="M480.05 7.34 C490.91 3.32, 501.77 -0.71, 508.18 -3.09 M480.05 7.34 C487.1 4.73, 494.14 2.12, 508.18 -3.09" stroke="#1e1e1e" stroke-width="1" fill="none"></path></g><g transform="translate(504.8924560546875 314.0721740722656) rotate(0 254.09103393554688 -1.543731689453125)"><path d="M479.93 -13.18 C490.84 -9.28, 501.75 -5.39, 508.18 -3.09 M479.93 -13.18 C487 -10.65, 494.08 -8.12, 508.18 -3.09" stroke="#1e1e1e" stroke-width="1" fill="none"></path></g></g><mask></mask><g stroke-linecap="round" transform="translate(10 10) rotate(0 565.0119934082031 283.17765045166016)"><path d="M32 0 M32 0 C436.87 0, 841.74 0, 1098.02 0 M32 0 C269.5 0, 507 0, 1098.02 0 M1098.02 0 C1119.36 0, 1130.02 10.67, 1130.02 32 M1098.02 0 C1119.36 0, 1130.02 10.67, 1130.02 32 M1130.02 32 C1130.02 230.24, 1130.02 428.48, 1130.02 534.36 M1130.02 32 C1130.02 211.35, 1130.02 390.7, 1130.02 534.36 M1130.02 534.36 C1130.02 555.69, 1119.36 566.36, 1098.02 566.36 M1130.02 534.36 C1130.02 555.69, 1119.36 566.36, 1098.02 566.36 M1098.02 566.36 C699.82 566.36, 301.63 566.36, 32 566.36 M1098.02 566.36 C865.08 566.36, 632.14 566.36, 32 566.36 M32 566.36 C10.67 566.36, 0 555.69, 0 534.36 M32 566.36 C10.67 566.36, 0 555.69, 0 534.36 M0 534.36 C0 406.59, 0 278.83, 0 32 M0 534.36 C0 408.23, 0 282.1, 0 32 M0 32 C0 10.67, 10.67 0, 32 0 M0 32 C0 10.67, 10.67 0, 32 0" stroke="#1e1e1e" stroke-width="1" fill="none"></path></g></svg>
